<svg width="48" height="48" viewBox="0 0 48 48" fill="none" xmlns="http://www.w3.org/2000/svg">
<g clip-path="url(#clip0_2015_11697)">
<mask id="mask0_2015_11697" style="mask-type:alpha" maskUnits="userSpaceOnUse" x="0" y="0" width="48" height="48">
<path d="M48 0H0V48H24.0993V43.6923C22.9203 42.5131 22.4455 40.8007 22.85 39.1822L23.501 36.5779C23.8738 35.0866 24.6223 33.7156 25.6752 32.5956L32.084 25.7789L33.7272 24.1378L33.7284 24.1367L33.7293 24.1358C36.4684 21.3985 40.9161 21.3992 43.6544 24.1378L43.6554 24.1388C45.7777 26.2629 46.255 29.4144 45.085 32H48V0Z" fill="#FAA61A"/>
</mask>
<g mask="url(#mask0_2015_11697)">
<path d="M4 12V36C4 38.208 5.79 40 8 40H10V8H8C5.79 8 4 9.79 4 12Z" fill="#6A7480"/>
<path d="M40 8H14V40H40C42.208 40 44 38.208 44 36V12C44 9.79 42.208 8 40 8ZM38 28C38 30.208 36.208 32 34 32C31.792 32 30 30.208 30 28C30 25.792 31.792 24 34 24V18.774L26 21.442C26 21.442 26 29.962 26 30C26 32.208 24.208 34 22 34C19.792 34 18 32.208 18 30C18 27.792 19.792 26 22 26V20C22 19.138 22.55 18.376 23.368 18.102L35.368 14.102C35.978 13.898 36.646 14 37.17 14.378C37.692 14.752 38 15.358 38 16C38 16 38 27.96 38 28Z" fill="#6A7480"/>
</g>
<path fill-rule="evenodd" clip-rule="evenodd" d="M40.2854 31.7759L40.8254 31.2366C42.0022 30.0596 42.0022 28.1437 40.8254 26.966C39.6486 25.789 37.7324 25.789 36.5555 26.966L36.0163 27.5061L40.2854 31.7759ZM34.9549 28.5646L28.5286 34.9937L32.7984 39.2631L39.2248 32.8339L34.9549 28.5646ZM27.6401 41.0612L31.5072 40.0951L27.6971 36.2843L26.7303 40.1521C26.6666 40.4071 26.7416 40.6779 26.9276 40.864C27.1136 41.05 27.3843 41.1243 27.6401 41.0612Z" fill="#FAA61A"/>
</g>
<defs>
<clipPath id="clip0_2015_11697">
<rect width="48" height="48" fill="white"/>
</clipPath>
</defs>
</svg>
