<svg width="48" height="48" viewBox="0 0 48 48" fill="none" xmlns="http://www.w3.org/2000/svg">
<path d="M4 12V36C4 38.208 5.79 40 8 40H10V8H8C5.79 8 4 9.79 4 12Z" fill="#6A7480"/>
<path d="M40 8H14V40H40C42.208 40 44 38.208 44 36V12C44 9.79 42.208 8 40 8ZM38 28C38 30.208 36.208 32 34 32C31.792 32 30 30.208 30 28C30 25.792 31.792 24 34 24V18.774L26 21.442C26 21.442 26 29.962 26 30C26 32.208 24.208 34 22 34C19.792 34 18 32.208 18 30C18 27.792 19.792 26 22 26V20C22 19.138 22.55 18.376 23.368 18.102L35.368 14.102C35.978 13.898 36.646 14 37.17 14.378C37.692 14.752 38 15.358 38 16C38 16 38 27.96 38 28Z" fill="#6A7480"/>
</svg>
