<svg width="48" height="48" viewBox="0 0 48 48" fill="none" xmlns="http://www.w3.org/2000/svg">
<g clip-path="url(#clip0_2015_11689)">
<mask id="mask0_2015_11689" style="mask-type:alpha" maskUnits="userSpaceOnUse" x="0" y="0" width="48" height="48">
<path d="M48 0H0V48H34V46.3333C27.1959 46.3333 21.6667 40.8041 21.6667 34C21.6667 27.1959 27.1959 21.6667 34 21.6667C40.8041 21.6667 46.3333 27.1959 46.3333 34H48V0Z" fill="#FF0000"/>
</mask>
<g mask="url(#mask0_2015_11689)">
<path d="M4 12V36C4 38.208 5.79 40 8 40H10V8H8C5.79 8 4 9.79 4 12Z" fill="#6A7480"/>
<path d="M40 8H14V40H40C42.208 40 44 38.208 44 36V12C44 9.79 42.208 8 40 8ZM38 28C38 30.208 36.208 32 34 32C31.792 32 30 30.208 30 28C30 25.792 31.792 24 34 24V18.774L26 21.442C26 21.442 26 29.962 26 30C26 32.208 24.208 34 22 34C19.792 34 18 32.208 18 30C18 27.792 19.792 26 22 26V20C22 19.138 22.55 18.376 23.368 18.102L35.368 14.102C35.978 13.898 36.646 14 37.17 14.378C37.692 14.752 38 15.358 38 16C38 16 38 27.96 38 28Z" fill="#6A7480"/>
</g>
<path d="M34.0003 25.6667C29.4053 25.6667 25.667 29.4051 25.667 34.0001C25.667 38.5951 29.4053 42.3334 34.0003 42.3334C38.5953 42.3334 42.3337 38.5951 42.3337 34.0001C42.3337 29.4051 38.5953 25.6667 34.0003 25.6667ZM38.167 34.0001C38.167 34.4603 37.7939 34.8334 37.3337 34.8334H34.8337V37.3334C34.8337 37.7937 34.4606 38.1668 34.0003 38.1668C33.5401 38.1668 33.167 37.7937 33.167 37.3334V34.8334H30.667C30.2068 34.8334 29.8337 34.4603 29.8337 34.0001C29.8337 33.5399 30.2068 33.1668 30.667 33.1668H33.167V30.6667C33.167 30.2065 33.5401 29.8334 34.0003 29.8334C34.4606 29.8334 34.8337 30.2065 34.8337 30.6667V33.1668H37.3337C37.7939 33.1668 38.167 33.5399 38.167 34.0001Z" fill="#43B581"/>
</g>
<defs>
<clipPath id="clip0_2015_11689">
<rect width="48" height="48" fill="white"/>
</clipPath>
</defs>
</svg>
