<svg width="48" height="48" viewBox="0 0 48 48" fill="none" xmlns="http://www.w3.org/2000/svg">
<g clip-path="url(#clip0_2053_11498)">
<mask id="mask0_2053_11498" style="mask-type:alpha" maskUnits="userSpaceOnUse" x="0" y="0" width="48" height="48">
<path d="M48 0H0V48H34V47.1667C30.7706 47.1667 28.2605 45.7642 26.4936 43.809C24.8296 41.9677 23.8638 39.6987 23.2771 37.7534C22.1029 33.8601 22.0833 29.9971 22.0833 29.6154C22.0833 27.8848 23.016 26.2795 24.5374 25.4285L31.6654 21.4412C33.1171 20.6307 34.8829 20.6307 36.3346 21.4412L43.4616 25.428L43.4626 25.4285C44.984 26.2795 45.9167 27.8849 45.9167 29.6154H48V0Z" fill="#FF0000"/>
</mask>
<g mask="url(#mask0_2053_11498)">
<path d="M24 5.5C25.0126 5.5 25.9838 5.88982 26.6999 6.5837C27.4159 7.27759 27.8182 8.2187 27.8182 9.2C27.8182 10.569 27.0545 11.7715 25.9091 12.4005V14.75H27.8182C31.3624 14.75 34.7615 16.1144 37.2677 18.543C39.7739 20.9716 41.1818 24.2654 41.1818 27.7H43.0909C43.5972 27.7 44.0828 27.8949 44.4408 28.2419C44.7989 28.5888 45 29.0593 45 29.55V35.1C45 35.5907 44.7989 36.0612 44.4408 36.4081C44.0828 36.7551 43.5972 36.95 43.0909 36.95H41.1818V38.8C41.1818 39.7813 40.7795 40.7224 40.0635 41.4163C39.3475 42.1102 38.3763 42.5 37.3636 42.5H10.6364C9.62372 42.5 8.65255 42.1102 7.9365 41.4163C7.22045 40.7224 6.81818 39.7813 6.81818 38.8V36.95H4.90909C4.40277 36.95 3.91718 36.7551 3.55916 36.4081C3.20114 36.0612 3 35.5907 3 35.1V29.55C3 29.0593 3.20114 28.5888 3.55916 28.2419C3.91718 27.8949 4.40277 27.7 4.90909 27.7H6.81818C6.81818 24.2654 8.22613 20.9716 10.7323 18.543C13.2385 16.1144 16.6376 14.75 20.1818 14.75H22.0909V12.4005C20.9455 11.7715 20.1818 10.569 20.1818 9.2C20.1818 8.2187 20.5841 7.27759 21.3001 6.5837C22.0162 5.88982 22.9874 5.5 24 5.5ZM15.4091 25.85C14.1433 25.85 12.9293 26.3373 12.0343 27.2046C11.1392 28.072 10.6364 29.2484 10.6364 30.475C10.6364 31.7016 11.1392 32.878 12.0343 33.7454C12.9293 34.6127 14.1433 35.1 15.4091 35.1C16.6749 35.1 17.8889 34.6127 18.7839 33.7454C19.679 32.878 20.1818 31.7016 20.1818 30.475C20.1818 29.2484 19.679 28.072 18.7839 27.2046C17.8889 26.3373 16.6749 25.85 15.4091 25.85ZM32.5909 25.85C31.3251 25.85 30.1111 26.3373 29.2161 27.2046C28.321 28.072 27.8182 29.2484 27.8182 30.475C27.8182 31.7016 28.321 32.878 29.2161 33.7454C30.1111 34.6127 31.3251 35.1 32.5909 35.1C33.8567 35.1 35.0707 34.6127 35.9657 33.7454C36.8608 32.878 37.3636 31.7016 37.3636 30.475C37.3636 29.2484 36.8608 28.072 35.9657 27.2046C35.0707 26.3373 33.8567 25.85 32.5909 25.85Z" fill="#6A7480"/>
</g>
<path fill-rule="evenodd" clip-rule="evenodd" d="M41.5099 28.9194L34.3849 24.9337C34.145 24.7998 33.8553 24.7998 33.6154 24.9337L26.4904 28.9194C26.2395 29.0597 26.0835 29.3259 26.0835 29.6153C26.0835 30.1685 26.1737 43.1666 34.0002 43.1666C41.8266 43.1666 41.9168 30.1685 41.9168 29.6153C41.9168 29.3259 41.7609 29.0597 41.5099 28.9194ZM34.0002 29.6153C35.0935 29.6153 35.9793 30.5073 35.9793 31.6081C35.9793 32.709 35.0935 33.601 34.0002 33.601C32.9069 33.601 32.021 32.709 32.021 31.6081C32.021 30.5073 32.9069 29.6153 34.0002 29.6153ZM31.4481 37.5874C31.218 37.5874 31.0288 37.3999 31.0521 37.171C31.2144 35.5801 32.3206 34.5982 34.0002 34.5982C35.6798 34.5982 36.7859 35.5801 36.9482 37.171C36.9716 37.3999 36.7824 37.5874 36.5523 37.5874H31.4481Z" fill="#43B581"/>
</g>
<defs>
<clipPath id="clip0_2053_11498">
<rect width="48" height="48" fill="white"/>
</clipPath>
</defs>
</svg>
