<svg width="48" height="48" viewBox="0 0 48 48" fill="none" xmlns="http://www.w3.org/2000/svg">
<g clip-path="url(#clip0_2053_11698)">
<mask id="mask0_2053_11698" style="mask-type:alpha" maskUnits="userSpaceOnUse" x="0" y="0" width="48" height="48">
<path d="M48 0H0V48H28.7377V45.0833C27.8207 45.0833 26.9197 44.8426 26.1248 44.385L26.1198 44.3822C25.4682 44.0061 24.9342 43.4548 24.7849 43.3007L24.7849 43.3007C24.7712 43.2866 24.7608 43.2758 24.7538 43.2688L24.7474 43.2624C24.7388 43.2538 24.7264 43.2418 24.7107 43.2266C24.5431 43.0642 23.9962 42.5342 23.6207 41.8854L23.6187 41.8821C23.1588 41.0859 22.9167 40.1827 22.9167 39.2631C22.9167 38.3435 23.1588 37.4403 23.6187 36.6441L23.6207 36.6408C23.9961 35.9922 24.5479 35.4575 24.7088 35.3016L24.7091 35.3013C24.7241 35.2868 24.7356 35.2756 24.7433 35.2679L24.7528 35.2584L26.409 33.6141C25.8545 32.8153 25.2929 31.686 25.2929 30.2264C25.2929 28.5724 26.0141 27.3426 26.6291 26.537C27.1404 25.8673 27.8291 25.1797 28.4141 24.5957L28.4141 24.5957L28.5275 24.4824L28.6409 24.369C29.2252 23.7843 29.913 23.0959 30.583 22.5849C31.389 21.9702 32.6185 21.25 34.2715 21.25C35.9242 21.25 37.1537 21.9695 37.9606 22.5849C38.131 22.7149 38.3025 22.8563 38.4732 23.0046C38.7523 22.9635 39.0352 22.9448 39.3193 22.9493C40.2102 22.9634 41.0829 23.2045 41.8547 23.65L41.8579 23.6518C42.5067 24.0271 43.0368 24.5736 43.1993 24.7411L43.2001 24.742C43.2142 24.7564 43.2254 24.7681 43.2337 24.7764L43.2352 24.7779L43.2415 24.7842C43.2486 24.7913 43.2596 24.8019 43.2738 24.8157C43.4286 24.9655 43.9788 25.4982 44.3537 26.1458L44.3548 26.1478C44.8014 26.9201 45.0432 27.7937 45.0573 28.6858C45.0618 28.9698 45.0431 29.2526 45.002 29.5315C45.1476 29.6992 45.2865 29.8678 45.4142 30.0352C46.0296 30.8415 46.75 32.0712 46.75 33.7247H48V0Z" fill="#F04747"/>
</mask>
<g mask="url(#mask0_2053_11698)">
<path d="M24 5.5C25.0126 5.5 25.9838 5.88982 26.6999 6.5837C27.4159 7.27759 27.8182 8.2187 27.8182 9.2C27.8182 10.569 27.0545 11.7715 25.9091 12.4005V14.75H27.8182C31.3624 14.75 34.7615 16.1144 37.2677 18.543C39.7739 20.9716 41.1818 24.2654 41.1818 27.7H43.0909C43.5972 27.7 44.0828 27.8949 44.4408 28.2419C44.7989 28.5888 45 29.0593 45 29.55V35.1C45 35.5907 44.7989 36.0612 44.4408 36.4081C44.0828 36.7551 43.5972 36.95 43.0909 36.95H41.1818V38.8C41.1818 39.7813 40.7795 40.7224 40.0635 41.4163C39.3475 42.1102 38.3763 42.5 37.3636 42.5H10.6364C9.62372 42.5 8.65255 42.1102 7.9365 41.4163C7.22045 40.7224 6.81818 39.7813 6.81818 38.8V36.95H4.90909C4.40277 36.95 3.91718 36.7551 3.55916 36.4081C3.20114 36.0612 3 35.5907 3 35.1V29.55C3 29.0593 3.20114 28.5888 3.55916 28.2419C3.91718 27.8949 4.40277 27.7 4.90909 27.7H6.81818C6.81818 24.2654 8.22613 20.9716 10.7323 18.543C13.2385 16.1144 16.6376 14.75 20.1818 14.75H22.0909V12.4005C20.9455 11.7715 20.1818 10.569 20.1818 9.2C20.1818 8.2187 20.5841 7.27759 21.3001 6.5837C22.0162 5.88982 22.9874 5.5 24 5.5ZM15.4091 25.85C14.1433 25.85 12.9293 26.3373 12.0343 27.2046C11.1392 28.072 10.6364 29.2484 10.6364 30.475C10.6364 31.7016 11.1392 32.878 12.0343 33.7454C12.9293 34.6127 14.1433 35.1 15.4091 35.1C16.6749 35.1 17.8889 34.6127 18.7839 33.7454C19.679 32.878 20.1818 31.7016 20.1818 30.475C20.1818 29.2484 19.679 28.072 18.7839 27.2046C17.8889 26.3373 16.6749 25.85 15.4091 25.85ZM32.5909 25.85C31.3251 25.85 30.1111 26.3373 29.2161 27.2046C28.321 28.072 27.8182 29.2484 27.8182 30.475C27.8182 31.7016 28.321 32.878 29.2161 33.7454C30.1111 34.6127 31.3251 35.1 32.5909 35.1C33.8567 35.1 35.0707 34.6127 35.9657 33.7454C36.8608 32.878 37.3636 31.7016 37.3636 30.475C37.3636 29.2484 36.8608 28.072 35.9657 27.2046C35.0707 26.3373 33.8567 25.85 32.5909 25.85Z" fill="#6A7480"/>
</g>
<path d="M31.3552 27.3115C32.7301 25.9372 33.4176 25.25 34.2713 25.25C35.1259 25.25 35.8134 25.9372 37.1875 27.3115L37.8089 27.9324L38.652 27.0954C38.8375 26.9959 39.0454 26.9455 39.256 26.9488C39.4665 26.9521 39.6727 27.0091 39.855 27.1144C39.996 27.1959 40.1322 27.3313 40.4031 27.6028L40.4136 27.6133C40.6775 27.8771 40.8113 28.0108 40.8918 28.1498C40.9972 28.3322 41.0543 28.5384 41.0576 28.749C41.0609 28.9596 41.0104 29.1676 40.9108 29.3532L40.0736 30.1956L40.6882 30.8098C42.0624 32.1833 42.7498 32.8705 42.7498 33.7247C42.7498 34.5781 42.0624 35.2652 40.6874 36.6396C39.3125 38.0139 38.625 38.701 37.7712 38.701C36.9167 38.701 36.2292 38.0139 34.8551 36.6396L34.2605 36.0454L29.9042 40.4292C29.6333 40.7 29.4971 40.8361 29.3561 40.9177C29.168 41.0262 28.9547 41.0833 28.7376 41.0833C28.5204 41.0833 28.3071 41.0262 28.119 40.9177C27.9791 40.8372 27.8453 40.7035 27.5814 40.4396L27.5709 40.4292C27.2993 40.1585 27.1638 40.0223 27.0822 39.8814C26.9737 39.6934 26.9165 39.4802 26.9165 39.2631C26.9165 39.046 26.9737 38.8328 27.0822 38.6448C27.1638 38.5039 27.2993 38.3685 27.5709 38.097L31.9599 33.7394L31.3544 33.1412L31.3486 33.1355C29.9791 31.7658 29.2928 31.0794 29.2928 30.2264C29.2928 29.3729 29.9802 28.6858 31.3552 27.3115Z" fill="#F04747"/>
</g>
<defs>
<clipPath id="clip0_2053_11698">
<rect width="48" height="48" fill="white"/>
</clipPath>
</defs>
</svg>
