<svg width="48" height="48" viewBox="0 0 48 48" fill="none" xmlns="http://www.w3.org/2000/svg">
<g clip-path="url(#clip0_2053_11752)">
<mask id="mask0_2053_11752" style="mask-type:alpha" maskUnits="userSpaceOnUse" x="0" y="0" width="48" height="48">
<path d="M48 0H0V48H38.4284V45.5851C36.2957 46.4241 34.2324 45.6624 33.0023 44.1887C31.8063 44.1834 30.5842 43.7294 29.5732 42.7075L29.5689 42.7032L27.6974 40.8059H26.5926C23.834 40.8059 21.6667 38.5535 21.6667 35.87V32.1266C21.6667 29.4431 23.834 27.1907 26.5926 27.1907H27.701L29.5732 25.2984C30.5805 24.2803 31.7974 23.8259 32.9892 23.8173C34.2285 22.3356 36.3147 21.6011 38.4041 22.4021L38.4081 22.4037C43.0608 24.1932 46.3333 28.7166 46.3333 33.9983H48V0Z" fill="#F04747"/>
</mask>
<g mask="url(#mask0_2053_11752)">
<path d="M24 5.5C25.0126 5.5 25.9838 5.88982 26.6999 6.5837C27.4159 7.27759 27.8182 8.2187 27.8182 9.2C27.8182 10.569 27.0545 11.7715 25.9091 12.4005V14.75H27.8182C31.3624 14.75 34.7615 16.1144 37.2677 18.543C39.7739 20.9716 41.1818 24.2654 41.1818 27.7H43.0909C43.5972 27.7 44.0828 27.8949 44.4408 28.2419C44.7989 28.5888 45 29.0593 45 29.55V35.1C45 35.5907 44.7989 36.0612 44.4408 36.4081C44.0828 36.7551 43.5972 36.95 43.0909 36.95H41.1818V38.8C41.1818 39.7813 40.7795 40.7224 40.0635 41.4163C39.3475 42.1102 38.3763 42.5 37.3636 42.5H10.6364C9.62372 42.5 8.65255 42.1102 7.9365 41.4163C7.22045 40.7224 6.81818 39.7813 6.81818 38.8V36.95H4.90909C4.40277 36.95 3.91718 36.7551 3.55916 36.4081C3.20114 36.0612 3 35.5907 3 35.1V29.55C3 29.0593 3.20114 28.5888 3.55916 28.2419C3.91718 27.8949 4.40277 27.7 4.90909 27.7H6.81818C6.81818 24.2654 8.22613 20.9716 10.7323 18.543C13.2385 16.1144 16.6376 14.75 20.1818 14.75H22.0909V12.4005C20.9455 11.7715 20.1818 10.569 20.1818 9.2C20.1818 8.2187 20.5841 7.27759 21.3001 6.5837C22.0162 5.88982 22.9874 5.5 24 5.5ZM15.4091 25.85C14.1433 25.85 12.9293 26.3373 12.0343 27.2046C11.1392 28.072 10.6364 29.2484 10.6364 30.475C10.6364 31.7016 11.1392 32.878 12.0343 33.7454C12.9293 34.6127 14.1433 35.1 15.4091 35.1C16.6749 35.1 17.8889 34.6127 18.7839 33.7454C19.679 32.878 20.1818 31.7016 20.1818 30.475C20.1818 29.2484 19.679 28.072 18.7839 27.2046C17.8889 26.3373 16.6749 25.85 15.4091 25.85ZM32.5909 25.85C31.3251 25.85 30.1111 26.3373 29.2161 27.2046C28.321 28.072 27.8182 29.2484 27.8182 30.475C27.8182 31.7016 28.321 32.878 29.2161 33.7454C30.1111 34.6127 31.3251 35.1 32.5909 35.1C33.8567 35.1 35.0707 34.6127 35.9657 33.7454C36.8608 32.878 37.3636 31.7016 37.3636 30.475C37.3636 29.2484 36.8608 28.072 35.9657 27.2046C35.0707 26.3373 33.8567 25.85 32.5909 25.85Z" fill="#6A7480"/>
</g>
<path d="M25.6665 35.87V32.1265C25.6665 31.6118 26.0832 31.1907 26.5924 31.1907H29.3702L32.4165 28.1117C32.9998 27.5221 33.9998 27.9432 33.9998 28.7761V39.2297C33.9998 40.0627 32.9998 40.4838 32.4165 39.8942L29.3702 36.8059H26.5924C26.0832 36.8059 25.6665 36.3847 25.6665 35.87ZM38.1665 33.9983C38.1663 34.7824 37.9495 35.5509 37.5405 36.2173C37.357 36.5163 37.138 36.7895 36.8895 37.0313C36.4676 37.4418 35.8517 37.0758 35.8517 36.4849V31.5176C35.8517 30.9276 36.4661 30.5615 36.8886 30.9702C37.6758 31.7318 38.1665 32.8043 38.1665 33.9983ZM35.8517 41.064V40.8769C35.8517 40.5212 36.0832 40.2124 36.4072 40.0814C38.7961 39.1174 40.4813 36.7497 40.4813 33.9983C40.4813 31.2468 38.7961 28.8791 36.4072 27.9151C36.0739 27.7841 35.8517 27.4753 35.8517 27.1197V26.9325C35.8517 26.3429 36.435 25.9311 36.9721 26.137C40.1109 27.3443 42.3332 30.4045 42.3332 33.9983C42.3332 37.592 40.1109 40.6523 36.9721 41.8595C36.435 42.0748 35.8517 41.6536 35.8517 41.064Z" fill="#F04747"/>
</g>
<defs>
<clipPath id="clip0_2053_11752">
<rect width="48" height="48" fill="white"/>
</clipPath>
</defs>
</svg>
