<svg width="48" height="48" viewBox="0 0 48 48" fill="none" xmlns="http://www.w3.org/2000/svg">
<g clip-path="url(#clip0_2053_11632)">
<mask id="mask0_2053_11632" style="mask-type:alpha" maskUnits="userSpaceOnUse" x="0" y="0" width="48" height="48">
<path d="M48 0H0V48H33.999V46.3333C32.496 46.3333 31.0938 45.6378 30.1776 44.5119C28.596 45.4999 26.0568 45.843 24.1161 43.8985C22.2282 42.0069 22.2503 38.9379 24.1152 37.0683L24.2663 36.9168C24.0724 36.3726 23.924 35.8066 23.8261 35.2234L23.8217 35.1971L23.8176 35.1707C23.4124 32.5417 25.1132 30.4085 27.2951 29.7626V28.2982C27.2951 24.5314 30.3967 21.6667 33.999 21.6667C35.6121 21.6667 37.1192 22.2363 38.2945 23.2046C40.1064 22.2989 42.3708 22.6012 43.8807 24.1115C45.773 26.0037 45.7507 29.0777 43.8814 30.9477L43.2879 31.5423C44.0299 32.515 44.417 33.7891 44.1701 35.2345L44.1697 35.2366C43.8033 37.3841 42.7465 39.3449 41.1737 40.8419C40.4569 41.5242 39.6498 42.0944 38.7805 42.5411H48V0Z" fill="#FF0000"/>
</mask>
<g mask="url(#mask0_2053_11632)">
<path d="M24 5.5C25.0126 5.5 25.9838 5.88982 26.6999 6.5837C27.4159 7.27759 27.8182 8.2187 27.8182 9.2C27.8182 10.569 27.0545 11.7715 25.9091 12.4005V14.75H27.8182C31.3624 14.75 34.7615 16.1144 37.2677 18.543C39.7739 20.9716 41.1818 24.2654 41.1818 27.7H43.0909C43.5972 27.7 44.0828 27.8949 44.4408 28.2419C44.7989 28.5888 45 29.0593 45 29.55V35.1C45 35.5907 44.7989 36.0612 44.4408 36.4081C44.0828 36.7551 43.5972 36.95 43.0909 36.95H41.1818V38.8C41.1818 39.7813 40.7795 40.7224 40.0635 41.4163C39.3475 42.1102 38.3763 42.5 37.3636 42.5H10.6364C9.62372 42.5 8.65255 42.1102 7.9365 41.4163C7.22045 40.7224 6.81818 39.7813 6.81818 38.8V36.95H4.90909C4.40277 36.95 3.91718 36.7551 3.55916 36.4081C3.20114 36.0612 3 35.5907 3 35.1V29.55C3 29.0593 3.20114 28.5888 3.55916 28.2419C3.91718 27.8949 4.40277 27.7 4.90909 27.7H6.81818C6.81818 24.2654 8.22613 20.9716 10.7323 18.543C13.2385 16.1144 16.6376 14.75 20.1818 14.75H22.0909V12.4005C20.9455 11.7715 20.1818 10.569 20.1818 9.2C20.1818 8.2187 20.5841 7.27759 21.3001 6.5837C22.0162 5.88982 22.9874 5.5 24 5.5ZM15.4091 25.85C14.1433 25.85 12.9293 26.3373 12.0343 27.2046C11.1392 28.072 10.6364 29.2484 10.6364 30.475C10.6364 31.7016 11.1392 32.878 12.0343 33.7454C12.9293 34.6127 14.1433 35.1 15.4091 35.1C16.6749 35.1 17.8889 34.6127 18.7839 33.7454C19.679 32.878 20.1818 31.7016 20.1818 30.475C20.1818 29.2484 19.679 28.072 18.7839 27.2046C17.8889 26.3373 16.6749 25.85 15.4091 25.85ZM32.5909 25.85C31.3251 25.85 30.1111 26.3373 29.2161 27.2046C28.321 28.072 27.8182 29.2484 27.8182 30.475C27.8182 31.7016 28.321 32.878 29.2161 33.7454C30.1111 34.6127 31.3251 35.1 32.5909 35.1C33.8567 35.1 35.0707 34.6127 35.9657 33.7454C36.8608 32.878 37.3636 31.7016 37.3636 30.475C37.3636 29.2484 36.8608 28.072 35.9657 27.2046C35.0707 26.3373 33.8567 25.85 32.5909 25.85Z" fill="#6A7480"/>
</g>
<path d="M31.2953 28.2983C31.2953 26.8422 32.503 25.6667 33.9992 25.6667C35.3258 25.6667 36.4256 26.5908 36.6579 27.8153L31.2953 33.1897V28.2983Z" fill="#F04747"/>
<path d="M29.2555 33.7756C29.4175 33.9123 29.5239 34.1008 29.5557 34.3071C29.5864 34.4785 29.6274 34.6465 29.6779 34.8106L28.2961 36.1954C28.0468 35.6858 27.8678 35.1373 27.7711 34.5615C27.69 34.0352 28.1226 33.5615 28.6724 33.5615C28.8868 33.5629 29.0936 33.6389 29.2555 33.7756Z" fill="#F04747"/>
<path d="M33.9992 36.1931C35.4954 36.1931 36.7031 35.0176 36.7031 33.5615V32.4779L41.0525 28.12C41.37 27.8025 41.3732 27.2608 41.0525 26.9401C40.7268 26.6138 40.1923 26.6138 39.8667 26.9401L26.9475 39.8932C26.6304 40.2109 26.6273 40.7522 26.9475 41.073C27.2777 41.4039 27.7764 41.3594 28.125 41.073L30.5156 38.6777C31.2767 39.1673 32.1537 39.5008 33.0979 39.6317V41.4562C33.0979 41.9387 33.5035 42.3334 33.9992 42.3334C34.4949 42.3334 34.9005 41.9387 34.9005 41.4562V39.6317C36.2268 39.4473 37.4583 38.8563 38.4161 37.9446C39.3739 37.0329 40.0084 35.8479 40.2273 34.5615C40.3174 34.0352 39.8758 33.5615 39.326 33.5615C38.8843 33.5615 38.5148 33.8773 38.4427 34.3071C38.0731 36.3685 36.2255 37.9475 33.9992 37.9475C33.3692 37.9475 32.5011 37.6038 31.8782 37.3124L33.1325 36.0556C33.4044 36.1448 33.6959 36.1931 33.9992 36.1931Z" fill="#F04747"/>
</g>
<defs>
<clipPath id="clip0_2053_11632">
<rect width="48" height="48" fill="white"/>
</clipPath>
</defs>
</svg>
