<svg width="48" height="48" viewBox="0 0 48 48" fill="none" xmlns="http://www.w3.org/2000/svg">
<g clip-path="url(#clip0_2053_11776)">
<mask id="mask0_2053_11776" style="mask-type:alpha" maskUnits="userSpaceOnUse" x="0" y="0" width="48" height="48">
<path d="M48 0H0V48H36.4408V44.6666H31.5585C30.1142 44.6666 28.8351 44.0096 27.9885 42.9857C25.8772 43.6664 23.3352 42.8777 22.1888 40.5601C21.333 38.83 20.833 36.8633 20.833 34.7812C20.833 27.5168 26.7577 21.6666 33.9997 21.6666C41.2417 21.6666 47.1663 27.5169 47.1663 34.7812H48V0Z" fill="#F04747"/>
</mask>
<g mask="url(#mask0_2053_11776)">
<path d="M24 5.5C25.0126 5.5 25.9838 5.88982 26.6999 6.5837C27.4159 7.27759 27.8182 8.2187 27.8182 9.2C27.8182 10.569 27.0545 11.7715 25.9091 12.4005V14.75H27.8182C31.3624 14.75 34.7615 16.1144 37.2677 18.543C39.7739 20.9716 41.1818 24.2654 41.1818 27.7H43.0909C43.5972 27.7 44.0828 27.8949 44.4408 28.2419C44.7989 28.5888 45 29.0593 45 29.55V35.1C45 35.5907 44.7989 36.0612 44.4408 36.4081C44.0828 36.7551 43.5972 36.95 43.0909 36.95H41.1818V38.8C41.1818 39.7813 40.7795 40.7224 40.0635 41.4163C39.3475 42.1102 38.3763 42.5 37.3636 42.5H10.6364C9.62372 42.5 8.65255 42.1102 7.9365 41.4163C7.22045 40.7224 6.81818 39.7813 6.81818 38.8V36.95H4.90909C4.40277 36.95 3.91718 36.7551 3.55916 36.4081C3.20114 36.0612 3 35.5907 3 35.1V29.55C3 29.0593 3.20114 28.5888 3.55916 28.2419C3.91718 27.8949 4.40277 27.7 4.90909 27.7H6.81818C6.81818 24.2654 8.22613 20.9716 10.7323 18.543C13.2385 16.1144 16.6376 14.75 20.1818 14.75H22.0909V12.4005C20.9455 11.7715 20.1818 10.569 20.1818 9.2C20.1818 8.2187 20.5841 7.27759 21.3001 6.5837C22.0162 5.88982 22.9874 5.5 24 5.5ZM15.4091 25.85C14.1433 25.85 12.9293 26.3373 12.0343 27.2046C11.1392 28.072 10.6364 29.2484 10.6364 30.475C10.6364 31.7016 11.1392 32.878 12.0343 33.7454C12.9293 34.6127 14.1433 35.1 15.4091 35.1C16.6749 35.1 17.8889 34.6127 18.7839 33.7454C19.679 32.878 20.1818 31.7016 20.1818 30.475C20.1818 29.2484 19.679 28.072 18.7839 27.2046C17.8889 26.3373 16.6749 25.85 15.4091 25.85ZM32.5909 25.85C31.3251 25.85 30.1111 26.3373 29.2161 27.2046C28.321 28.072 27.8182 29.2484 27.8182 30.475C27.8182 31.7016 28.321 32.878 29.2161 33.7454C30.1111 34.6127 31.3251 35.1 32.5909 35.1C33.8567 35.1 35.0707 34.6127 35.9657 33.7454C36.8608 32.878 37.3636 31.7016 37.3636 30.475C37.3636 29.2484 36.8608 28.072 35.9657 27.2046C35.0707 26.3373 33.8567 25.85 32.5909 25.85Z" fill="#6A7480"/>
</g>
<path d="M35.8575 34.7812C35.8575 35.8012 35.0197 36.6301 34.0002 36.6301C32.9807 36.6301 32.1428 35.8012 32.1428 34.7812C32.1428 33.7612 32.9807 32.9323 34.0002 32.9323C35.0197 32.9323 35.8575 33.7612 35.8575 34.7812Z" fill="#F04747"/>
<path d="M30.9246 40.0286C30.9246 38.4949 32.2326 37.3723 34.0002 37.3723C35.7678 37.3723 37.0757 38.4949 37.0757 40.0286C37.0757 40.381 36.7917 40.6666 36.4413 40.6666H31.559C31.2086 40.6666 30.9246 40.381 30.9246 40.0286Z" fill="#F04747"/>
<path d="M34.0002 30.9791C31.8848 30.9791 30.1725 32.6851 30.1725 34.7812C30.1725 35.2633 30.2694 35.7201 30.4408 36.1446C30.6049 36.5512 30.4928 37.0656 30.0776 37.305C29.6827 37.5327 29.1451 37.4111 28.9457 36.9581C28.6513 36.2889 28.4882 35.5527 28.4882 34.7812C28.4882 31.7591 30.9665 29.2994 34.0002 29.2994C37.0338 29.2994 39.5122 31.7591 39.5122 34.7812C39.5122 35.5581 39.3445 36.2893 39.0534 36.9542C38.8549 37.4075 38.3169 37.5324 37.9207 37.3039C37.5067 37.0651 37.3948 36.5521 37.5587 36.1467C37.7306 35.7216 37.8278 35.2641 37.8278 34.7812C37.8278 32.6851 36.1156 30.9791 34.0002 30.9791Z" fill="#F04747"/>
<path d="M34.0002 27.3463C29.8625 27.3463 26.5178 30.675 26.5178 34.7812C26.5178 35.9227 26.7809 37.0029 27.2413 37.9661C27.4344 38.37 27.3115 38.8808 26.9051 39.1157C26.5099 39.3441 25.987 39.216 25.7747 38.7866C25.1782 37.5808 24.8335 36.2186 24.8335 34.7812C24.8335 29.7489 28.9443 25.6666 34.0002 25.6666C39.056 25.6666 43.1668 29.7489 43.1668 34.7812C43.1668 36.2205 42.8212 37.5846 42.2179 38.797C42.0049 39.2251 41.4829 39.3524 41.0883 39.1244C40.6812 38.8891 40.5587 38.3772 40.7531 37.9732C41.219 37.0047 41.4825 35.9236 41.4825 34.7812C41.4825 30.675 38.1378 27.3463 34.0002 27.3463Z" fill="#F04747"/>
</g>
<defs>
<clipPath id="clip0_2053_11776">
<rect width="48" height="48" fill="white"/>
</clipPath>
</defs>
</svg>
