<svg width="48" height="48" viewBox="0 0 48 48" fill="none" xmlns="http://www.w3.org/2000/svg">
<g clip-path="url(#clip0_2053_11662)">
<mask id="mask0_2053_11662" style="mask-type:alpha" maskUnits="userSpaceOnUse" x="0" y="0" width="48" height="48">
<path d="M48 0H0V48H39V44.6667H38.1667C36.5202 44.6667 35.036 43.9617 34 42.8376C32.964 43.9617 31.4798 44.6667 29.8333 44.6667H29C25.4074 44.6667 22.5 41.759 22.5 38.1666V32.5915C22.5 26.6749 26.9748 21.2644 33.241 20.858C39.9277 20.4241 45.5 25.7275 45.5 32.3331V38.1666H48V0Z" fill="url(#paint0_linear_2053_11662)"/>
</mask>
<g mask="url(#mask0_2053_11662)">
<path d="M24 5.5C25.0126 5.5 25.9838 5.88982 26.6999 6.5837C27.4159 7.27759 27.8182 8.2187 27.8182 9.2C27.8182 10.569 27.0545 11.7715 25.9091 12.4005V14.75H27.8182C31.3624 14.75 34.7615 16.1144 37.2677 18.543C39.7739 20.9716 41.1818 24.2654 41.1818 27.7H43.0909C43.5972 27.7 44.0828 27.8949 44.4408 28.2419C44.7989 28.5888 45 29.0593 45 29.55V35.1C45 35.5907 44.7989 36.0612 44.4408 36.4081C44.0828 36.7551 43.5972 36.95 43.0909 36.95H41.1818V38.8C41.1818 39.7813 40.7795 40.7224 40.0635 41.4163C39.3475 42.1102 38.3763 42.5 37.3636 42.5H10.6364C9.62372 42.5 8.65255 42.1102 7.9365 41.4163C7.22045 40.7224 6.81818 39.7813 6.81818 38.8V36.95H4.90909C4.40277 36.95 3.91718 36.7551 3.55916 36.4081C3.20114 36.0612 3 35.5907 3 35.1V29.55C3 29.0593 3.20114 28.5888 3.55916 28.2419C3.91718 27.8949 4.40277 27.7 4.90909 27.7H6.81818C6.81818 24.2654 8.22613 20.9716 10.7323 18.543C13.2385 16.1144 16.6376 14.75 20.1818 14.75H22.0909V12.4005C20.9455 11.7715 20.1818 10.569 20.1818 9.2C20.1818 8.2187 20.5841 7.27759 21.3001 6.5837C22.0162 5.88982 22.9874 5.5 24 5.5ZM15.4091 25.85C14.1433 25.85 12.9293 26.3373 12.0343 27.2046C11.1392 28.072 10.6364 29.2484 10.6364 30.475C10.6364 31.7016 11.1392 32.878 12.0343 33.7454C12.9293 34.6127 14.1433 35.1 15.4091 35.1C16.6749 35.1 17.8889 34.6127 18.7839 33.7454C19.679 32.878 20.1818 31.7016 20.1818 30.475C20.1818 29.2484 19.679 28.072 18.7839 27.2046C17.8889 26.3373 16.6749 25.85 15.4091 25.85ZM32.5909 25.85C31.3251 25.85 30.1111 26.3373 29.2161 27.2046C28.321 28.072 27.8182 29.2484 27.8182 30.475C27.8182 31.7016 28.321 32.878 29.2161 33.7454C30.1111 34.6127 31.3251 35.1 32.5909 35.1C33.8567 35.1 35.0707 34.6127 35.9657 33.7454C36.8608 32.878 37.3636 31.7016 37.3636 30.475C37.3636 29.2484 36.8608 28.072 35.9657 27.2046C35.0707 26.3373 33.8567 25.85 32.5909 25.85Z" fill="#6A7480"/>
</g>
<path d="M26.5 32.5914C26.5 28.5996 29.5167 25.1078 33.5 24.8495C35.2869 24.7336 36.951 25.2442 38.2936 26.1833L37.0932 27.3842C36.7829 27.1901 36.4542 27.0252 36.1112 26.8921C35.3831 26.6095 34.6057 26.476 33.825 26.4995C30.6333 26.5912 28.1667 29.3746 28.1667 32.5747V33.9997H29.8333C30.0267 33.9997 30.2126 34.0331 30.3857 34.0944L26.5 37.9816V32.5914Z" fill="#F04747"/>
<path d="M29.8333 40.6666H29C28.8381 40.6666 28.6799 40.6513 28.5266 40.6221C28.2238 40.5646 27.9512 40.459 27.6976 40.3023C27.464 40.1579 27.2439 39.9686 27.07 39.7577L39.877 26.94C40.2033 26.6136 40.7387 26.6136 41.065 26.94C41.3862 27.2606 41.3831 27.8023 41.065 28.1198L40.5348 28.6501C41.1493 29.7379 41.5 30.9944 41.5 32.333V38.1665C41.5 39.5499 40.3833 40.6666 39 40.6666H38.1667C37.25 40.6666 36.5 39.9166 36.5 38.9999V35.6665C36.5 34.7498 37.25 33.9997 38.1667 33.9997H39.8333V32.333C39.8338 31.552 39.3734 30.0593 39.3734 30.0593C39.3734 30.0593 39.3237 29.9444 39.2976 29.8876L31.5 37.6866V38.9999C31.5 39.9166 30.75 40.6666 29.8333 40.6666Z" fill="#F04747"/>
</g>
<defs>
<linearGradient id="paint0_linear_2053_11662" x1="0" y1="0" x2="48" y2="48" gradientUnits="userSpaceOnUse">
<stop stop-color="#00AAFF"/>
<stop offset="0.491669" stop-color="#007FFF"/>
<stop offset="1" stop-color="#0055FF"/>
<stop offset="1" stop-color="#0055FF"/>
</linearGradient>
<clipPath id="clip0_2053_11662">
<rect width="48" height="48" fill="white"/>
</clipPath>
</defs>
</svg>
