<svg width="48" height="48" viewBox="0 0 48 48" fill="none" xmlns="http://www.w3.org/2000/svg">
<path d="M34.7143 21.4V13C34.7143 7.2103 29.9057 2.5 24 2.5C18.09 2.5 13.2857 7.2103 13.2857 13V21.4C10.9221 21.4 9 23.2816 9 25.6V40.3C9 42.6163 10.9221 44.5 13.2857 44.5H34.7143C37.0779 44.5 39 42.6163 39 40.3V25.6C39 23.2816 37.0779 21.4 34.7143 21.4ZM24 36.1C22.2257 36.1 20.7857 34.6888 20.7857 32.95C20.7857 31.2112 22.2257 29.8 24 29.8C25.7743 29.8 27.2143 31.2112 27.2143 32.95C27.2143 34.6888 25.7743 36.1 24 36.1ZM30.4286 21.4H17.5714V13C17.5714 9.5266 20.4557 6.7 24 6.7C27.5443 6.7 30.4286 9.5266 30.4286 13V21.4Z" fill="#FAA61A"/>
</svg>
