<svg width="48" height="48" viewBox="0 0 48 48" fill="none" xmlns="http://www.w3.org/2000/svg">
<path d="M20.879 26L24.05 29.1684C24.834 29.9517 24.8325 31.2228 24.0468 32.0043C23.2645 32.7824 22 32.7809 21.2196 32.001L13.1954 23.982L21.2196 15.9936C22.0022 15.2145 23.2676 15.2158 24.0486 15.9964C24.8323 16.7798 24.831 18.0508 24.0455 18.8325L20.863 22H44C42.9914 11.91 34.4316 4 24.0511 4C12.9949 4 4 12.974 4 24C4 35.026 12.9949 44 24.0511 44C34.4316 44 42.9914 36.092 44 26H20.879Z" fill="#F04747"/>
</svg>
