<svg width="48" height="48" viewBox="0 0 48 48" fill="none" xmlns="http://www.w3.org/2000/svg">
<path fill-rule="evenodd" clip-rule="evenodd" d="M42.0234 11.8067L24.9234 2.24105C24.3477 1.91965 23.6523 1.91965 23.0766 2.24105L5.9766 11.8067C5.3743 12.1434 5 12.7824 5 13.4768C5 14.8046 5.2166 46 24 46C42.7834 46 43 14.8046 43 13.4768C43 12.7824 42.6257 12.1434 42.0234 11.8067ZM24 13.4768C26.6239 13.4768 28.75 15.6176 28.75 18.2597C28.75 20.9017 26.6239 23.0425 24 23.0425C21.3761 23.0425 19.25 20.9017 19.25 18.2597C19.25 15.6176 21.3761 13.4768 24 13.4768ZM17.875 32.61C17.3227 32.61 16.8686 32.16 16.9247 31.6106C17.3142 27.7925 19.969 25.4358 24 25.4358C28.031 25.4358 30.6858 27.7925 31.0753 31.6106C31.1314 32.16 30.6773 32.61 30.125 32.61H17.875Z" fill="#6A7480"/>
</svg>
