<svg width="48" height="48" viewBox="0 0 48 48" fill="none" xmlns="http://www.w3.org/2000/svg">
<g clip-path="url(#clip0_2050_11447)">
<mask id="mask0_2050_11447" style="mask-type:alpha" maskUnits="userSpaceOnUse" x="0" y="0" width="48" height="48">
<path d="M48 0H0V48H24.0993V43.6923C22.9203 42.5131 22.4455 40.8007 22.85 39.1822L23.501 36.5779C23.8738 35.0866 24.6223 33.7156 25.6752 32.5956L32.084 25.7789L33.7272 24.1378L33.7284 24.1367L33.7293 24.1358C36.4684 21.3985 40.9161 21.3992 43.6544 24.1378L43.6554 24.1388C45.7777 26.2629 46.255 29.4144 45.085 32H48V0Z" fill="#FAA61A"/>
</mask>
<g mask="url(#mask0_2050_11447)">
<path fill-rule="evenodd" clip-rule="evenodd" d="M42.0234 11.8067L24.9234 2.24105C24.3477 1.91965 23.6523 1.91965 23.0766 2.24105L5.9766 11.8067C5.3743 12.1434 5 12.7824 5 13.4768C5 14.8046 5.2166 46 24 46C42.7834 46 43 14.8046 43 13.4768C43 12.7824 42.6257 12.1434 42.0234 11.8067ZM24 13.4768C26.6239 13.4768 28.75 15.6176 28.75 18.2597C28.75 20.9017 26.6239 23.0425 24 23.0425C21.3761 23.0425 19.25 20.9017 19.25 18.2597C19.25 15.6176 21.3761 13.4768 24 13.4768ZM17.875 32.61C17.3227 32.61 16.8686 32.16 16.9247 31.6106C17.3142 27.7925 19.969 25.4358 24 25.4358C28.031 25.4358 30.6858 27.7925 31.0753 31.6106C31.1314 32.16 30.6773 32.61 30.125 32.61H17.875Z" fill="#6A7480"/>
</g>
<path fill-rule="evenodd" clip-rule="evenodd" d="M40.2854 31.7759L40.8254 31.2366C42.0022 30.0596 42.0022 28.1437 40.8254 26.966C39.6486 25.789 37.7324 25.789 36.5555 26.966L36.0163 27.5061L40.2854 31.7759ZM34.9549 28.5646L28.5286 34.9937L32.7984 39.2631L39.2248 32.8339L34.9549 28.5646ZM27.6401 41.0612L31.5072 40.0951L27.6971 36.2843L26.7303 40.1521C26.6666 40.4071 26.7416 40.6779 26.9276 40.864C27.1136 41.05 27.3843 41.1243 27.6401 41.0612Z" fill="#FAA61A"/>
</g>
<defs>
<clipPath id="clip0_2050_11447">
<rect width="48" height="48" fill="white"/>
</clipPath>
</defs>
</svg>
