<svg width="48" height="48" viewBox="0 0 48 48" fill="none" xmlns="http://www.w3.org/2000/svg">
<g clip-path="url(#clip0_2050_11443)">
<mask id="mask0_2050_11443" style="mask-type:alpha" maskUnits="userSpaceOnUse" x="0" y="0" width="48" height="48">
<path d="M48 0H0V48H29.6019V46.3333C26.4314 46.3333 23.8426 43.7637 23.8426 40.5789V32.0497C22.7652 31.1521 22.0833 29.7995 22.0833 28.2975C22.0833 25.6219 24.2471 23.4203 26.9564 23.4203H28.4288C29.2975 22.3527 30.6212 21.6667 32.1151 21.6667H35.8849C37.3788 21.6667 38.7025 22.3527 39.5712 23.4203H41.0436C43.7529 23.4203 45.9167 25.6219 45.9167 28.2975H48V0Z" fill="#F04747"/>
</mask>
<g mask="url(#mask0_2050_11443)">
<path fill-rule="evenodd" clip-rule="evenodd" d="M42.0234 11.8067L24.9234 2.24105C24.3477 1.91965 23.6523 1.91965 23.0766 2.24105L5.9766 11.8067C5.3743 12.1434 5 12.7824 5 13.4768C5 14.8046 5.2166 46 24 46C42.7834 46 43 14.8046 43 13.4768C43 12.7824 42.6257 12.1434 42.0234 11.8067ZM24 13.4768C26.6239 13.4768 28.75 15.6176 28.75 18.2597C28.75 20.9017 26.6239 23.0425 24 23.0425C21.3761 23.0425 19.25 20.9017 19.25 18.2597C19.25 15.6176 21.3761 13.4768 24 13.4768ZM17.875 32.61C17.3227 32.61 16.8686 32.16 16.9247 31.6106C17.3142 27.7925 19.969 25.4358 24 25.4358C28.031 25.4358 30.6858 27.7925 31.0753 31.6106C31.1314 32.16 30.6773 32.61 30.125 32.61H17.875Z" fill="#6A7480"/>
</g>
<path d="M36.6386 27.4203V26.4243C36.6386 26.0059 36.301 25.6667 35.8846 25.6667H32.1148C31.6983 25.6667 31.3608 26.0059 31.3608 26.4243V27.4203H26.9561C26.4739 27.4203 26.083 27.8131 26.083 28.2976C26.083 28.7821 26.4739 29.1748 26.9561 29.1748H41.0433C41.5255 29.1748 41.9163 28.7821 41.9163 28.2976C41.9163 27.8131 41.5255 27.4203 41.0433 27.4203H36.6386Z" fill="#F04747"/>
<path d="M27.8423 30.0521V40.5789C27.8423 41.5457 28.6313 42.3334 29.6015 42.3334H38.3978C39.3681 42.3334 40.1571 41.5457 40.1571 40.5789V30.0521H27.8423ZM33.12 37.9415C33.12 38.4296 32.7262 38.8253 32.2404 38.8253C31.7546 38.8253 31.3608 38.4296 31.3608 37.9415V34.4457C31.3608 33.9576 31.7546 33.5619 32.2404 33.5619C32.7262 33.5619 33.12 33.9576 33.12 34.4457V37.9415ZM36.6386 37.9415C36.6386 38.4296 36.2447 38.8253 35.7589 38.8253C35.2731 38.8253 34.8793 38.4296 34.8793 37.9415V34.4457C34.8793 33.9576 35.2731 33.5619 35.7589 33.5619C36.2447 33.5619 36.6386 33.9576 36.6386 34.4457V37.9415Z" fill="#F04747"/>
</g>
<defs>
<clipPath id="clip0_2050_11443">
<rect width="48" height="48" fill="white"/>
</clipPath>
</defs>
</svg>
