<svg width="48" height="48" viewBox="0 0 48 48" fill="none" xmlns="http://www.w3.org/2000/svg">
<g clip-path="url(#clip0_2050_11439)">
<mask id="mask0_2050_11439" style="mask-type:alpha" maskUnits="userSpaceOnUse" x="0" y="0" width="48" height="48">
<path d="M48 0H0V48H34V46.3333C27.1959 46.3333 21.6667 40.8041 21.6667 34C21.6667 27.1959 27.1959 21.6667 34 21.6667C40.8041 21.6667 46.3333 27.1959 46.3333 34H48V0Z" fill="#FF0000"/>
</mask>
<g mask="url(#mask0_2050_11439)">
<path fill-rule="evenodd" clip-rule="evenodd" d="M42.0234 11.8067L24.9234 2.24105C24.3477 1.91965 23.6523 1.91965 23.0766 2.24105L5.9766 11.8067C5.3743 12.1434 5 12.7824 5 13.4768C5 14.8046 5.2166 46 24 46C42.7834 46 43 14.8046 43 13.4768C43 12.7824 42.6257 12.1434 42.0234 11.8067ZM24 13.4768C26.6239 13.4768 28.75 15.6176 28.75 18.2597C28.75 20.9017 26.6239 23.0425 24 23.0425C21.3761 23.0425 19.25 20.9017 19.25 18.2597C19.25 15.6176 21.3761 13.4768 24 13.4768ZM17.875 32.61C17.3227 32.61 16.8686 32.16 16.9247 31.6106C17.3142 27.7925 19.969 25.4358 24 25.4358C28.031 25.4358 30.6858 27.7925 31.0753 31.6106C31.1314 32.16 30.6773 32.61 30.125 32.61H17.875Z" fill="#6A7480"/>
</g>
<path d="M34.0003 25.6667C29.4053 25.6667 25.667 29.4051 25.667 34.0001C25.667 38.5951 29.4053 42.3334 34.0003 42.3334C38.5953 42.3334 42.3337 38.5951 42.3337 34.0001C42.3337 29.4051 38.5953 25.6667 34.0003 25.6667ZM38.167 34.0001C38.167 34.4603 37.7939 34.8334 37.3337 34.8334H34.8337V37.3334C34.8337 37.7937 34.4606 38.1668 34.0003 38.1668C33.5401 38.1668 33.167 37.7937 33.167 37.3334V34.8334H30.667C30.2068 34.8334 29.8337 34.4603 29.8337 34.0001C29.8337 33.5399 30.2068 33.1668 30.667 33.1668H33.167V30.6667C33.167 30.2065 33.5401 29.8334 34.0003 29.8334C34.4606 29.8334 34.8337 30.2065 34.8337 30.6667V33.1668H37.3337C37.7939 33.1668 38.167 33.5399 38.167 34.0001Z" fill="#43B581"/>
</g>
<defs>
<clipPath id="clip0_2050_11439">
<rect width="48" height="48" fill="white"/>
</clipPath>
</defs>
</svg>
