<svg width="48" height="48" viewBox="0 0 48 48" fill="none" xmlns="http://www.w3.org/2000/svg">
<g clip-path="url(#clip0_2015_11675)">
<mask id="mask0_2015_11675" style="mask-type:alpha" maskUnits="userSpaceOnUse" x="0" y="0" width="48" height="48">
<path d="M48 0H0V48H29.6019V46.3333C26.4314 46.3333 23.8426 43.7637 23.8426 40.5789V32.0497C22.7652 31.1521 22.0833 29.7995 22.0833 28.2975C22.0833 25.6219 24.2471 23.4203 26.9564 23.4203H28.4288C29.2975 22.3527 30.6212 21.6667 32.1151 21.6667H35.8849C37.3788 21.6667 38.7025 22.3527 39.5712 23.4203H41.0436C43.7529 23.4203 45.9167 25.6219 45.9167 28.2975H48V0Z" fill="#F04747"/>
</mask>
<g mask="url(#mask0_2015_11675)">
<path d="M22.0909 19.2V15.2469C19.8665 14.4607 18.2727 12.3392 18.2727 9.8455C18.2727 6.68243 20.8368 4.11823 24 4.11823C26.5067 4.11823 28.6371 5.72848 29.4135 7.97097C29.7584 8.96731 30.582 9.8455 31.6364 9.8455C32.6907 9.8455 33.5654 8.98216 33.357 7.9486C32.4773 3.58553 28.6223 0.300049 24 0.300049C18.7282 0.300049 14.4545 4.5737 14.4545 9.8455C14.4545 13.2723 16.2603 16.2773 18.9722 17.961L13.1085 28.9776C12.9247 28.9505 12.7367 28.9364 12.5455 28.9364C10.4367 28.9364 8.72727 30.6458 8.72727 32.7546C8.72727 34.8634 10.4367 36.5728 12.5455 36.5728C14.1111 36.5728 15.4567 35.6305 16.0459 34.2819H31.954C32.5432 35.6305 33.8889 36.5728 35.4545 36.5728C37.5633 36.5728 39.2727 34.8634 39.2727 32.7546C39.2727 30.6458 37.5633 28.9364 35.4545 28.9364C33.8889 28.9364 32.5432 29.8787 31.954 31.2273H16.0459C16.0361 31.2048 16.0261 31.1825 16.0158 31.1601L22.0909 19.2Z" fill="#6A7480"/>
<path d="M24 13.6637C21.8912 13.6637 20.1818 11.9542 20.1818 9.8455C20.1818 7.73678 21.8912 6.02732 24 6.02732C26.1088 6.02732 27.8182 7.73678 27.8182 9.8455C27.8182 10.6765 27.5526 11.4455 27.1019 12.0723L35.4545 23.2091C40.7263 23.2091 45 27.4828 45 32.7546C45 38.0264 40.7263 42.3 35.4545 42.3C32.7819 42.3 30.3658 41.2016 28.633 39.4316C27.4885 38.2625 28.5352 36.5728 30.1712 36.5728C30.8167 36.5728 31.4169 36.8673 31.925 37.2654C32.8977 38.0276 34.1231 38.4819 35.4545 38.4819C38.6175 38.4819 41.1818 35.9178 41.1818 32.7546C41.1818 29.5914 38.6175 27.0273 35.4545 27.0273H33.5455L24 13.6637Z" fill="#6A7480"/>
<path d="M17.8288 36.5728C19.4648 36.5728 20.5115 38.2625 19.367 39.4316C17.6343 41.2016 15.2181 42.3 12.5455 42.3C7.27365 42.3 3 38.0264 3 32.7546C3 28.1323 6.28548 24.2773 10.6486 23.3976C11.6821 23.1892 12.5455 24.0639 12.5455 25.1182C12.5455 26.1726 11.6673 26.9962 10.6709 27.3411C8.42844 28.1175 6.81818 30.2479 6.81818 32.7546C6.81818 35.9178 9.38238 38.4819 12.5455 38.4819C13.8769 38.4819 15.1023 38.0276 16.075 37.2654C16.5831 36.8673 17.1833 36.5728 17.8288 36.5728Z" fill="#6A7480"/>
</g>
<path d="M36.6386 27.4203V26.4243C36.6386 26.0059 36.301 25.6667 35.8846 25.6667H32.1148C31.6983 25.6667 31.3608 26.0059 31.3608 26.4243V27.4203H26.9561C26.4739 27.4203 26.083 27.8131 26.083 28.2976C26.083 28.7821 26.4739 29.1748 26.9561 29.1748H41.0433C41.5255 29.1748 41.9163 28.7821 41.9163 28.2976C41.9163 27.8131 41.5255 27.4203 41.0433 27.4203H36.6386Z" fill="#F04747"/>
<path d="M27.8423 30.0521V40.5789C27.8423 41.5457 28.6313 42.3334 29.6015 42.3334H38.3978C39.3681 42.3334 40.1571 41.5457 40.1571 40.5789V30.0521H27.8423ZM33.12 37.9415C33.12 38.4296 32.7262 38.8253 32.2404 38.8253C31.7546 38.8253 31.3608 38.4296 31.3608 37.9415V34.4457C31.3608 33.9576 31.7546 33.5619 32.2404 33.5619C32.7262 33.5619 33.12 33.9576 33.12 34.4457V37.9415ZM36.6386 37.9415C36.6386 38.4296 36.2447 38.8253 35.7589 38.8253C35.2731 38.8253 34.8793 38.4296 34.8793 37.9415V34.4457C34.8793 33.9576 35.2731 33.5619 35.7589 33.5619C36.2447 33.5619 36.6386 33.9576 36.6386 34.4457V37.9415Z" fill="#F04747"/>
</g>
<defs>
<clipPath id="clip0_2015_11675">
<rect width="48" height="48" fill="white"/>
</clipPath>
</defs>
</svg>
