<svg width="48" height="48" viewBox="0 0 48 48" fill="none" xmlns="http://www.w3.org/2000/svg">
<g clip-path="url(#clip0_2015_11671)">
<mask id="mask0_2015_11671" style="mask-type:alpha" maskUnits="userSpaceOnUse" x="0" y="0" width="48" height="48">
<path d="M48 0H0V48H34V46.3333C27.1959 46.3333 21.6667 40.8041 21.6667 34C21.6667 27.1959 27.1959 21.6667 34 21.6667C40.8041 21.6667 46.3333 27.1959 46.3333 34H48V0Z" fill="#FF0000"/>
</mask>
<g mask="url(#mask0_2015_11671)">
<path d="M22.0909 19.2V15.2469C19.8665 14.4607 18.2727 12.3392 18.2727 9.8455C18.2727 6.68243 20.8368 4.11823 24 4.11823C26.5067 4.11823 28.6371 5.72848 29.4135 7.97097C29.7584 8.96731 30.582 9.8455 31.6364 9.8455C32.6907 9.8455 33.5654 8.98216 33.357 7.9486C32.4773 3.58553 28.6223 0.300049 24 0.300049C18.7282 0.300049 14.4545 4.5737 14.4545 9.8455C14.4545 13.2723 16.2603 16.2773 18.9722 17.961L13.1085 28.9776C12.9247 28.9505 12.7367 28.9364 12.5455 28.9364C10.4367 28.9364 8.72727 30.6458 8.72727 32.7546C8.72727 34.8634 10.4367 36.5728 12.5455 36.5728C14.1111 36.5728 15.4567 35.6305 16.0459 34.2819H31.954C32.5432 35.6305 33.8889 36.5728 35.4545 36.5728C37.5633 36.5728 39.2727 34.8634 39.2727 32.7546C39.2727 30.6458 37.5633 28.9364 35.4545 28.9364C33.8889 28.9364 32.5432 29.8787 31.954 31.2273H16.0459C16.0361 31.2048 16.0261 31.1825 16.0158 31.1601L22.0909 19.2Z" fill="#6A7480"/>
<path d="M24 13.6637C21.8912 13.6637 20.1818 11.9542 20.1818 9.8455C20.1818 7.73678 21.8912 6.02732 24 6.02732C26.1088 6.02732 27.8182 7.73678 27.8182 9.8455C27.8182 10.6765 27.5526 11.4455 27.1019 12.0723L35.4545 23.2091C40.7263 23.2091 45 27.4828 45 32.7546C45 38.0264 40.7263 42.3 35.4545 42.3C32.7819 42.3 30.3658 41.2016 28.633 39.4316C27.4885 38.2625 28.5352 36.5728 30.1712 36.5728C30.8167 36.5728 31.4169 36.8673 31.925 37.2654C32.8977 38.0276 34.1231 38.4819 35.4545 38.4819C38.6175 38.4819 41.1818 35.9178 41.1818 32.7546C41.1818 29.5914 38.6175 27.0273 35.4545 27.0273H33.5455L24 13.6637Z" fill="#6A7480"/>
<path d="M17.8288 36.5728C19.4648 36.5728 20.5115 38.2625 19.367 39.4316C17.6343 41.2016 15.2181 42.3 12.5455 42.3C7.27365 42.3 3 38.0264 3 32.7546C3 28.1323 6.28548 24.2773 10.6486 23.3976C11.6821 23.1892 12.5455 24.0639 12.5455 25.1182C12.5455 26.1726 11.6673 26.9962 10.6709 27.3411C8.42844 28.1175 6.81818 30.2479 6.81818 32.7546C6.81818 35.9178 9.38238 38.4819 12.5455 38.4819C13.8769 38.4819 15.1023 38.0276 16.075 37.2654C16.5831 36.8673 17.1833 36.5728 17.8288 36.5728Z" fill="#6A7480"/>
</g>
<path d="M34.0003 25.6667C29.4053 25.6667 25.667 29.4051 25.667 34.0001C25.667 38.5951 29.4053 42.3334 34.0003 42.3334C38.5953 42.3334 42.3337 38.5951 42.3337 34.0001C42.3337 29.4051 38.5953 25.6667 34.0003 25.6667ZM38.167 34.0001C38.167 34.4603 37.7939 34.8334 37.3337 34.8334H34.8337V37.3334C34.8337 37.7937 34.4606 38.1668 34.0003 38.1668C33.5401 38.1668 33.167 37.7937 33.167 37.3334V34.8334H30.667C30.2068 34.8334 29.8337 34.4603 29.8337 34.0001C29.8337 33.5399 30.2068 33.1668 30.667 33.1668H33.167V30.6667C33.167 30.2065 33.5401 29.8334 34.0003 29.8334C34.4606 29.8334 34.8337 30.2065 34.8337 30.6667V33.1668H37.3337C37.7939 33.1668 38.167 33.5399 38.167 34.0001Z" fill="#43B581"/>
</g>
<defs>
<clipPath id="clip0_2015_11671">
<rect width="48" height="48" fill="white"/>
</clipPath>
</defs>
</svg>
