<svg width="48" height="48" viewBox="0 0 48 48" fill="none" xmlns="http://www.w3.org/2000/svg">
<path d="M7.9196 17.3393C5.75487 17.3393 4 19.0982 4 21.2679L4 27.9464C4 30.1161 5.75487 31.875 7.9196 31.875L7.9196 17.3393Z" fill="#6A7480"/>
<path d="M41.0517 8.49999C39.9757 8.49999 39.1035 9.37426 39.1035 10.4527L39.1035 10.8236L9.8794 17.2955L9.8794 37.6176C9.8794 38.5086 10.4873 39.2832 11.3562 39.5025L19.1493 41.4437C19.3051 41.4806 19.4649 41.5 19.6208 41.5C20.2267 41.5 20.8053 41.2185 21.1794 40.7235L25.9916 34.3312L39.1035 37.2315L39.1035 37.606C39.1035 38.6845 39.9757 39.5588 41.0517 39.5588C42.1277 39.5588 43 38.6845 43 37.606L43 10.4527C43 9.37427 42.1277 8.49999 41.0517 8.49999ZM18.8375 37.3635L13.7759 36.1016L13.7759 31.6233L21.8163 33.4053L18.8375 37.3635Z" fill="#6A7480"/>
</svg>
