<svg width="48" height="48" viewBox="0 0 48 48" fill="none" xmlns="http://www.w3.org/2000/svg">
<g clip-path="url(#clip0_2011_11400)">
<mask id="mask0_2011_11400" style="mask-type:alpha" maskUnits="userSpaceOnUse" x="0" y="0" width="48" height="48">
<path d="M48 0H0V48H28.537V45.9167C25.8932 45.9167 23.75 43.7734 23.75 41.1296V26.875C23.75 24.2536 25.868 22.0833 28.537 22.0833H35.6204C37.7103 22.0833 39.4624 23.414 40.1243 25.25H41.1296C43.7987 25.25 45.9167 27.4203 45.9167 30.0417H48V0Z" fill="#FF0000"/>
</mask>
<g mask="url(#mask0_2011_11400)">
<path d="M7.9196 17.3393C5.75487 17.3393 4 19.0982 4 21.2679L4 27.9464C4 30.1161 5.75487 31.875 7.9196 31.875L7.9196 17.3393Z" fill="#6A7480"/>
<path d="M41.0517 8.49999C39.9757 8.49999 39.1035 9.37426 39.1035 10.4527L39.1035 10.8236L9.8794 17.2955L9.8794 37.6176C9.8794 38.5086 10.4873 39.2832 11.3562 39.5025L19.1493 41.4437C19.3051 41.4806 19.4649 41.5 19.6208 41.5C20.2267 41.5 20.8053 41.2185 21.1794 40.7235L25.9916 34.3312L39.1035 37.2315L39.1035 37.606C39.1035 38.6845 39.9757 39.5588 41.0517 39.5588C42.1277 39.5588 43 38.6845 43 37.606L43 10.4527C43 9.37427 42.1277 8.49999 41.0517 8.49999ZM18.8375 37.3635L13.7759 36.1016L13.7759 31.6233L21.8163 33.4053L18.8375 37.3635Z" fill="#6A7480"/>
</g>
<path d="M41.1296 29.2499H36.4074V26.8749C36.4074 26.4379 36.0556 26.0833 35.6204 26.0833H28.537C28.1018 26.0833 27.75 26.4379 27.75 26.8749V41.1295C27.75 41.5642 28.1024 41.9166 28.537 41.9166C28.9717 41.9166 29.3241 41.5642 29.3241 41.1295V35.5832H33.7205L31.9158 37.3985C31.6907 37.625 31.6238 37.9654 31.745 38.2615C31.8662 38.5575 32.1543 38.7499 32.4722 38.7499H41.1296C41.5649 38.7499 41.9167 38.3953 41.9167 37.9583V30.0416C41.9167 29.6046 41.5649 29.2499 41.1296 29.2499Z" fill="#FAA61A"/>
</g>
<defs>
<clipPath id="clip0_2011_11400">
<rect width="48" height="48" fill="white"/>
</clipPath>
</defs>
</svg>
