<svg width="48" height="48" viewBox="0 0 48 48" fill="none" xmlns="http://www.w3.org/2000/svg">
<g clip-path="url(#clip0_2011_11392)">
<mask id="mask0_2011_11392" style="mask-type:alpha" maskUnits="userSpaceOnUse" x="0" y="0" width="48" height="48">
<path d="M48 0H0V48H24.0993V43.6923C22.9203 42.5131 22.4455 40.8007 22.85 39.1822L23.501 36.5779C23.8738 35.0866 24.6223 33.7156 25.6752 32.5956L32.084 25.7789L33.7272 24.1378L33.7284 24.1367L33.7293 24.1358C36.4684 21.3985 40.9161 21.3992 43.6544 24.1378L43.6554 24.1388C45.7777 26.2629 46.255 29.4144 45.085 32H48V0Z" fill="#FAA61A"/>
</mask>
<g mask="url(#mask0_2011_11392)">
<path d="M7.9196 17.3393C5.75487 17.3393 4 19.0982 4 21.2679L4 27.9464C4 30.1161 5.75487 31.875 7.9196 31.875L7.9196 17.3393Z" fill="#6A7480"/>
<path d="M41.0517 8.49999C39.9757 8.49999 39.1035 9.37426 39.1035 10.4527L39.1035 10.8236L9.8794 17.2955L9.8794 37.6176C9.8794 38.5086 10.4873 39.2832 11.3562 39.5025L19.1493 41.4437C19.3051 41.4806 19.4649 41.5 19.6208 41.5C20.2267 41.5 20.8053 41.2185 21.1794 40.7235L25.9916 34.3312L39.1035 37.2315L39.1035 37.606C39.1035 38.6845 39.9757 39.5588 41.0517 39.5588C42.1277 39.5588 43 38.6845 43 37.606L43 10.4527C43 9.37427 42.1277 8.49999 41.0517 8.49999ZM18.8375 37.3635L13.7759 36.1016L13.7759 31.6233L21.8163 33.4053L18.8375 37.3635Z" fill="#6A7480"/>
</g>
<path fill-rule="evenodd" clip-rule="evenodd" d="M40.2854 31.7759L40.8254 31.2366C42.0022 30.0596 42.0022 28.1437 40.8254 26.966C39.6486 25.789 37.7324 25.789 36.5555 26.966L36.0163 27.5061L40.2854 31.7759ZM34.9549 28.5646L28.5286 34.9937L32.7984 39.2631L39.2248 32.8339L34.9549 28.5646ZM27.6401 41.0612L31.5072 40.0951L27.6971 36.2843L26.7303 40.1521C26.6666 40.4071 26.7416 40.6779 26.9276 40.864C27.1136 41.05 27.3843 41.1243 27.6401 41.0612Z" fill="#FAA61A"/>
</g>
<defs>
<clipPath id="clip0_2011_11392">
<rect width="48" height="48" fill="white"/>
</clipPath>
</defs>
</svg>
