<svg width="48" height="48" viewBox="0 0 48 48" fill="none" xmlns="http://www.w3.org/2000/svg">
<g clip-path="url(#clip0_2011_11384)">
<mask id="mask0_2011_11384" style="mask-type:alpha" maskUnits="userSpaceOnUse" x="0" y="0" width="48" height="48">
<path d="M48 0H0V48H34V46.3333C27.1959 46.3333 21.6667 40.8041 21.6667 34C21.6667 27.1959 27.1959 21.6667 34 21.6667C40.8041 21.6667 46.3333 27.1959 46.3333 34H48V0Z" fill="#FF0000"/>
</mask>
<g mask="url(#mask0_2011_11384)">
<path d="M7.9196 17.3393C5.75487 17.3393 4 19.0982 4 21.2679L4 27.9464C4 30.1161 5.75487 31.875 7.9196 31.875L7.9196 17.3393Z" fill="#6A7480"/>
<path d="M41.0517 8.49999C39.9757 8.49999 39.1035 9.37426 39.1035 10.4527L39.1035 10.8236L9.8794 17.2955L9.8794 37.6176C9.8794 38.5086 10.4873 39.2832 11.3562 39.5025L19.1493 41.4437C19.3051 41.4806 19.4649 41.5 19.6208 41.5C20.2267 41.5 20.8053 41.2185 21.1794 40.7235L25.9916 34.3312L39.1035 37.2315L39.1035 37.606C39.1035 38.6845 39.9757 39.5588 41.0517 39.5588C42.1277 39.5588 43 38.6845 43 37.606L43 10.4527C43 9.37427 42.1277 8.49999 41.0517 8.49999ZM18.8375 37.3635L13.7759 36.1016L13.7759 31.6233L21.8163 33.4053L18.8375 37.3635Z" fill="#6A7480"/>
</g>
<path d="M34.0003 25.6667C29.4053 25.6667 25.667 29.4051 25.667 34.0001C25.667 38.5951 29.4053 42.3334 34.0003 42.3334C38.5953 42.3334 42.3337 38.5951 42.3337 34.0001C42.3337 29.4051 38.5953 25.6667 34.0003 25.6667ZM38.167 34.0001C38.167 34.4603 37.7939 34.8334 37.3337 34.8334H34.8337V37.3334C34.8337 37.7937 34.4606 38.1668 34.0003 38.1668C33.5401 38.1668 33.167 37.7937 33.167 37.3334V34.8334H30.667C30.2068 34.8334 29.8337 34.4603 29.8337 34.0001C29.8337 33.5399 30.2068 33.1668 30.667 33.1668H33.167V30.6667C33.167 30.2065 33.5401 29.8334 34.0003 29.8334C34.4606 29.8334 34.8337 30.2065 34.8337 30.6667V33.1668H37.3337C37.7939 33.1668 38.167 33.5399 38.167 34.0001Z" fill="#43B581"/>
</g>
<defs>
<clipPath id="clip0_2011_11384">
<rect width="48" height="48" fill="white"/>
</clipPath>
</defs>
</svg>
