<svg width="48" height="48" viewBox="0 0 48 48" fill="none" xmlns="http://www.w3.org/2000/svg">
<g clip-path="url(#clip0_2015_11621)">
<mask id="mask0_2015_11621" style="mask-type:alpha" maskUnits="userSpaceOnUse" x="0" y="0" width="48" height="48">
<path d="M48 0H0V48H34V46.3333C27.1959 46.3333 21.6667 40.8041 21.6667 34C21.6667 27.1959 27.1959 21.6667 34 21.6667C40.8041 21.6667 46.3333 27.1959 46.3333 34H48V0Z" fill="#FF0000"/>
</mask>
<g mask="url(#mask0_2015_11621)">
<path d="M38 6H36V3.9883C36 2.89019 35.1046 2 34 2C32.8954 2 32 2.89019 32 3.9883V6H16V3.9883C16 2.89019 15.1046 2 14 2C12.8954 2 12 2.89019 12 3.9883V6H10C7.78 6 6.02 7.8 6.02 10L6 38C6 39.0609 6.42143 40.0783 7.17157 40.8284C7.92172 41.5786 8.93913 42 10 42H38C40.2 42 42 40.2 42 38V10C42 7.8 40.2 6 38 6ZM38 34.8421C38 36.5862 36.5778 38 34.8235 38H13.1765C11.4222 38 10 36.5862 10 34.8421V19.1579C10 17.4138 11.4222 16 13.1765 16H34.8235C36.5778 16 38 17.4138 38 19.1579V34.8421ZM14 22.1053C14 20.9426 14.9481 20 16.1176 20H21.8824C23.0519 20 24 20.9426 24 22.1053V27.8947C24 29.0574 23.0519 30 21.8824 30H16.1176C14.9481 30 14 29.0574 14 27.8947V22.1053Z" fill="#6A7480"/>
</g>
<path d="M34.0003 25.6667C29.4003 25.6667 25.667 29.4001 25.667 34.0001C25.667 38.6001 29.4003 42.3334 34.0003 42.3334C38.6003 42.3334 42.3337 38.6001 42.3337 34.0001C42.3337 29.4001 38.6003 25.6667 34.0003 25.6667ZM36.5003 37.3334H31.5003C31.042 37.3334 30.667 36.9584 30.667 36.5001V31.5001C30.667 31.0417 31.042 30.6667 31.5003 30.6667H36.5003C36.9587 30.6667 37.3337 31.0417 37.3337 31.5001V36.5001C37.3337 36.9584 36.9587 37.3334 36.5003 37.3334Z" fill="#F04747"/>
</g>
<defs>
<clipPath id="clip0_2015_11621">
<rect width="48" height="48" fill="white"/>
</clipPath>
</defs>
</svg>
