<svg width="48" height="48" viewBox="0 0 48 48" fill="none" xmlns="http://www.w3.org/2000/svg">
<g clip-path="url(#clip0_2015_11606)">
<mask id="mask0_2015_11606" style="mask-type:alpha" maskUnits="userSpaceOnUse" x="0" y="0" width="48" height="48">
<path d="M48 0H0V48H29.6019V46.3333C26.4314 46.3333 23.8426 43.7637 23.8426 40.5789V32.0497C22.7652 31.1521 22.0833 29.7995 22.0833 28.2975C22.0833 25.6219 24.2471 23.4203 26.9564 23.4203H28.4288C29.2975 22.3527 30.6212 21.6667 32.1151 21.6667H35.8849C37.3788 21.6667 38.7025 22.3527 39.5712 23.4203H41.0436C43.7529 23.4203 45.9167 25.6219 45.9167 28.2975H48V0Z" fill="#F04747"/>
</mask>
<g mask="url(#mask0_2015_11606)">
<path d="M38 6H36V3.9883C36 2.89019 35.1046 2 34 2C32.8954 2 32 2.89019 32 3.9883V6H16V3.9883C16 2.89019 15.1046 2 14 2C12.8954 2 12 2.89019 12 3.9883V6H10C7.78 6 6.02 7.8 6.02 10L6 38C6 39.0609 6.42143 40.0783 7.17157 40.8284C7.92172 41.5786 8.93913 42 10 42H38C40.2 42 42 40.2 42 38V10C42 7.8 40.2 6 38 6ZM38 34.8421C38 36.5862 36.5778 38 34.8235 38H13.1765C11.4222 38 10 36.5862 10 34.8421V19.1579C10 17.4138 11.4222 16 13.1765 16H34.8235C36.5778 16 38 17.4138 38 19.1579V34.8421ZM14 22.1053C14 20.9426 14.9481 20 16.1176 20H21.8824C23.0519 20 24 20.9426 24 22.1053V27.8947C24 29.0574 23.0519 30 21.8824 30H16.1176C14.9481 30 14 29.0574 14 27.8947V22.1053Z" fill="#6A7480"/>
</g>
<path d="M36.6386 27.4203V26.4243C36.6386 26.0059 36.301 25.6667 35.8846 25.6667H32.1148C31.6983 25.6667 31.3608 26.0059 31.3608 26.4243V27.4203H26.9561C26.4739 27.4203 26.083 27.8131 26.083 28.2976C26.083 28.7821 26.4739 29.1748 26.9561 29.1748H41.0433C41.5255 29.1748 41.9163 28.7821 41.9163 28.2976C41.9163 27.8131 41.5255 27.4203 41.0433 27.4203H36.6386Z" fill="#F04747"/>
<path d="M27.8423 30.0521V40.5789C27.8423 41.5457 28.6313 42.3334 29.6015 42.3334H38.3978C39.3681 42.3334 40.1571 41.5457 40.1571 40.5789V30.0521H27.8423ZM33.12 37.9415C33.12 38.4296 32.7262 38.8253 32.2404 38.8253C31.7546 38.8253 31.3608 38.4296 31.3608 37.9415V34.4457C31.3608 33.9576 31.7546 33.5619 32.2404 33.5619C32.7262 33.5619 33.12 33.9576 33.12 34.4457V37.9415ZM36.6386 37.9415C36.6386 38.4296 36.2447 38.8253 35.7589 38.8253C35.2731 38.8253 34.8793 38.4296 34.8793 37.9415V34.4457C34.8793 33.9576 35.2731 33.5619 35.7589 33.5619C36.2447 33.5619 36.6386 33.9576 36.6386 34.4457V37.9415Z" fill="#F04747"/>
</g>
<defs>
<clipPath id="clip0_2015_11606">
<rect width="48" height="48" fill="white"/>
</clipPath>
</defs>
</svg>
