<svg width="48" height="48" viewBox="0 0 48 48" fill="none" xmlns="http://www.w3.org/2000/svg">
<path d="M38 6H36V3.9883C36 2.89019 35.1046 2 34 2C32.8954 2 32 2.89019 32 3.9883V6H16V3.9883C16 2.89019 15.1046 2 14 2C12.8954 2 12 2.89019 12 3.9883V6H10C7.78 6 6.02 7.8 6.02 10L6 38C6 39.0609 6.42143 40.0783 7.17157 40.8284C7.92172 41.5786 8.93913 42 10 42H38C40.2 42 42 40.2 42 38V10C42 7.8 40.2 6 38 6ZM38 34.8421C38 36.5862 36.5778 38 34.8235 38H13.1765C11.4222 38 10 36.5862 10 34.8421V19.1579C10 17.4138 11.4222 16 13.1765 16H34.8235C36.5778 16 38 17.4138 38 19.1579V34.8421ZM14 22.1053C14 20.9426 14.9481 20 16.1176 20H21.8824C23.0519 20 24 20.9426 24 22.1053V27.8947C24 29.0574 23.0519 30 21.8824 30H16.1176C14.9481 30 14 29.0574 14 27.8947V22.1053Z" fill="#43B581"/>
</svg>
