<svg width="48" height="48" viewBox="0 0 48 48" fill="none" xmlns="http://www.w3.org/2000/svg">
<path fill-rule="evenodd" clip-rule="evenodd" d="M24 15.7574V6.10998H9.6C8.64522 6.10998 7.72955 6.48924 7.05442 7.16433C6.37928 7.83943 6 8.75505 6 9.70978V38.4002C6 39.3549 6.37928 40.2705 7.05442 40.9456C7.72955 41.6207 8.64522 42 9.6 42H38.4C39.3548 42 40.2705 41.6207 40.9456 40.9456C41.6207 40.2705 42 39.3549 42 38.4002V24.001H32.244C30.0619 23.9868 27.9732 23.1138 26.4303 21.5709C24.8873 20.028 24.0142 17.9394 24 15.7574ZM24 33.9904C22.4103 33.9904 20.8857 33.359 19.7616 32.2349C18.922 31.3954 18.3572 30.3325 18.1251 29.1859C17.9939 28.5379 18.5419 27.9968 19.203 27.9968C19.8641 27.9968 20.3814 28.547 20.5972 29.1719C20.7737 29.6829 21.0648 30.1526 21.4544 30.5422C22.1295 31.2173 23.0452 31.5966 24 31.5966C24.9548 31.5966 25.8705 31.2173 26.5456 30.5422C26.9352 30.1526 27.2263 29.6829 27.4028 29.1719C27.6186 28.547 28.1359 27.9968 28.797 27.9968C29.4581 27.9968 30.0061 28.5379 29.8749 29.1859C29.6428 30.3325 29.078 31.3954 28.2384 32.2349C27.1143 33.359 25.5897 33.9904 24 33.9904ZM27.6 15.7214V7.18992C27.596 6.95456 27.6631 6.72346 27.7925 6.52682C27.9219 6.33019 28.1076 6.17715 28.3253 6.08772C28.5431 5.99829 28.7827 5.97662 29.013 6.02555C29.2433 6.07448 29.4534 6.19172 29.616 6.36196L41.658 18.3853C41.8204 18.5524 41.9301 18.7635 41.9734 18.9925C42.0167 19.2215 41.9917 19.4581 41.9016 19.6729C41.8114 19.8878 41.66 20.0714 41.4663 20.2009C41.2726 20.3304 41.045 20.4 40.812 20.4012H32.28C31.6647 20.4036 31.0551 20.2841 30.4862 20.0498C29.9174 19.8155 29.4005 19.4709 28.9654 19.0358C28.5304 18.6008 28.1857 18.084 27.9514 17.5151C27.717 16.9463 27.5976 16.3367 27.6 15.7214ZM14.6897 29.5853C14.6897 30.9564 13.5781 32.0679 12.2069 32.0679C10.8357 32.0679 9.72414 30.9564 9.72414 29.5853C9.72414 28.2142 10.8357 27.1027 12.2069 27.1027C13.5781 27.1027 14.6897 28.2142 14.6897 29.5853ZM35.7931 32.0679C37.1643 32.0679 38.2759 30.9564 38.2759 29.5853C38.2759 28.2142 37.1643 27.1027 35.7931 27.1027C34.4219 27.1027 33.3103 28.2142 33.3103 29.5853C33.3103 30.9564 34.4219 32.0679 35.7931 32.0679Z" fill="#FAA61A"/>
</svg>
