<svg width="48" height="48" viewBox="0 0 48 48" fill="none" xmlns="http://www.w3.org/2000/svg">
<g clip-path="url(#clip0_2010_11454)">
<mask id="mask0_2010_11454" style="mask-type:alpha" maskUnits="userSpaceOnUse" x="0" y="0" width="48" height="48">
<path d="M48 0H0V48H34V46.3333C27.1959 46.3333 21.6667 40.8041 21.6667 34C21.6667 27.1959 27.1959 21.6667 34 21.6667C40.8041 21.6667 46.3333 27.1959 46.3333 34H48V0Z" fill="#FF0000"/>
</mask>
<g mask="url(#mask0_2010_11454)">
<path d="M41.7612 18.734C43.2738 18.734 44.5 17.5552 44.5 16.101C44.5 14.6468 43.2738 13.468 41.7612 13.468H37.3818L38.4304 8.76148C38.7572 7.29505 37.7733 5.85498 36.2437 5.56077C34.7477 5.27302 33.2877 6.19066 32.9618 7.62355L31.6324 13.468H20.748L21.9654 8.78471C22.346 7.32066 21.3766 5.84791 19.8374 5.55185C18.3671 5.26905 16.9322 6.1709 16.6119 7.57914L15.2725 13.468H8.97654C7.46397 13.468 6.23778 14.6468 6.23778 16.101C6.23778 17.5552 7.46396 18.734 8.97654 18.734H14.1773L11.7133 29.266H6.23876C4.72618 29.266 3.5 30.4448 3.5 31.899C3.5 33.3531 4.72618 34.532 6.23876 34.532H10.6182L9.56955 39.2385C9.24281 40.7049 10.2267 42.145 11.7563 42.4392C13.2523 42.727 14.7123 41.8093 15.0382 40.3764L16.3676 34.532H27.252L26.0346 39.2153C25.654 40.6793 26.6234 42.1521 28.1626 42.4481C29.6329 42.7309 31.0678 41.8291 31.3881 40.4209L32.7275 34.532H39.0235C40.536 34.532 41.7622 33.3531 41.7622 31.899C41.7622 30.4448 40.536 29.266 39.0235 29.266H33.8227L36.2867 18.734H41.7612ZM28.0733 29.266H17.1889L19.9267 18.734H30.8111L28.0733 29.266Z" fill="#6A7480"/>
</g>
<path d="M34.0003 25.6667C29.4053 25.6667 25.667 29.4051 25.667 34.0001C25.667 38.5951 29.4053 42.3334 34.0003 42.3334C38.5953 42.3334 42.3337 38.5951 42.3337 34.0001C42.3337 29.4051 38.5953 25.6667 34.0003 25.6667ZM38.167 34.0001C38.167 34.4603 37.7939 34.8334 37.3337 34.8334H34.8337V37.3334C34.8337 37.7937 34.4606 38.1668 34.0003 38.1668C33.5401 38.1668 33.167 37.7937 33.167 37.3334V34.8334H30.667C30.2068 34.8334 29.8337 34.4603 29.8337 34.0001C29.8337 33.5399 30.2068 33.1668 30.667 33.1668H33.167V30.6667C33.167 30.2065 33.5401 29.8334 34.0003 29.8334C34.4606 29.8334 34.8337 30.2065 34.8337 30.6667V33.1668H37.3337C37.7939 33.1668 38.167 33.5399 38.167 34.0001Z" fill="#43B581"/>
</g>
<defs>
<clipPath id="clip0_2010_11454">
<rect width="48" height="48" fill="white"/>
</clipPath>
</defs>
</svg>
