<svg width="48" height="48" viewBox="0 0 48 48" fill="none" xmlns="http://www.w3.org/2000/svg">
<g clip-path="url(#clip0_2010_11466)">
<mask id="mask0_2010_11466" style="mask-type:alpha" maskUnits="userSpaceOnUse" x="0" y="0" width="48" height="48">
<path d="M48 0H0V48H28.537V45.9167C25.8932 45.9167 23.75 43.7734 23.75 41.1296V26.875C23.75 24.2536 25.868 22.0833 28.537 22.0833H35.6204C37.7103 22.0833 39.4624 23.414 40.1243 25.25H41.1296C43.7987 25.25 45.9167 27.4203 45.9167 30.0417H48V0Z" fill="#FF0000"/>
</mask>
<g mask="url(#mask0_2010_11466)">
<path d="M41.7612 18.734C43.2738 18.734 44.5 17.5552 44.5 16.101C44.5 14.6468 43.2738 13.468 41.7612 13.468H37.3818L38.4304 8.76148C38.7572 7.29505 37.7733 5.85498 36.2437 5.56077C34.7477 5.27302 33.2877 6.19066 32.9618 7.62355L31.6324 13.468H20.748L21.9654 8.78471C22.346 7.32066 21.3766 5.84791 19.8374 5.55185C18.3671 5.26905 16.9322 6.1709 16.6119 7.57914L15.2725 13.468H8.97654C7.46397 13.468 6.23778 14.6468 6.23778 16.101C6.23778 17.5552 7.46396 18.734 8.97654 18.734H14.1773L11.7133 29.266H6.23876C4.72618 29.266 3.5 30.4448 3.5 31.899C3.5 33.3531 4.72618 34.532 6.23876 34.532H10.6182L9.56955 39.2385C9.24281 40.7049 10.2267 42.145 11.7563 42.4392C13.2523 42.727 14.7123 41.8093 15.0382 40.3764L16.3676 34.532H27.252L26.0346 39.2153C25.654 40.6793 26.6234 42.1521 28.1626 42.4481C29.6329 42.7309 31.0678 41.8291 31.3881 40.4209L32.7275 34.532H39.0235C40.536 34.532 41.7622 33.3531 41.7622 31.899C41.7622 30.4448 40.536 29.266 39.0235 29.266H33.8227L36.2867 18.734H41.7612ZM28.0733 29.266H17.1889L19.9267 18.734H30.8111L28.0733 29.266Z" fill="#6A7480"/>
</g>
<path d="M41.1296 29.2499H36.4074V26.8749C36.4074 26.4379 36.0556 26.0833 35.6204 26.0833H28.537C28.1018 26.0833 27.75 26.4379 27.75 26.8749V41.1295C27.75 41.5642 28.1024 41.9166 28.537 41.9166C28.9717 41.9166 29.3241 41.5642 29.3241 41.1295V35.5832H33.7205L31.9158 37.3985C31.6907 37.625 31.6238 37.9654 31.745 38.2615C31.8662 38.5575 32.1543 38.7499 32.4722 38.7499H41.1296C41.5649 38.7499 41.9167 38.3953 41.9167 37.9583V30.0416C41.9167 29.6046 41.5649 29.2499 41.1296 29.2499Z" fill="#43B581"/>
</g>
<defs>
<clipPath id="clip0_2010_11466">
<rect width="48" height="48" fill="white"/>
</clipPath>
</defs>
</svg>
