<svg width="48" height="48" viewBox="0 0 48 48" fill="none" xmlns="http://www.w3.org/2000/svg">
<path d="M41.7612 18.734C43.2738 18.734 44.5 17.5552 44.5 16.101C44.5 14.6468 43.2738 13.468 41.7612 13.468H37.3818L38.4304 8.76148C38.7572 7.29505 37.7733 5.85498 36.2437 5.56077C34.7477 5.27302 33.2877 6.19066 32.9618 7.62355L31.6324 13.468H20.748L21.9654 8.78471C22.346 7.32066 21.3766 5.84791 19.8374 5.55185C18.3671 5.26905 16.9322 6.1709 16.6119 7.57914L15.2725 13.468H8.97654C7.46397 13.468 6.23778 14.6468 6.23778 16.101C6.23778 17.5552 7.46396 18.734 8.97654 18.734H14.1773L11.7133 29.266H6.23876C4.72618 29.266 3.5 30.4448 3.5 31.899C3.5 33.3531 4.72618 34.532 6.23876 34.532H10.6182L9.56955 39.2385C9.24281 40.7049 10.2267 42.145 11.7563 42.4392C13.2523 42.727 14.7123 41.8093 15.0382 40.3764L16.3676 34.532H27.252L26.0346 39.2153C25.654 40.6793 26.6234 42.1521 28.1626 42.4481C29.6329 42.7309 31.0678 41.8291 31.3881 40.4209L32.7275 34.532H39.0235C40.536 34.532 41.7622 33.3531 41.7622 31.899C41.7622 30.4448 40.536 29.266 39.0235 29.266H33.8227L36.2867 18.734H41.7612ZM28.0733 29.266H17.1889L19.9267 18.734H30.8111L28.0733 29.266Z" fill="#F04747"/>
</svg>
