<svg width="48" height="48" viewBox="0 0 48 48" fill="none" xmlns="http://www.w3.org/2000/svg">
<g clip-path="url(#clip0_2010_11458)">
<mask id="mask0_2010_11458" style="mask-type:alpha" maskUnits="userSpaceOnUse" x="0" y="0" width="48" height="48">
<path d="M48 0H0V48H29.6019V46.3333C26.4314 46.3333 23.8426 43.7637 23.8426 40.5789V32.0497C22.7652 31.1521 22.0833 29.7995 22.0833 28.2975C22.0833 25.6219 24.2471 23.4203 26.9564 23.4203H28.4288C29.2975 22.3527 30.6212 21.6667 32.1151 21.6667H35.8849C37.3788 21.6667 38.7025 22.3527 39.5712 23.4203H41.0436C43.7529 23.4203 45.9167 25.6219 45.9167 28.2975H48V0Z" fill="#F04747"/>
</mask>
<g mask="url(#mask0_2010_11458)">
<path d="M41.7612 18.734C43.2738 18.734 44.5 17.5552 44.5 16.101C44.5 14.6468 43.2738 13.468 41.7612 13.468H37.3818L38.4304 8.76148C38.7572 7.29505 37.7733 5.85498 36.2437 5.56077C34.7477 5.27302 33.2877 6.19066 32.9618 7.62355L31.6324 13.468H20.748L21.9654 8.78471C22.346 7.32066 21.3766 5.84791 19.8374 5.55185C18.3671 5.26905 16.9322 6.1709 16.6119 7.57914L15.2725 13.468H8.97654C7.46397 13.468 6.23778 14.6468 6.23778 16.101C6.23778 17.5552 7.46396 18.734 8.97654 18.734H14.1773L11.7133 29.266H6.23876C4.72618 29.266 3.5 30.4448 3.5 31.899C3.5 33.3531 4.72618 34.532 6.23876 34.532H10.6182L9.56955 39.2385C9.24281 40.7049 10.2267 42.145 11.7563 42.4392C13.2523 42.727 14.7123 41.8093 15.0382 40.3764L16.3676 34.532H27.252L26.0346 39.2153C25.654 40.6793 26.6234 42.1521 28.1626 42.4481C29.6329 42.7309 31.0678 41.8291 31.3881 40.4209L32.7275 34.532H39.0235C40.536 34.532 41.7622 33.3531 41.7622 31.899C41.7622 30.4448 40.536 29.266 39.0235 29.266H33.8227L36.2867 18.734H41.7612ZM28.0733 29.266H17.1889L19.9267 18.734H30.8111L28.0733 29.266Z" fill="#6A7480"/>
</g>
<path d="M36.6386 27.4203V26.4243C36.6386 26.0059 36.301 25.6667 35.8846 25.6667H32.1148C31.6983 25.6667 31.3608 26.0059 31.3608 26.4243V27.4203H26.9561C26.4739 27.4203 26.083 27.8131 26.083 28.2976C26.083 28.7821 26.4739 29.1748 26.9561 29.1748H41.0433C41.5255 29.1748 41.9163 28.7821 41.9163 28.2976C41.9163 27.8131 41.5255 27.4203 41.0433 27.4203H36.6386Z" fill="#F04747"/>
<path d="M27.8423 30.0521V40.5789C27.8423 41.5457 28.6313 42.3334 29.6015 42.3334H38.3978C39.3681 42.3334 40.1571 41.5457 40.1571 40.5789V30.0521H27.8423ZM33.12 37.9415C33.12 38.4296 32.7262 38.8253 32.2404 38.8253C31.7546 38.8253 31.3608 38.4296 31.3608 37.9415V34.4457C31.3608 33.9576 31.7546 33.5619 32.2404 33.5619C32.7262 33.5619 33.12 33.9576 33.12 34.4457V37.9415ZM36.6386 37.9415C36.6386 38.4296 36.2447 38.8253 35.7589 38.8253C35.2731 38.8253 34.8793 38.4296 34.8793 37.9415V34.4457C34.8793 33.9576 35.2731 33.5619 35.7589 33.5619C36.2447 33.5619 36.6386 33.9576 36.6386 34.4457V37.9415Z" fill="#F04747"/>
</g>
<defs>
<clipPath id="clip0_2010_11458">
<rect width="48" height="48" fill="white"/>
</clipPath>
</defs>
</svg>
