<svg width="48" height="48" viewBox="0 0 48 48" fill="none" xmlns="http://www.w3.org/2000/svg">
<path d="M17.5082 10.3158C17.5082 6.82105 20.4069 4 23.9977 4C27.1815 4 29.8211 6.21776 30.3787 9.15649L17.5082 22.0551V10.3158Z" fill="#F04747"/>
<path d="M12.6129 23.4612C13.0016 23.7893 13.257 24.2416 13.3333 24.7368C13.4071 25.1481 13.5053 25.5515 13.6266 25.9452L10.3103 29.2688C9.71197 28.0458 9.28222 26.7294 9.05028 25.3474C8.8556 24.0842 9.89391 22.9474 11.2134 22.9474C11.7279 22.9509 12.2242 23.1331 12.6129 23.4612Z" fill="#F04747"/>
<path d="M23.9977 29.2632C27.5885 29.2632 30.4872 26.4421 30.4872 22.9474V20.3468L40.9256 9.88774C41.6877 9.12575 41.6952 7.82566 40.9256 7.05615C40.144 6.27295 38.8612 6.27295 38.0796 7.05615L7.07355 38.1434C6.31256 38.9059 6.30508 40.205 7.07355 40.975C7.86615 41.7691 9.06287 41.6623 9.89956 40.975L15.637 35.2263C17.4638 36.4014 19.5685 37.2018 21.8345 37.5158V41.8947C21.8345 43.0526 22.808 44 23.9977 44C25.1874 44 26.1609 43.0526 26.1609 41.8947V37.5158C29.344 37.0732 32.2994 35.655 34.5983 33.4669C36.8971 31.2788 38.4197 28.4347 38.9451 25.3474C39.1614 24.0842 38.1015 22.9474 36.782 22.9474C35.722 22.9474 34.8351 23.7053 34.6621 24.7368C33.7752 29.6842 29.3407 33.4737 23.9977 33.4737C22.4856 33.4737 20.4022 32.649 18.9072 31.9496L21.9176 28.9332C22.5703 29.1472 23.2698 29.2632 23.9977 29.2632Z" fill="#F04747"/>
</svg>
