<svg width="48" height="48" viewBox="0 0 48 48" fill="none" xmlns="http://www.w3.org/2000/svg">
<path d="M38.0228 6L9.99581 6C7.80093 6 6 7.8 6 9.99375L6 37.9875C6 40.2 7.80093 42 9.99581 42H38.004C40.1989 42 41.9999 40.2 41.9999 38.0062V9.99375C42.0186 7.8 40.2177 6 38.0228 6ZM32.9431 17.902L17.9082 32.9292C17.139 33.698 15.8634 33.698 15.0755 32.9292C14.3063 32.1605 14.3063 30.8855 15.0755 30.098L30.1104 15.0708C30.8796 14.302 32.1552 14.302 32.9431 15.0708C33.731 15.8395 33.731 17.1145 32.9431 17.902Z" fill="#F04747"/>
</svg>
