<svg width="48" height="48" viewBox="0 0 48 48" fill="none" xmlns="http://www.w3.org/2000/svg">
<g clip-path="url(#clip0_2053_12383)">
<mask id="mask0_2053_12383" style="mask-type:alpha" maskUnits="userSpaceOnUse" x="0" y="0" width="48" height="48">
<path d="M48 0H0V48H36.4408V44.6666H31.5585C30.1142 44.6666 28.8351 44.0096 27.9885 42.9857C25.8772 43.6664 23.3352 42.8777 22.1888 40.5601C21.333 38.83 20.833 36.8633 20.833 34.7812C20.833 27.5168 26.7577 21.6666 33.9997 21.6666C41.2417 21.6666 47.1663 27.5169 47.1663 34.7812H48V0Z" fill="#F04747"/>
</mask>
<g mask="url(#mask0_2053_12383)">
<path fill-rule="evenodd" clip-rule="evenodd" d="M33.5 11.5C33.5 16.7369 29.2393 21 24 21C18.7631 21 14.5 16.7369 14.5 11.5C14.5 6.26312 18.7607 2 24 2C29.2393 2 33.5 6.26312 33.5 11.5ZM5 37.625C5 29.2341 12.8138 23.375 24 23.375C35.1886 23.375 43 29.2341 43 37.625C43 38.9367 41.9367 40 40.625 40H7.375C6.06332 40 5 38.9367 5 37.625Z" fill="#6A7480"/>
</g>
<path d="M35.857 34.7814C35.857 35.8013 35.0192 36.6303 33.9997 36.6303C32.9802 36.6303 32.1423 35.8013 32.1423 34.7814C32.1423 33.7613 32.9802 32.9324 33.9997 32.9324C35.0192 32.9324 35.857 33.7613 35.857 34.7814Z" fill="#FAA61A"/>
<path d="M30.9241 40.0287C30.9241 38.4951 32.2321 37.3725 33.9997 37.3725C35.7673 37.3725 37.0752 38.4951 37.0752 40.0287C37.0752 40.3811 36.7912 40.6667 36.4408 40.6667H31.5585C31.2082 40.6667 30.9241 40.3811 30.9241 40.0287Z" fill="#FAA61A"/>
<path d="M33.9997 30.9792C31.8843 30.9792 30.172 32.6852 30.172 34.7814C30.172 35.2635 30.2689 35.7202 30.4403 36.1447C30.6045 36.5514 30.4923 37.0657 30.0771 37.3052C29.6822 37.5329 29.1446 37.4112 28.9453 36.9582C28.6508 36.289 28.4877 35.5528 28.4877 34.7814C28.4877 31.7592 30.966 29.2996 33.9997 29.2996C37.0333 29.2996 39.5117 31.7592 39.5117 34.7814C39.5117 35.5583 39.3441 36.2894 39.0529 36.9543C38.8545 37.4076 38.3165 37.5325 37.9202 37.304C37.5062 37.0652 37.3943 36.5523 37.5582 36.1468C37.7301 35.7217 37.8273 35.2643 37.8273 34.7814C37.8273 32.6852 36.1151 30.9792 33.9997 30.9792Z" fill="#FAA61A"/>
<path d="M33.9997 27.3464C29.8621 27.3464 26.5173 30.6751 26.5173 34.7814C26.5173 35.9228 26.7804 37.0031 27.2408 37.9663C27.4339 38.3701 27.3111 38.8809 26.9046 39.1158C26.5094 39.3442 25.9865 39.2161 25.7742 38.7868C25.1777 37.5809 24.833 36.2187 24.833 34.7814C24.833 29.749 28.9438 25.6667 33.9997 25.6667C39.0556 25.6667 43.1663 29.749 43.1663 34.7814C43.1663 36.2207 42.8207 37.5847 42.2174 38.7971C42.0044 39.2252 41.4824 39.3526 41.0878 39.1245C40.6807 38.8893 40.5582 38.3774 40.7526 37.9733C41.2185 37.0048 41.482 35.9238 41.482 34.7814C41.482 30.6751 38.1373 27.3464 33.9997 27.3464Z" fill="#FAA61A"/>
</g>
<defs>
<clipPath id="clip0_2053_12383">
<rect width="48" height="48" fill="white"/>
</clipPath>
</defs>
</svg>
