<svg width="48" height="48" viewBox="0 0 48 48" fill="none" xmlns="http://www.w3.org/2000/svg">
<g clip-path="url(#clip0_2053_12343)">
<mask id="mask0_2053_12343" style="mask-type:alpha" maskUnits="userSpaceOnUse" x="0" y="0" width="48" height="48">
<path fill-rule="evenodd" clip-rule="evenodd" d="M25.5944 34.9171L25.5957 34.9253C25.5953 34.9225 25.5948 34.9198 25.5944 34.9171Z" fill="#6A7480"/>
<path d="M0 0H48V40.8443H41.179C42.7545 39.3475 43.814 37.3856 44.181 35.2357L44.1814 35.2337C44.646 32.5127 42.8659 30.407 40.7078 29.7646V28.2982C40.7078 24.5247 37.5972 21.6667 33.999 21.6667C30.4008 21.6667 27.2903 24.5247 27.2903 28.2982V29.7614C25.1088 30.4049 23.3995 32.5348 23.8067 35.1718L23.8108 35.1982L23.8152 35.2246C24.3589 38.4586 26.429 41.1114 29.2161 42.5421C29.7212 44.7766 31.7518 46.3333 33.999 46.3333L34 48H0V0Z" fill="#6A7480"/>
</mask>
<g mask="url(#mask0_2053_12343)">
<path fill-rule="evenodd" clip-rule="evenodd" d="M33.5 11.5C33.5 16.7369 29.2393 21 24 21C18.7631 21 14.5 16.7369 14.5 11.5C14.5 6.26312 18.7607 2 24 2C29.2393 2 33.5 6.26312 33.5 11.5ZM5 37.625C5 29.2341 12.8138 23.375 24 23.375C35.1886 23.375 43 29.2341 43 37.625C43 38.9367 41.9367 40 40.625 40H7.375C6.06332 40 5 38.9367 5 37.625Z" fill="#6A7480"/>
</g>
<path d="M33.999 36.1931C35.4979 36.1931 36.7078 35.0176 36.7078 33.5615V28.2983C36.7078 26.8422 35.4979 25.6667 33.999 25.6667C32.5002 25.6667 31.2903 26.8422 31.2903 28.2983V33.5615C31.2903 35.0176 32.5002 36.1931 33.999 36.1931ZM39.3353 33.5615C38.8929 33.5615 38.5227 33.8773 38.4505 34.3071C38.0803 36.3685 36.2293 37.9475 33.999 37.9475C31.7688 37.9475 29.9178 36.3685 29.5476 34.3071C29.5158 34.1008 29.4091 33.9123 29.2469 33.7756C29.0847 33.6389 28.8775 33.5629 28.6628 33.5615C28.112 33.5615 27.6786 34.0352 27.7598 34.5615C28.2023 37.1931 30.3693 39.2545 33.0961 39.6317V41.4562C33.0961 41.9387 33.5024 42.3334 33.999 42.3334C34.4956 42.3334 34.902 41.9387 34.902 41.4562V39.6317C36.2306 39.4473 37.4643 38.8563 38.4238 37.9446C39.3834 37.0329 40.0189 35.8479 40.2383 34.5615C40.3285 34.0352 39.8861 33.5615 39.3353 33.5615Z" fill="#43B581"/>
</g>
<defs>
<clipPath id="clip0_2053_12343">
<rect width="48" height="48" fill="white"/>
</clipPath>
</defs>
</svg>
