<svg width="48" height="48" viewBox="0 0 48 48" fill="none" xmlns="http://www.w3.org/2000/svg">
<g clip-path="url(#clip0_2053_12331)">
<mask id="mask0_2053_12331" style="mask-type:alpha" maskUnits="userSpaceOnUse" x="0" y="0" width="48" height="48">
<path d="M48 0H0V48H34V46.3333C27.1959 46.3333 21.6667 40.8041 21.6667 34C21.6667 27.1959 27.1959 21.6667 34 21.6667C40.8041 21.6667 46.3333 27.1959 46.3333 34H48V0Z" fill="#FF0000"/>
</mask>
<g mask="url(#mask0_2053_12331)">
<path fill-rule="evenodd" clip-rule="evenodd" d="M33.5 11.5C33.5 16.7369 29.2393 21 24 21C18.7631 21 14.5 16.7369 14.5 11.5C14.5 6.26312 18.7607 2 24 2C29.2393 2 33.5 6.26312 33.5 11.5ZM5 37.625C5 29.2341 12.8138 23.375 24 23.375C35.1886 23.375 43 29.2341 43 37.625C43 38.9367 41.9367 40 40.625 40H7.375C6.06332 40 5 38.9367 5 37.625Z" fill="#6A7480"/>
</g>
<path d="M35.3007 34.8334L33.9795 36.1536C33.6528 36.48 33.6534 37.0096 33.9808 37.3352C34.3068 37.6594 34.8336 37.6588 35.1588 37.3338L38.5022 33.9926L35.1588 30.6641C34.8328 30.3395 34.3055 30.34 33.9801 30.6653C33.6535 30.9917 33.6541 31.5212 33.9814 31.847L35.3074 33.1667H25.667C26.0872 28.9626 29.6538 25.6667 33.979 25.6667C38.5858 25.6667 42.3337 29.4059 42.3337 34.0001C42.3337 38.5942 38.5858 42.3334 33.979 42.3334C29.6538 42.3334 26.0872 39.0384 25.667 34.8334H35.3007Z" fill="#43B581"/>
</g>
<defs>
<clipPath id="clip0_2053_12331">
<rect width="48" height="48" fill="white"/>
</clipPath>
</defs>
</svg>
