<svg width="48" height="48" viewBox="0 0 48 48" fill="none" xmlns="http://www.w3.org/2000/svg">
<g clip-path="url(#clip0_2053_12351)">
<mask id="mask0_2053_12351" style="mask-type:alpha" maskUnits="userSpaceOnUse" x="0" y="0" width="48" height="48">
<path d="M48 0H0V48H29V44.6667C25.4074 44.6667 22.5 41.759 22.5 38.1666V32.5915C22.5 26.6749 26.9748 21.2644 33.241 20.858C39.9277 20.4241 45.5 25.7275 45.5 32.3331V38.1666H48V0Z" fill="url(#paint0_linear_2053_12351)"/>
</mask>
<g mask="url(#mask0_2053_12351)">
<path fill-rule="evenodd" clip-rule="evenodd" d="M33.5 11.5C33.5 16.7369 29.2393 21 24 21C18.7631 21 14.5 16.7369 14.5 11.5C14.5 6.26312 18.7607 2 24 2C29.2393 2 33.5 6.26312 33.5 11.5ZM5 37.625C5 29.2341 12.8138 23.375 24 23.375C35.1886 23.375 43 29.2341 43 37.625C43 38.9367 41.9367 40 40.625 40H7.375C6.06332 40 5 38.9367 5 37.625Z" fill="#6A7480"/>
</g>
<path d="M33.5 24.8495C29.5167 25.1078 26.5 28.5996 26.5 32.5914V38.1665C26.5 39.5499 27.6167 40.6666 29 40.6666H29.8333C30.75 40.6666 31.5 39.9166 31.5 38.9999V35.6665C31.5 34.7498 30.75 33.9997 29.8333 33.9997H28.1667V32.5747C28.1667 29.3746 30.6333 26.5912 33.825 26.4995C34.6057 26.476 35.3831 26.6095 36.1112 26.8921C36.8393 27.1747 37.5033 27.6007 38.0636 28.1447C38.624 28.6888 39.0694 29.3399 39.3734 30.0593C39.6774 30.7788 39.8338 31.552 39.8333 32.333V33.9997H38.1667C37.25 33.9997 36.5 34.7498 36.5 35.6665V38.9999C36.5 39.9166 37.25 40.6666 38.1667 40.6666H39C40.3833 40.6666 41.5 39.5499 41.5 38.1665V32.333C41.5 28.0246 37.8667 24.5662 33.5 24.8495Z" fill="#43B581"/>
</g>
<defs>
<linearGradient id="paint0_linear_2053_12351" x1="0" y1="0" x2="48" y2="48" gradientUnits="userSpaceOnUse">
<stop stop-color="#00AAFF"/>
<stop offset="0.491669" stop-color="#007FFF"/>
<stop offset="1" stop-color="#0055FF"/>
<stop offset="1" stop-color="#0055FF"/>
</linearGradient>
<clipPath id="clip0_2053_12351">
<rect width="48" height="48" fill="white"/>
</clipPath>
</defs>
</svg>
