<svg width="48" height="48" viewBox="0 0 48 48" fill="none" xmlns="http://www.w3.org/2000/svg">
<g clip-path="url(#clip0_2213_410)">
<mask id="mask0_2213_410" style="mask-type:alpha" maskUnits="userSpaceOnUse" x="0" y="0" width="48" height="48">
<path d="M48 0H0V48H34V46.3333C27.1959 46.3333 21.6667 40.8041 21.6667 34C21.6667 27.1959 27.1959 21.6667 34 21.6667C40.8041 21.6667 46.3333 27.1959 46.3333 34H48V0Z" fill="#FF0000"/>
</mask>
<g mask="url(#mask0_2213_410)">
<path fill-rule="evenodd" clip-rule="evenodd" d="M33.5 11.5C33.5 16.7369 29.2393 21 24 21C18.7631 21 14.5 16.7369 14.5 11.5C14.5 6.26312 18.7607 2 24 2C29.2393 2 33.5 6.26312 33.5 11.5ZM5 37.625C5 29.2341 12.8138 23.375 24 23.375C35.1886 23.375 43 29.2341 43 37.625C43 38.9367 41.9367 40 40.625 40H7.375C6.06332 40 5 38.9367 5 37.625Z" fill="#6A7480"/>
</g>
<path d="M34.0003 25.6667C29.3973 25.6667 25.667 29.3971 25.667 34.0001C25.667 38.6031 29.3973 42.3334 34.0003 42.3334C38.6033 42.3334 42.3337 38.6031 42.3337 34.0001C42.3337 29.3971 38.6033 25.6667 34.0003 25.6667ZM34.0003 28.6667C34.3688 28.6667 34.667 28.9649 34.667 29.3334V33.6147L37.8024 35.4272C38.1214 35.6108 38.2256 36.0145 38.042 36.3335C37.8584 36.6526 37.4547 36.7567 37.1357 36.5731L33.7397 34.6147C33.7137 34.6043 33.6902 34.5874 33.6668 34.5731C33.4676 34.4572 33.3335 34.2462 33.3335 34.0002V29.3335C33.3335 28.965 33.6318 28.6667 34.0003 28.6667Z" fill="#43B581"/>
</g>
<defs>
<clipPath id="clip0_2213_410">
<rect width="48" height="48" fill="white"/>
</clipPath>
</defs>
</svg>
