<svg width="48" height="48" viewBox="0 0 48 48" fill="none" xmlns="http://www.w3.org/2000/svg">
<g clip-path="url(#clip0_2053_12315)">
<mask id="mask0_2053_12315" style="mask-type:alpha" maskUnits="userSpaceOnUse" x="0" y="0" width="48" height="48">
<path d="M48 0H0V48H34V46.3333C27.1959 46.3333 21.6667 40.8041 21.6667 34C21.6667 27.1959 27.1959 21.6667 34 21.6667C40.8041 21.6667 46.3333 27.1959 46.3333 34H48V0Z" fill="#FF0000"/>
</mask>
<g mask="url(#mask0_2053_12315)">
<path fill-rule="evenodd" clip-rule="evenodd" d="M33.5 11.5C33.5 16.7369 29.2393 21 24 21C18.7631 21 14.5 16.7369 14.5 11.5C14.5 6.26312 18.7607 2 24 2C29.2393 2 33.5 6.26312 33.5 11.5ZM5 37.625C5 29.2341 12.8138 23.375 24 23.375C35.1886 23.375 43 29.2341 43 37.625C43 38.9367 41.9367 40 40.625 40H7.375C6.06332 40 5 38.9367 5 37.625Z" fill="#6A7480"/>
</g>
<path d="M34.0003 25.6667C29.4053 25.6667 25.667 29.4051 25.667 34.0001C25.667 38.5951 29.4053 42.3334 34.0003 42.3334C38.5953 42.3334 42.3337 38.5951 42.3337 34.0001C42.3337 29.4051 38.5953 25.6667 34.0003 25.6667ZM38.167 34.0001C38.167 34.4603 37.7939 34.8334 37.3337 34.8334H34.8337V37.3334C34.8337 37.7937 34.4606 38.1668 34.0003 38.1668C33.5401 38.1668 33.167 37.7937 33.167 37.3334V34.8334H30.667C30.2068 34.8334 29.8337 34.4603 29.8337 34.0001C29.8337 33.5399 30.2068 33.1668 30.667 33.1668H33.167V30.6667C33.167 30.2065 33.5401 29.8334 34.0003 29.8334C34.4606 29.8334 34.8337 30.2065 34.8337 30.6667V33.1668H37.3337C37.7939 33.1668 38.167 33.5399 38.167 34.0001Z" fill="#43B581"/>
</g>
<defs>
<clipPath id="clip0_2053_12315">
<rect width="48" height="48" fill="white"/>
</clipPath>
</defs>
</svg>
