<svg width="48" height="48" viewBox="0 0 48 48" fill="none" xmlns="http://www.w3.org/2000/svg">
<g clip-path="url(#clip0_2053_12327)">
<mask id="mask0_2053_12327" style="mask-type:alpha" maskUnits="userSpaceOnUse" x="0" y="0" width="48" height="48">
<path d="M48 0H0V48H34V46.3333C27.1959 46.3333 21.6667 40.8041 21.6667 34C21.6667 27.1959 27.1959 21.6667 34 21.6667C40.8041 21.6667 46.3333 27.1959 46.3333 34H48V0Z" fill="#FF0000"/>
</mask>
<g mask="url(#mask0_2053_12327)">
<path fill-rule="evenodd" clip-rule="evenodd" d="M33.5 11.5C33.5 16.7369 29.2393 21 24 21C18.7631 21 14.5 16.7369 14.5 11.5C14.5 6.26312 18.7607 2 24 2C29.2393 2 33.5 6.26312 33.5 11.5ZM5 37.625C5 29.2341 12.8138 23.375 24 23.375C35.1886 23.375 43 29.2341 43 37.625C43 38.9367 41.9367 40 40.625 40H7.375C6.06332 40 5 38.9367 5 37.625Z" fill="#6A7480"/>
</g>
<path d="M32.6999 34.8334L34.0212 36.1536C34.3478 36.48 34.3472 37.0096 34.0198 37.3352C33.6939 37.6594 33.167 37.6588 32.8418 37.3338L29.4984 33.9926L32.8418 30.6641C33.1679 30.3395 33.6952 30.34 34.0206 30.6653C34.3471 30.9917 34.3466 31.5212 34.0193 31.847L32.6932 33.1667H42.3337C41.9134 28.9626 38.3468 25.6667 34.0216 25.6667C29.4149 25.6667 25.667 29.4059 25.667 34.0001C25.667 38.5942 29.4149 42.3334 34.0216 42.3334C38.3468 42.3334 41.9134 39.0384 42.3337 34.8334H32.6999Z" fill="#F04747"/>
</g>
<defs>
<clipPath id="clip0_2053_12327">
<rect width="48" height="48" fill="white"/>
</clipPath>
</defs>
</svg>
