<svg width="48" height="48" viewBox="0 0 48 48" fill="none" xmlns="http://www.w3.org/2000/svg">
<g clip-path="url(#clip0_2053_12347)">
<mask id="mask0_2053_12347" style="mask-type:alpha" maskUnits="userSpaceOnUse" x="0" y="0" width="48" height="48">
<path d="M48 0H0V48H33.999V46.3333C32.496 46.3333 31.0938 45.6378 30.1776 44.5119C28.596 45.4999 26.0568 45.843 24.1161 43.8985C22.2282 42.0069 22.2503 38.9379 24.1152 37.0683L24.2663 36.9168C24.0724 36.3726 23.924 35.8066 23.8261 35.2234L23.8217 35.1971L23.8176 35.1707C23.4124 32.5417 25.1132 30.4085 27.2951 29.7626V28.2982C27.2951 24.5314 30.3967 21.6667 33.999 21.6667C35.6121 21.6667 37.1192 22.2363 38.2945 23.2046C40.1064 22.2989 42.3708 22.6012 43.8807 24.1115C45.773 26.0037 45.7507 29.0777 43.8814 30.9477L43.2879 31.5423C44.0299 32.515 44.417 33.7891 44.1701 35.2345L44.1697 35.2366C43.8033 37.3841 42.7465 39.3449 41.1737 40.8419C40.4569 41.5242 39.6498 42.0944 38.7805 42.5411H48V0Z" fill="#FF0000"/>
</mask>
<g mask="url(#mask0_2053_12347)">
<path fill-rule="evenodd" clip-rule="evenodd" d="M33.5 11.5C33.5 16.7369 29.2393 21 24 21C18.7631 21 14.5 16.7369 14.5 11.5C14.5 6.26312 18.7607 2 24 2C29.2393 2 33.5 6.26312 33.5 11.5ZM5 37.625C5 29.2341 12.8138 23.375 24 23.375C35.1886 23.375 43 29.2341 43 37.625C43 38.9367 41.9367 40 40.625 40H7.375C6.06332 40 5 38.9367 5 37.625Z" fill="#6A7480"/>
</g>
<path d="M31.2948 28.2983C31.2948 26.8422 32.5025 25.6667 33.9987 25.6667C35.3253 25.6667 36.4252 26.5908 36.6574 27.8153L31.2948 33.1897V28.2983Z" fill="#F04747"/>
<path d="M29.255 33.7756C29.417 33.9123 29.5234 34.1008 29.5552 34.3071C29.586 34.4785 29.6269 34.6465 29.6774 34.8106L28.2956 36.1954C28.0463 35.6858 27.8673 35.1373 27.7706 34.5615C27.6895 34.0352 28.1221 33.5615 28.6719 33.5615C28.8863 33.5629 29.0931 33.6389 29.255 33.7756Z" fill="#F04747"/>
<path d="M33.9987 36.1931C35.4949 36.1931 36.7027 35.0176 36.7027 33.5615V32.4779L41.052 28.12C41.3695 27.8025 41.3727 27.2608 41.052 26.9401C40.7263 26.6138 40.1919 26.6138 39.8662 26.9401L26.947 39.8932C26.6299 40.2109 26.6268 40.7522 26.947 41.073C27.2772 41.4039 27.7759 41.3594 28.1245 41.073L30.5151 38.6777C31.2763 39.1673 32.1532 39.5008 33.0974 39.6317V41.4562C33.0974 41.9387 33.503 42.3334 33.9987 42.3334C34.4944 42.3334 34.9 41.9387 34.9 41.4562V39.6317C36.2263 39.4473 37.4578 38.8563 38.4156 37.9446C39.3735 37.0329 40.0079 35.8479 40.2268 34.5615C40.3169 34.0352 39.8753 33.5615 39.3255 33.5615C38.8838 33.5615 38.5143 33.8773 38.4422 34.3071C38.0727 36.3685 36.225 37.9475 33.9987 37.9475C33.3687 37.9475 32.5006 37.6038 31.8777 37.3124L33.132 36.0556C33.4039 36.1448 33.6954 36.1931 33.9987 36.1931Z" fill="#F04747"/>
</g>
<defs>
<clipPath id="clip0_2053_12347">
<rect width="48" height="48" fill="white"/>
</clipPath>
</defs>
</svg>
