<svg width="48" height="48" viewBox="0 0 48 48" fill="none" xmlns="http://www.w3.org/2000/svg">
<g clip-path="url(#clip0_2053_12339)">
<mask id="mask0_2053_12339" style="mask-type:alpha" maskUnits="userSpaceOnUse" x="0" y="0" width="48" height="48">
<path d="M48 0H0V48H34V47.1667C30.7706 47.1667 28.2605 45.7642 26.4936 43.809C24.8296 41.9677 23.8638 39.6987 23.2771 37.7534C22.1029 33.8601 22.0833 29.9971 22.0833 29.6154C22.0833 27.8848 23.016 26.2795 24.5374 25.4285L31.6654 21.4412C33.1171 20.6307 34.8829 20.6307 36.3346 21.4412L43.4616 25.428L43.4626 25.4285C44.984 26.2795 45.9167 27.8849 45.9167 29.6154H48V0Z" fill="#FF0000"/>
</mask>
<g mask="url(#mask0_2053_12339)">
<path fill-rule="evenodd" clip-rule="evenodd" d="M33.5 11.5C33.5 16.7369 29.2393 21 24 21C18.7631 21 14.5 16.7369 14.5 11.5C14.5 6.26312 18.7607 2 24 2C29.2393 2 33.5 6.26312 33.5 11.5ZM5 37.625C5 29.2341 12.8138 23.375 24 23.375C35.1886 23.375 43 29.2341 43 37.625C43 38.9367 41.9367 40 40.625 40H7.375C6.06332 40 5 38.9367 5 37.625Z" fill="#6A7480"/>
</g>
<path fill-rule="evenodd" clip-rule="evenodd" d="M41.5094 28.9194L34.3844 24.9337C34.1446 24.7998 33.8548 24.7998 33.6149 24.9337L26.4899 28.9194C26.239 29.0597 26.083 29.3259 26.083 29.6153C26.083 30.1685 26.1733 43.1666 33.9997 43.1666C41.8261 43.1666 41.9163 30.1685 41.9163 29.6153C41.9163 29.3259 41.7604 29.0597 41.5094 28.9194ZM33.9997 29.6153C35.093 29.6153 35.9788 30.5073 35.9788 31.6081C35.9788 32.709 35.093 33.601 33.9997 33.601C32.9064 33.601 32.0205 32.709 32.0205 31.6081C32.0205 30.5073 32.9064 29.6153 33.9997 29.6153ZM31.4476 37.5874C31.2175 37.5874 31.0283 37.3999 31.0516 37.171C31.2139 35.5801 32.3201 34.5982 33.9997 34.5982C35.6793 34.5982 36.7854 35.5801 36.9477 37.171C36.9711 37.3999 36.7819 37.5874 36.5518 37.5874H31.4476Z" fill="#F04747"/>
</g>
<defs>
<clipPath id="clip0_2053_12339">
<rect width="48" height="48" fill="white"/>
</clipPath>
</defs>
</svg>
