<svg width="48" height="48" viewBox="0 0 48 48" fill="none" xmlns="http://www.w3.org/2000/svg">
<g clip-path="url(#clip0_2053_12371)">
<mask id="mask0_2053_12371" style="mask-type:alpha" maskUnits="userSpaceOnUse" x="0" y="0" width="48" height="48">
<path d="M48 0H0V48H38.4284V45.5851C36.2957 46.4241 34.2324 45.6624 33.0023 44.1887C31.8063 44.1834 30.5842 43.7294 29.5732 42.7075L29.5689 42.7032L27.6974 40.8059H26.5926C23.834 40.8059 21.6667 38.5535 21.6667 35.87V32.1266C21.6667 29.4431 23.834 27.1907 26.5926 27.1907H27.701L29.5732 25.2984C30.5805 24.2803 31.7974 23.8259 32.9892 23.8173C34.2285 22.3356 36.3147 21.6011 38.4041 22.4021L38.4081 22.4037C43.0608 24.1932 46.3333 28.7166 46.3333 33.9983H48V0Z" fill="#F04747"/>
</mask>
<g mask="url(#mask0_2053_12371)">
<path fill-rule="evenodd" clip-rule="evenodd" d="M33.5 11.5C33.5 16.7369 29.2393 21 24 21C18.7631 21 14.5 16.7369 14.5 11.5C14.5 6.26312 18.7607 2 24 2C29.2393 2 33.5 6.26312 33.5 11.5ZM5 37.625C5 29.2341 12.8138 23.375 24 23.375C35.1886 23.375 43 29.2341 43 37.625C43 38.9367 41.9367 40 40.625 40H7.375C6.06332 40 5 38.9367 5 37.625Z" fill="#6A7480"/>
</g>
<path d="M25.667 35.87V32.1265C25.667 31.6118 26.0837 31.1907 26.5929 31.1907H29.3707L32.417 28.1117C33.0003 27.5221 34.0003 27.9432 34.0003 28.7761V39.2297C34.0003 40.0627 33.0003 40.4838 32.417 39.8942L29.3707 36.8059H26.5929C26.0837 36.8059 25.667 36.3847 25.667 35.87ZM38.167 33.9983C38.1668 34.7824 37.95 35.5509 37.541 36.2173C37.3575 36.5163 37.1385 36.7895 36.89 37.0313C36.468 37.4418 35.8522 37.0758 35.8522 36.4849V31.5176C35.8522 30.9276 36.4666 30.5615 36.8891 30.9702C37.6763 31.7318 38.167 32.8043 38.167 33.9983ZM35.8522 41.064V40.8769C35.8522 40.5212 36.0837 40.2124 36.4077 40.0814C38.7966 39.1174 40.4818 36.7497 40.4818 33.9983C40.4818 31.2468 38.7966 28.8791 36.4077 27.9151C36.0744 27.7841 35.8522 27.4753 35.8522 27.1197V26.9325C35.8522 26.3429 36.4355 25.9311 36.9725 26.137C40.1114 27.3443 42.3337 30.4045 42.3337 33.9983C42.3337 37.592 40.1114 40.6523 36.9725 41.8595C36.4355 42.0748 35.8522 41.6536 35.8522 41.064Z" fill="#FAA61A"/>
</g>
<defs>
<clipPath id="clip0_2053_12371">
<rect width="48" height="48" fill="white"/>
</clipPath>
</defs>
</svg>
