<svg width="48" height="48" viewBox="0 0 48 48" fill="none" xmlns="http://www.w3.org/2000/svg">
<g clip-path="url(#clip0_2053_12363)">
<mask id="mask0_2053_12363" style="mask-type:alpha" maskUnits="userSpaceOnUse" x="0" y="0" width="48" height="48">
<path d="M48 0H0V48H28.7377V45.0833C27.8207 45.0833 26.9197 44.8426 26.1248 44.385L26.1198 44.3822C25.4682 44.0061 24.9342 43.4548 24.7849 43.3007L24.7849 43.3007C24.7712 43.2866 24.7608 43.2758 24.7538 43.2688L24.7474 43.2624C24.7388 43.2538 24.7264 43.2418 24.7107 43.2266C24.5431 43.0642 23.9962 42.5342 23.6207 41.8854L23.6187 41.8821C23.1588 41.0859 22.9167 40.1827 22.9167 39.2631C22.9167 38.3435 23.1588 37.4403 23.6187 36.6441L23.6207 36.6408C23.9961 35.9922 24.5479 35.4575 24.7088 35.3016L24.7091 35.3013C24.7241 35.2868 24.7356 35.2756 24.7433 35.2679L24.7528 35.2584L26.409 33.6141C25.8545 32.8153 25.2929 31.686 25.2929 30.2264C25.2929 28.5724 26.0141 27.3426 26.6291 26.537C27.1404 25.8673 27.8291 25.1797 28.4141 24.5957L28.4141 24.5957L28.5275 24.4824L28.6409 24.369C29.2252 23.7843 29.913 23.0959 30.583 22.5849C31.389 21.9702 32.6185 21.25 34.2715 21.25C35.9242 21.25 37.1537 21.9695 37.9606 22.5849C38.131 22.7149 38.3025 22.8563 38.4732 23.0046C38.7523 22.9635 39.0352 22.9448 39.3193 22.9493C40.2102 22.9634 41.0829 23.2045 41.8547 23.65L41.8579 23.6518C42.5067 24.0271 43.0368 24.5736 43.1993 24.7411L43.2001 24.742C43.2142 24.7564 43.2254 24.7681 43.2337 24.7764L43.2352 24.7779L43.2415 24.7842C43.2486 24.7913 43.2596 24.8019 43.2738 24.8157C43.4286 24.9655 43.9788 25.4982 44.3537 26.1458L44.3548 26.1478C44.8014 26.9201 45.0432 27.7937 45.0573 28.6858C45.0618 28.9698 45.0431 29.2526 45.002 29.5315C45.1476 29.6992 45.2865 29.8678 45.4142 30.0352C46.0296 30.8415 46.75 32.0712 46.75 33.7247H48V0Z" fill="#F04747"/>
</mask>
<g mask="url(#mask0_2053_12363)">
<path fill-rule="evenodd" clip-rule="evenodd" d="M33.5 11.5C33.5 16.7369 29.2393 21 24 21C18.7631 21 14.5 16.7369 14.5 11.5C14.5 6.26312 18.7607 2 24 2C29.2393 2 33.5 6.26312 33.5 11.5ZM5 37.625C5 29.2341 12.8138 23.375 24 23.375C35.1886 23.375 43 29.2341 43 37.625C43 38.9367 41.9367 40 40.625 40H7.375C6.06332 40 5 38.9367 5 37.625Z" fill="#6A7480"/>
</g>
<path d="M31.3556 27.3115C32.7306 25.9372 33.418 25.25 34.2718 25.25C35.1264 25.25 35.8139 25.9372 37.188 27.3115L37.8094 27.9324L38.6525 27.0954C38.838 26.9959 39.0459 26.9455 39.2565 26.9488C39.467 26.9521 39.6732 27.0091 39.8555 27.1144C39.9965 27.1959 40.1327 27.3313 40.4036 27.6028L40.4141 27.6133C40.678 27.8771 40.8118 28.0108 40.8923 28.1498C40.9977 28.3322 41.0548 28.5384 41.0581 28.749C41.0614 28.9596 41.0109 29.1676 40.9113 29.3532L40.0741 30.1956L40.6887 30.8098C42.0629 32.1833 42.7503 32.8705 42.7503 33.7247C42.7503 34.5781 42.0629 35.2652 40.6879 36.6396C39.313 38.0139 38.6255 38.701 37.7717 38.701C36.9172 38.701 36.2297 38.0139 34.8555 36.6396L34.261 36.0454L29.9047 40.4292C29.6338 40.7 29.4976 40.8361 29.3566 40.9177C29.1685 41.0262 28.9552 41.0833 28.738 41.0833C28.5209 41.0833 28.3075 41.0262 28.1195 40.9177C27.9795 40.8372 27.8458 40.7035 27.5818 40.4396L27.5714 40.4292C27.2997 40.1585 27.1643 40.0223 27.0827 39.8814C26.9742 39.6934 26.917 39.4802 26.917 39.2631C26.917 39.046 26.9742 38.8328 27.0827 38.6448C27.1643 38.5039 27.2997 38.3685 27.5714 38.097L31.9604 33.7394L31.3549 33.1412L31.3491 33.1355C29.9796 31.7658 29.2932 31.0794 29.2932 30.2264C29.2932 29.3729 29.9807 28.6858 31.3556 27.3115Z" fill="#F04747"/>
</g>
<defs>
<clipPath id="clip0_2053_12363">
<rect width="48" height="48" fill="white"/>
</clipPath>
</defs>
</svg>
