<svg width="48" height="48" viewBox="0 0 48 48" fill="none" xmlns="http://www.w3.org/2000/svg">
<g clip-path="url(#clip0_1971_11544)">
<mask id="mask0_1971_11544" style="mask-type:alpha" maskUnits="userSpaceOnUse" x="0" y="0" width="48" height="48">
<path d="M48 0H0V48H24.0993V43.6923C22.9203 42.5131 22.4455 40.8007 22.85 39.1822L23.501 36.5779C23.8738 35.0866 24.6223 33.7156 25.6752 32.5956L32.084 25.7789L33.7272 24.1378L33.7284 24.1367L33.7293 24.1358C36.4684 21.3985 40.9161 21.3992 43.6544 24.1378L43.6554 24.1388C45.7777 26.2629 46.255 29.4144 45.085 32H48V0Z" fill="#FAA61A"/>
</mask>
<g mask="url(#mask0_1971_11544)">
<path d="M21.18 9.18C20.42 8.42 19.4 8 18.34 8H8C5.8 8 4.02 9.8 4.02 12L4 36C4 38.2 5.8 40 8 40H40C42.2 40 44 38.2 44 36V16C44 13.8 42.2 12 40 12H24L21.18 9.18Z" fill="#6A7480"/>
</g>
<path fill-rule="evenodd" clip-rule="evenodd" d="M40.2854 31.7759L40.8254 31.2366C42.0022 30.0596 42.0022 28.1437 40.8254 26.966C39.6486 25.789 37.7324 25.789 36.5555 26.966L36.0163 27.5061L40.2854 31.7759ZM34.9549 28.5646L28.5286 34.9937L32.7984 39.2631L39.2248 32.8339L34.9549 28.5646ZM27.6401 41.0612L31.5072 40.0951L27.6971 36.2843L26.7303 40.1521C26.6666 40.4071 26.7416 40.6779 26.9276 40.864C27.1136 41.05 27.3843 41.1243 27.6401 41.0612Z" fill="#FAA61A"/>
</g>
<defs>
<clipPath id="clip0_1971_11544">
<rect width="48" height="48" fill="white"/>
</clipPath>
</defs>
</svg>
