<svg width="48" height="48" viewBox="0 0 48 48" fill="none" xmlns="http://www.w3.org/2000/svg">
<g clip-path="url(#clip0_1974_11398)">
<mask id="mask0_1974_11398" style="mask-type:alpha" maskUnits="userSpaceOnUse" x="0" y="0" width="48" height="48">
<path d="M48 0H0V48H28.537V45.9167C25.8932 45.9167 23.75 43.7734 23.75 41.1296V26.875C23.75 24.2536 25.868 22.0833 28.537 22.0833H35.6204C37.7103 22.0833 39.4624 23.414 40.1243 25.25H41.1296C43.7987 25.25 45.9167 27.4203 45.9167 30.0417H48V0Z" fill="#FF0000"/>
</mask>
<g mask="url(#mask0_1974_11398)">
<path d="M21.18 9.18C20.42 8.42 19.4 8 18.34 8H8C5.8 8 4.02 9.8 4.02 12L4 36C4 38.2 5.8 40 8 40H40C42.2 40 44 38.2 44 36V16C44 13.8 42.2 12 40 12H24L21.18 9.18Z" fill="#6A7480"/>
</g>
<path d="M41.1296 29.2499H36.4074V26.8749C36.4074 26.4379 36.0556 26.0833 35.6204 26.0833H28.537C28.1018 26.0833 27.75 26.4379 27.75 26.8749V41.1295C27.75 41.5642 28.1024 41.9166 28.537 41.9166C28.9717 41.9166 29.3241 41.5642 29.3241 41.1295V35.5832H33.7205L31.9158 37.3985C31.6907 37.625 31.6238 37.9654 31.745 38.2615C31.8662 38.5575 32.1543 38.7499 32.4722 38.7499H41.1296C41.5649 38.7499 41.9167 38.3953 41.9167 37.9583V30.0416C41.9167 29.6046 41.5649 29.2499 41.1296 29.2499Z" fill="#FAA61A"/>
</g>
<defs>
<clipPath id="clip0_1974_11398">
<rect width="48" height="48" fill="white"/>
</clipPath>
</defs>
</svg>
