<svg width="48" height="48" viewBox="0 0 48 48" fill="none" xmlns="http://www.w3.org/2000/svg">
<path d="M9.02521 32.0728C7.79426 33.305 7.09014 36.8114 6.74126 39.1933C6.56187 40.4181 7.58201 41.4386 8.80686 41.2596C11.1892 40.9114 14.6964 40.2079 15.9284 38.9756C16.5632 38.3419 16.9795 37.5758 17.1915 36.7664C17.336 36.2143 16.8739 35.7301 16.3032 35.7273L12.2915 35.7074L12.2706 31.6964C12.2676 31.1259 11.7834 30.6639 11.2316 30.8089C10.4237 31.0211 9.65977 31.438 9.02521 32.0728Z" fill="#F04747"/>
<path fill-rule="evenodd" clip-rule="evenodd" d="M12.4825 25.2488C12.0922 25.6393 12.0923 26.2724 12.4828 26.6629L21.338 35.5166C21.7286 35.907 22.3617 35.907 22.7522 35.5166L24.6124 33.6565L26.1322 40.242C26.3088 41.0073 27.2583 41.2796 27.8137 40.7242L29.454 39.0839C29.6415 38.8964 29.7469 38.642 29.7469 38.3768V28.5217L36.1652 22.1034C38.397 19.8717 42.5691 14.9228 41.9346 9.28301C41.7449 7.59613 40.4033 6.25472 38.7165 6.06493C33.076 5.43031 28.1281 9.60261 25.8967 11.8349L19.4777 18.2527H9.62282C9.3576 18.2527 9.10324 18.358 8.9157 18.5456L7.2753 20.186C6.71992 20.7414 6.99224 21.6909 7.75756 21.8675L14.3432 23.3872L12.4825 25.2488ZM35.6208 16.0045C35.6208 18.0097 33.9954 19.6352 31.9901 19.6352C29.9849 19.6352 28.3594 18.0097 28.3594 16.0045C28.3594 13.9993 29.9849 12.3738 31.9901 12.3738C33.9954 12.3738 35.6208 13.9993 35.6208 16.0045Z" fill="#F04747"/>
</svg>
