<svg width="48" height="48" viewBox="0 0 48 48" fill="none" xmlns="http://www.w3.org/2000/svg">
<path d="M24 4C12.9528 4 4 12.9528 4 24C4 35.0472 12.9528 44 24 44C35.0472 44 44 35.0472 44 24C44 12.9528 35.0472 4 24 4ZM24 11.2C24.8844 11.2 25.6 11.9156 25.6 12.8V23.0752L33.125 27.4252C33.8906 27.8658 34.1406 28.8346 33.7 29.6002C33.2594 30.366 32.2906 30.6158 31.525 30.1752L23.3746 25.4752C23.312 25.4502 23.2558 25.4096 23.1996 25.3752C22.7214 25.0972 22.3996 24.5908 22.3996 24.0002V12.8002C22.3996 11.9158 23.1156 11.2 24 11.2Z" fill="#F04747"/>
</svg>
