<svg width="48" height="48" viewBox="0 0 48 48" fill="none" xmlns="http://www.w3.org/2000/svg">
<path d="M30.3333 8.20864V5.81818C30.3333 4.81403 29.5232 4 28.5238 4H19.4762C18.4768 4 17.6667 4.81403 17.6667 5.81818V8.20864H7.09535C5.93812 8.20864 5 9.15125 5 10.314C5 11.4768 5.93812 12.4194 7.09535 12.4194H40.9047C42.0619 12.4194 43 11.4768 43 10.314C43 9.15125 42.0619 8.20864 40.9047 8.20864H30.3333Z" fill="#F04747"/>
<path d="M9.22222 14.5248V39.7893C9.22222 42.1094 11.1159 44 13.4444 44H34.5556C36.8841 44 38.7778 42.1094 38.7778 39.7893V14.5248H9.22222ZM21.8889 33.4594C21.8889 34.6309 20.9437 35.5806 19.7778 35.5806C18.6118 35.5806 17.6667 34.6309 17.6667 33.4594V25.0696C17.6667 23.8981 18.6118 22.9484 19.7778 22.9484C20.9437 22.9484 21.8889 23.8981 21.8889 25.0696V33.4594ZM30.3333 33.4594C30.3333 34.6309 29.3882 35.5806 28.2222 35.5806C27.0563 35.5806 26.1111 34.6309 26.1111 33.4594V25.0696C26.1111 23.8981 27.0563 22.9484 28.2222 22.9484C29.3882 22.9484 30.3333 23.8981 30.3333 25.0696V33.4594Z" fill="#F04747"/>
</svg>
