<svg width="48" height="48" viewBox="0 0 48 48" fill="none" xmlns="http://www.w3.org/2000/svg">
<g clip-path="url(#clip0_2010_11381)">
<mask id="mask0_2010_11381" style="mask-type:alpha" maskUnits="userSpaceOnUse" x="0" y="0" width="48" height="48">
<path d="M48 0H0V48H28.537V45.9167C25.8932 45.9167 23.75 43.7734 23.75 41.1296V26.875C23.75 24.2536 25.868 22.0833 28.537 22.0833H35.6204C37.7103 22.0833 39.4624 23.414 40.1243 25.25H41.1296C43.7987 25.25 45.9167 27.4203 45.9167 30.0417H48V0Z" fill="#FF0000"/>
</mask>
<g mask="url(#mask0_2010_11381)">
<path fill-rule="evenodd" clip-rule="evenodd" d="M14.7286 32.8556H5.40325C4.58017 32.8556 3.79081 32.5219 3.20878 31.9281C2.62678 31.3343 2.2998 30.5288 2.2998 29.6888V18.0778C2.2998 14.1585 3.82565 10.3997 6.5417 7.62835C9.25775 4.85698 12.9415 3.30005 16.7825 3.30005C20.6236 3.30005 24.3074 4.85698 27.0234 7.62835C28.2481 8.87802 29.2308 10.3285 29.9407 11.9039C33.1359 12.3872 36.0958 13.9498 38.334 16.3622C40.8805 19.1068 42.2998 22.7426 42.2998 26.5223V38.1333C42.2998 38.9732 41.973 39.7787 41.3908 40.3725C40.8088 40.9663 40.0194 41.3 39.1965 41.3H27.817C24.8218 41.3 21.9003 40.3527 19.4545 38.5886C17.4162 37.1186 15.7917 35.1412 14.7286 32.8556ZM9.46767 10.6139C11.4077 8.63437 14.0389 7.52227 16.7825 7.52227C19.5262 7.52227 22.1574 8.63437 24.0975 10.6139C26.0374 12.5935 27.1274 15.2783 27.1274 18.0778C27.1274 20.8773 26.0374 23.5622 24.0975 25.5418C22.1574 27.5212 19.5262 28.6334 16.7826 28.6334H16.1264C16.1154 28.6332 16.1043 28.6332 16.0932 28.6334H6.43774V18.0778C6.43774 15.2783 7.52763 12.5935 9.46767 10.6139ZM19.369 32.618C20.0435 33.5904 20.8784 34.4452 21.843 35.1408C23.5902 36.4012 25.6775 37.0778 27.817 37.0778H38.1619V26.5223C38.1619 23.8225 37.148 21.2255 35.3291 19.265C34.1738 18.0199 32.7495 17.0916 31.187 16.5422C31.2391 17.0501 31.2653 17.5625 31.2653 18.0778C31.2653 21.9971 29.7395 25.756 27.0234 28.5273C24.9251 30.6684 22.249 32.0846 19.369 32.618Z" fill="#6A7480"/>
</g>
<path d="M41.1296 29.2499H36.4074V26.8749C36.4074 26.4379 36.0556 26.0833 35.6204 26.0833H28.537C28.1018 26.0833 27.75 26.4379 27.75 26.8749V41.1295C27.75 41.5642 28.1024 41.9166 28.537 41.9166C28.9717 41.9166 29.3241 41.5642 29.3241 41.1295V35.5832H33.7205L31.9158 37.3985C31.6907 37.625 31.6238 37.9654 31.745 38.2615C31.8662 38.5575 32.1543 38.7499 32.4722 38.7499H41.1296C41.5649 38.7499 41.9167 38.3953 41.9167 37.9583V30.0416C41.9167 29.6046 41.5649 29.2499 41.1296 29.2499Z" fill="#43B581"/>
</g>
<defs>
<clipPath id="clip0_2010_11381">
<rect width="48" height="48" fill="white"/>
</clipPath>
</defs>
</svg>
