<svg width="48" height="48" viewBox="0 0 48 48" fill="none" xmlns="http://www.w3.org/2000/svg">
<g clip-path="url(#clip0_2010_11373)">
<mask id="mask0_2010_11373" style="mask-type:alpha" maskUnits="userSpaceOnUse" x="0" y="0" width="48" height="48">
<path d="M48 0H0V48H29.6019V46.3333C26.4314 46.3333 23.8426 43.7637 23.8426 40.5789V32.0497C22.7652 31.1521 22.0833 29.7995 22.0833 28.2975C22.0833 25.6219 24.2471 23.4203 26.9564 23.4203H28.4288C29.2975 22.3527 30.6212 21.6667 32.1151 21.6667H35.8849C37.3788 21.6667 38.7025 22.3527 39.5712 23.4203H41.0436C43.7529 23.4203 45.9167 25.6219 45.9167 28.2975H48V0Z" fill="#F04747"/>
</mask>
<g mask="url(#mask0_2010_11373)">
<path fill-rule="evenodd" clip-rule="evenodd" d="M14.7286 32.8556H5.40325C4.58017 32.8556 3.79081 32.5219 3.20878 31.9281C2.62678 31.3343 2.2998 30.5288 2.2998 29.6888V18.0778C2.2998 14.1585 3.82565 10.3997 6.5417 7.62835C9.25775 4.85698 12.9415 3.30005 16.7825 3.30005C20.6236 3.30005 24.3074 4.85698 27.0234 7.62835C28.2481 8.87802 29.2308 10.3285 29.9407 11.9039C33.1359 12.3872 36.0958 13.9498 38.334 16.3622C40.8805 19.1068 42.2998 22.7426 42.2998 26.5223V38.1333C42.2998 38.9732 41.973 39.7787 41.3908 40.3725C40.8088 40.9663 40.0194 41.3 39.1965 41.3H27.817C24.8218 41.3 21.9003 40.3527 19.4545 38.5886C17.4162 37.1186 15.7917 35.1412 14.7286 32.8556ZM9.46767 10.6139C11.4077 8.63437 14.0389 7.52227 16.7825 7.52227C19.5262 7.52227 22.1574 8.63437 24.0975 10.6139C26.0374 12.5935 27.1274 15.2783 27.1274 18.0778C27.1274 20.8773 26.0374 23.5622 24.0975 25.5418C22.1574 27.5212 19.5262 28.6334 16.7826 28.6334H16.1264C16.1154 28.6332 16.1043 28.6332 16.0932 28.6334H6.43774V18.0778C6.43774 15.2783 7.52763 12.5935 9.46767 10.6139ZM19.369 32.618C20.0435 33.5904 20.8784 34.4452 21.843 35.1408C23.5902 36.4012 25.6775 37.0778 27.817 37.0778H38.1619V26.5223C38.1619 23.8225 37.148 21.2255 35.3291 19.265C34.1738 18.0199 32.7495 17.0916 31.187 16.5422C31.2391 17.0501 31.2653 17.5625 31.2653 18.0778C31.2653 21.9971 29.7395 25.756 27.0234 28.5273C24.9251 30.6684 22.249 32.0846 19.369 32.618Z" fill="#6A7480"/>
</g>
<path d="M36.6386 27.4203V26.4243C36.6386 26.0059 36.301 25.6667 35.8846 25.6667H32.1148C31.6983 25.6667 31.3608 26.0059 31.3608 26.4243V27.4203H26.9561C26.4739 27.4203 26.083 27.8131 26.083 28.2976C26.083 28.7821 26.4739 29.1748 26.9561 29.1748H41.0433C41.5255 29.1748 41.9163 28.7821 41.9163 28.2976C41.9163 27.8131 41.5255 27.4203 41.0433 27.4203H36.6386Z" fill="#F04747"/>
<path d="M27.8423 30.0521V40.5789C27.8423 41.5457 28.6313 42.3334 29.6015 42.3334H38.3978C39.3681 42.3334 40.1571 41.5457 40.1571 40.5789V30.0521H27.8423ZM33.12 37.9415C33.12 38.4296 32.7262 38.8253 32.2404 38.8253C31.7546 38.8253 31.3608 38.4296 31.3608 37.9415V34.4457C31.3608 33.9576 31.7546 33.5619 32.2404 33.5619C32.7262 33.5619 33.12 33.9576 33.12 34.4457V37.9415ZM36.6386 37.9415C36.6386 38.4296 36.2447 38.8253 35.7589 38.8253C35.2731 38.8253 34.8793 38.4296 34.8793 37.9415V34.4457C34.8793 33.9576 35.2731 33.5619 35.7589 33.5619C36.2447 33.5619 36.6386 33.9576 36.6386 34.4457V37.9415Z" fill="#F04747"/>
</g>
<defs>
<clipPath id="clip0_2010_11373">
<rect width="48" height="48" fill="white"/>
</clipPath>
</defs>
</svg>
