<svg width="48" height="48" viewBox="0 0 48 48" fill="none" xmlns="http://www.w3.org/2000/svg">
<path fill-rule="evenodd" clip-rule="evenodd" d="M41.0236 19.6H41.6C44.0301 19.6 46 21.5699 46 24C46 26.4301 44.0301 28.4 41.6 28.4H41.0258C40.4956 30.4482 39.62 32.3556 38.443 34.0408L39.4015 35C40.6158 36.2151 40.6155 38.1845 39.4008 39.3992C38.1854 40.6146 36.2149 40.6142 35 39.3985L34.043 38.4408C32.3534 39.6178 30.4504 40.4956 28.4 41.0236V41.6C28.4 44.0301 26.4301 46 24 46C21.5699 46 19.6 44.0301 19.6 41.6V41.0236C17.5518 40.4956 15.6466 39.6178 13.9592 38.4408L13 39.4C11.785 40.615 9.81503 40.615 8.6 39.4C7.38497 38.185 7.38497 36.215 8.6 35L9.5592 34.0408C8.3822 32.3578 7.5044 30.4504 6.9764 28.4H6.4C3.96995 28.4 2 26.4301 2 24C2 21.5699 3.96995 19.6 6.4 19.6H6.9764C7.5044 17.5496 8.38 15.6444 9.5592 13.9592L8.6 13C7.38497 11.785 7.38497 9.81503 8.6 8.6C9.81503 7.38497 11.785 7.38497 13 8.6L13.9592 9.5592C15.6444 8.38 17.5496 7.5044 19.6 6.9764V6.4C19.6 3.96995 21.5699 2 24 2C26.4301 2 28.4 3.96995 28.4 6.4V6.9742C30.4504 7.5044 32.3534 8.38 34.043 9.557L35 8.59933C36.2149 7.38358 38.1854 7.38324 39.4008 8.59857C40.6155 9.81329 40.6158 11.7826 39.4015 12.9978L38.4408 13.9592C39.6178 15.6444 40.4956 17.5518 41.0236 19.6ZM24 32.8C28.86 32.8 32.8 28.86 32.8 24C32.8 19.1399 28.86 15.2 24 15.2C19.1399 15.2 15.2 19.1399 15.2 24C15.2 28.86 19.1399 32.8 24 32.8Z" fill="#FAA61A"/>
</svg>
