<svg width="48" height="48" viewBox="0 0 48 48" fill="none" xmlns="http://www.w3.org/2000/svg">
<g clip-path="url(#clip0_2010_11422)">
<mask id="mask0_2010_11422" style="mask-type:alpha" maskUnits="userSpaceOnUse" x="0" y="0" width="48" height="48">
<path d="M48 0H0V48H29.6019V46.3333C26.4314 46.3333 23.8426 43.7637 23.8426 40.5789V32.0497C22.7652 31.1521 22.0833 29.7995 22.0833 28.2975C22.0833 25.6219 24.2471 23.4203 26.9564 23.4203H28.4288C29.2975 22.3527 30.6212 21.6667 32.1151 21.6667H35.8849C37.3788 21.6667 38.7025 22.3527 39.5712 23.4203H41.0436C43.7529 23.4203 45.9167 25.6219 45.9167 28.2975H48V0Z" fill="#F04747"/>
</mask>
<g mask="url(#mask0_2010_11422)">
<path fill-rule="evenodd" clip-rule="evenodd" d="M26.2569 7.40521C22.5308 7.17204 18.8476 8.30716 15.8991 10.5974C12.9506 12.8876 10.9396 16.1754 10.2437 19.8435C9.54784 23.5115 10.2149 27.3075 12.1197 30.5185C12.4477 31.0714 12.5335 31.7351 12.3569 32.3533L11.0411 36.9585L15.6466 35.6429C16.2648 35.4663 16.9284 35.5521 17.4814 35.8801C20.6924 37.7849 24.4882 38.4519 28.1562 37.7559C31.8241 37.0601 35.1121 35.049 37.4024 32.1007C39.6926 29.1521 40.8277 25.4689 40.5945 21.7428C40.3613 18.0166 38.7759 14.5037 36.1359 11.8638C33.4959 9.22379 29.983 7.63838 26.2569 7.40521ZM13.0311 6.90508C16.8791 3.91613 21.686 2.43471 26.5489 2.73902C31.4119 3.04332 35.9964 5.11244 39.4418 8.55779C42.8873 12.0031 44.9564 16.5878 45.2607 21.4508C45.5651 26.3137 44.0836 31.1206 41.0948 34.9686C38.1058 38.8164 33.8149 41.4411 29.0277 42.3493C24.5796 43.1934 19.9876 42.5015 15.9976 40.405L10.8291 41.8815C10.1756 42.0683 9.48306 42.0772 8.82492 41.9064C8.16679 41.7358 7.56696 41.3922 7.0871 40.9122C6.60712 40.4321 6.26363 39.8321 6.09311 39.1739C5.92266 38.5159 5.93136 37.825 6.11778 37.172L7.5948 32.0022C5.49834 28.0122 4.80648 23.42 5.65035 18.972C6.55857 14.1849 9.18309 9.89404 13.0311 6.90508Z" fill="#6A7480"/>
</g>
<path d="M36.6386 27.4203V26.4243C36.6386 26.0059 36.301 25.6667 35.8846 25.6667H32.1148C31.6983 25.6667 31.3608 26.0059 31.3608 26.4243V27.4203H26.9561C26.4739 27.4203 26.083 27.8131 26.083 28.2976C26.083 28.7821 26.4739 29.1748 26.9561 29.1748H41.0433C41.5255 29.1748 41.9163 28.7821 41.9163 28.2976C41.9163 27.8131 41.5255 27.4203 41.0433 27.4203H36.6386Z" fill="#F04747"/>
<path d="M27.8423 30.0521V40.5789C27.8423 41.5457 28.6313 42.3334 29.6015 42.3334H38.3978C39.3681 42.3334 40.1571 41.5457 40.1571 40.5789V30.0521H27.8423ZM33.12 37.9415C33.12 38.4296 32.7262 38.8253 32.2404 38.8253C31.7546 38.8253 31.3608 38.4296 31.3608 37.9415V34.4457C31.3608 33.9576 31.7546 33.5619 32.2404 33.5619C32.7262 33.5619 33.12 33.9576 33.12 34.4457V37.9415ZM36.6386 37.9415C36.6386 38.4296 36.2447 38.8253 35.7589 38.8253C35.2731 38.8253 34.8793 38.4296 34.8793 37.9415V34.4457C34.8793 33.9576 35.2731 33.5619 35.7589 33.5619C36.2447 33.5619 36.6386 33.9576 36.6386 34.4457V37.9415Z" fill="#F04747"/>
</g>
<defs>
<clipPath id="clip0_2010_11422">
<rect width="48" height="48" fill="white"/>
</clipPath>
</defs>
</svg>
