<svg width="48" height="48" viewBox="0 0 48 48" fill="none" xmlns="http://www.w3.org/2000/svg">
<path fill-rule="evenodd" clip-rule="evenodd" d="M26.2569 7.40521C22.5308 7.17204 18.8476 8.30716 15.8991 10.5974C12.9506 12.8876 10.9396 16.1754 10.2437 19.8435C9.54784 23.5115 10.2149 27.3075 12.1197 30.5185C12.4477 31.0714 12.5335 31.7351 12.3569 32.3533L11.0411 36.9585L15.6466 35.6429C16.2648 35.4663 16.9284 35.5521 17.4814 35.8801C20.6924 37.7849 24.4882 38.4519 28.1562 37.7559C31.8241 37.0601 35.1121 35.049 37.4024 32.1007C39.6926 29.1521 40.8277 25.4689 40.5945 21.7428C40.3613 18.0166 38.7759 14.5037 36.1359 11.8638C33.4959 9.22379 29.983 7.63838 26.2569 7.40521ZM13.0311 6.90508C16.8791 3.91613 21.686 2.43471 26.5489 2.73902C31.4119 3.04332 35.9964 5.11244 39.4418 8.55779C42.8873 12.0031 44.9564 16.5878 45.2607 21.4508C45.5651 26.3137 44.0836 31.1206 41.0948 34.9686C38.1058 38.8164 33.8149 41.4411 29.0277 42.3493C24.5796 43.1934 19.9876 42.5015 15.9976 40.405L10.8291 41.8815C10.1756 42.0683 9.48306 42.0772 8.82492 41.9064C8.16679 41.7358 7.56696 41.3922 7.0871 40.9122C6.60712 40.4321 6.26363 39.8321 6.09311 39.1739C5.92266 38.5159 5.93136 37.825 6.11778 37.172L7.5948 32.0022C5.49834 28.0122 4.80648 23.42 5.65035 18.972C6.55857 14.1849 9.18309 9.89404 13.0311 6.90508Z" fill="#F04747"/>
</svg>
