<svg width="48" height="48" viewBox="0 0 48 48" fill="none" xmlns="http://www.w3.org/2000/svg">
<g clip-path="url(#clip0_2015_11645)">
<mask id="mask0_2015_11645" style="mask-type:alpha" maskUnits="userSpaceOnUse" x="0" y="0" width="48" height="48">
<path d="M48 0H0V48H29.5357V46.5417C26.4183 46.5417 23.75 44.0417 23.75 40.7917V34.6667C23.75 32.9574 24.4874 31.4566 25.6394 30.4172C25.5715 30.0944 25.5357 29.7597 25.5357 29.4167C25.5357 24.7188 29.4072 21.0417 34 21.0417C38.5956 21.0417 42.4643 24.7199 42.4643 29.4167V30.5131C43.5567 31.5479 44.25 33.0093 44.25 34.6667H48V0Z" fill="#06C270"/>
</mask>
<g mask="url(#mask0_2015_11645)">
<path fill-rule="evenodd" clip-rule="evenodd" d="M26.2569 7.40521C22.5308 7.17204 18.8476 8.30716 15.8991 10.5974C12.9506 12.8876 10.9396 16.1754 10.2437 19.8435C9.54784 23.5115 10.2149 27.3075 12.1197 30.5185C12.4477 31.0714 12.5335 31.7351 12.3569 32.3533L11.0411 36.9585L15.6466 35.6429C16.2648 35.4663 16.9284 35.5521 17.4814 35.8801C20.6924 37.7849 24.4882 38.4519 28.1562 37.7559C31.8241 37.0601 35.1121 35.049 37.4024 32.1007C39.6926 29.1521 40.8277 25.4689 40.5945 21.7428C40.3613 18.0166 38.7759 14.5037 36.1359 11.8638C33.4959 9.22379 29.983 7.63838 26.2569 7.40521ZM13.0311 6.90508C16.8791 3.91613 21.686 2.43471 26.5489 2.73902C31.4119 3.04332 35.9964 5.11244 39.4418 8.55779C42.8873 12.0031 44.9564 16.5878 45.2607 21.4508C45.5651 26.3137 44.0836 31.1206 41.0948 34.9686C38.1058 38.8164 33.8149 41.4411 29.0277 42.3493C24.5796 43.1934 19.9876 42.5015 15.9976 40.405L10.8291 41.8815C10.1756 42.0683 9.48306 42.0772 8.82492 41.9064C8.16679 41.7358 7.56696 41.3922 7.0871 40.9122C6.60712 40.4321 6.26363 39.8321 6.09311 39.1739C5.92266 38.5159 5.93136 37.825 6.11778 37.172L7.5948 32.0022C5.49834 28.0122 4.80648 23.42 5.65035 18.972C6.55857 14.1849 9.18309 9.89404 13.0311 6.90508Z" fill="#6A7480"/>
</g>
<path fill-rule="evenodd" clip-rule="evenodd" d="M29.5357 29.4167C29.5357 27.0044 31.5393 25.0417 34 25.0417C36.4625 25.0417 38.4643 27.0044 38.4643 29.4167V32.9167C39.4491 32.9167 40.25 33.7007 40.25 34.6667V40.7917C40.25 41.7569 39.4491 42.5417 38.4643 42.5417H29.5357C28.5509 42.5417 27.75 41.7569 27.75 40.7917V34.6667C27.75 33.7007 28.5509 32.9167 29.5357 32.9167H36.6786V29.4167C36.6786 27.9695 35.4768 26.7917 34 26.7917C32.5232 26.7917 31.3214 27.9695 31.3214 29.4167C31.3214 29.877 30.9483 30.2501 30.4881 30.2501H30.369C29.9088 30.2501 29.5357 29.877 29.5357 29.4167ZM35.3393 37.7292C35.3393 38.4537 34.7393 39.0417 34 39.0417C33.2607 39.0417 32.6607 38.4537 32.6607 37.7292C32.6607 37.0047 33.2607 36.4167 34 36.4167C34.7393 36.4167 35.3393 37.0047 35.3393 37.7292Z" fill="#06C270"/>
</g>
<defs>
<clipPath id="clip0_2015_11645">
<rect width="48" height="48" fill="white"/>
</clipPath>
</defs>
</svg>
