<svg width="48" height="48" viewBox="0 0 48 48" fill="none" xmlns="http://www.w3.org/2000/svg">
<g clip-path="url(#clip0_2010_11418)">
<mask id="mask0_2010_11418" style="mask-type:alpha" maskUnits="userSpaceOnUse" x="0" y="0" width="48" height="48">
<path d="M48 0H0V48H34V46.3333C27.1959 46.3333 21.6667 40.8041 21.6667 34C21.6667 27.1959 27.1959 21.6667 34 21.6667C40.8041 21.6667 46.3333 27.1959 46.3333 34H48V0Z" fill="#FF0000"/>
</mask>
<g mask="url(#mask0_2010_11418)">
<path fill-rule="evenodd" clip-rule="evenodd" d="M26.2569 7.40521C22.5308 7.17204 18.8476 8.30716 15.8991 10.5974C12.9506 12.8876 10.9396 16.1754 10.2437 19.8435C9.54784 23.5115 10.2149 27.3075 12.1197 30.5185C12.4477 31.0714 12.5335 31.7351 12.3569 32.3533L11.0411 36.9585L15.6466 35.6429C16.2648 35.4663 16.9284 35.5521 17.4814 35.8801C20.6924 37.7849 24.4882 38.4519 28.1562 37.7559C31.8241 37.0601 35.1121 35.049 37.4024 32.1007C39.6926 29.1521 40.8277 25.4689 40.5945 21.7428C40.3613 18.0166 38.7759 14.5037 36.1359 11.8638C33.4959 9.22379 29.983 7.63838 26.2569 7.40521ZM13.0311 6.90508C16.8791 3.91613 21.686 2.43471 26.5489 2.73902C31.4119 3.04332 35.9964 5.11244 39.4418 8.55779C42.8873 12.0031 44.9564 16.5878 45.2607 21.4508C45.5651 26.3137 44.0836 31.1206 41.0948 34.9686C38.1058 38.8164 33.8149 41.4411 29.0277 42.3493C24.5796 43.1934 19.9876 42.5015 15.9976 40.405L10.8291 41.8815C10.1756 42.0683 9.48306 42.0772 8.82492 41.9064C8.16679 41.7358 7.56696 41.3922 7.0871 40.9122C6.60712 40.4321 6.26363 39.8321 6.09311 39.1739C5.92266 38.5159 5.93136 37.825 6.11778 37.172L7.5948 32.0022C5.49834 28.0122 4.80648 23.42 5.65035 18.972C6.55857 14.1849 9.18309 9.89404 13.0311 6.90508Z" fill="#6A7480"/>
</g>
<path d="M34.0003 25.6667C29.4053 25.6667 25.667 29.4051 25.667 34.0001C25.667 38.5951 29.4053 42.3334 34.0003 42.3334C38.5953 42.3334 42.3337 38.5951 42.3337 34.0001C42.3337 29.4051 38.5953 25.6667 34.0003 25.6667ZM38.167 34.0001C38.167 34.4603 37.7939 34.8334 37.3337 34.8334H34.8337V37.3334C34.8337 37.7937 34.4606 38.1668 34.0003 38.1668C33.5401 38.1668 33.167 37.7937 33.167 37.3334V34.8334H30.667C30.2068 34.8334 29.8337 34.4603 29.8337 34.0001C29.8337 33.5399 30.2068 33.1668 30.667 33.1668H33.167V30.6667C33.167 30.2065 33.5401 29.8334 34.0003 29.8334C34.4606 29.8334 34.8337 30.2065 34.8337 30.6667V33.1668H37.3337C37.7939 33.1668 38.167 33.5399 38.167 34.0001Z" fill="#43B581"/>
</g>
<defs>
<clipPath id="clip0_2010_11418">
<rect width="48" height="48" fill="white"/>
</clipPath>
</defs>
</svg>
