<svg width="48" height="48" viewBox="0 0 48 48" fill="none" xmlns="http://www.w3.org/2000/svg">
<path d="M22.8 2.03901C13.24 2.65902 6 11.0392 6 20.6195V33.9998C6 37.3199 8.68 40 12 40H14C16.2 40 18 38.2 18 35.9999V27.9997C18 25.7996 16.2 23.9996 14 23.9996H10V20.5795C10 12.8993 15.92 6.21911 23.58 5.99911C25.4536 5.9426 27.3195 6.26298 29.067 6.94124C30.8144 7.6195 32.4079 8.64184 33.7527 9.94759C35.0976 11.2533 36.1666 12.8159 36.8962 14.5426C37.6258 16.2693 38.0011 18.125 38 19.9995V23.9996H34C31.8 23.9996 30 25.7996 30 27.9997V35.9999C30 38.2 31.8 40 34 40H36C39.32 40 42 37.3199 42 33.9998V19.9995C42 9.6592 33.28 1.35899 22.8 2.03901Z" fill="#43B581"/>
</svg>
