<svg width="48" height="48" viewBox="0 0 48 48" fill="none" xmlns="http://www.w3.org/2000/svg">
<path d="M38.1488 9.85122C30.3471 2.04959 17.6529 2.04959 9.85121 9.85124C2.04959 17.6529 2.0496 30.3471 9.85123 38.1488C17.6529 45.9504 30.3471 45.9504 38.1488 38.1488C45.9504 30.3471 45.9504 17.6529 38.1488 9.85122ZM31.0744 31.0744C30.293 31.8558 29.026 31.8558 28.2446 31.0744L24 26.8298L19.7554 31.0744C18.9739 31.8558 17.707 31.8558 16.9256 31.0744C16.1442 30.293 16.1442 29.0261 16.9256 28.2446L21.1702 24L16.9256 19.7554C16.1442 18.974 16.1442 17.707 16.9256 16.9256C17.707 16.1442 18.9739 16.1442 19.7554 16.9256L24 21.1703L28.2446 16.9256C29.0261 16.1442 30.293 16.1442 31.0744 16.9256C31.8558 17.707 31.8558 18.9739 31.0744 19.7554L26.8297 24L31.0744 28.2446C31.8558 29.0261 31.8558 30.293 31.0744 31.0744Z" fill="#6A7480"/>
</svg>
