<svg width="48" height="48" viewBox="0 0 48 48" fill="none" xmlns="http://www.w3.org/2000/svg">
<path d="M23.9977 29.2632C27.5949 29.2632 30.4988 26.4421 30.4988 22.9474V10.3158C30.4988 6.82105 27.5949 4 23.9977 4C20.4004 4 17.4966 6.82105 17.4966 10.3158V22.9474C17.4966 26.4421 20.4004 29.2632 23.9977 29.2632ZM36.8048 22.9474C35.7429 22.9474 34.8545 23.7053 34.6811 24.7368C33.7926 29.6842 29.3502 33.4737 23.9977 33.4737C18.6452 33.4737 14.2028 29.6842 13.3143 24.7368C13.2379 24.2416 12.9819 23.7893 12.5925 23.4612C12.2032 23.1331 11.706 22.9509 11.1906 22.9474C9.86873 22.9474 8.82856 24.0842 9.02359 25.3474C10.0854 31.6632 15.2863 36.6105 21.8307 37.5158V41.8947C21.8307 43.0526 22.8058 44 23.9977 44C25.1896 44 26.1647 43.0526 26.1647 41.8947V37.5158C29.3535 37.0732 32.3143 35.655 34.6172 33.4669C36.9201 31.2788 38.4454 28.4347 38.9718 25.3474C39.1885 24.0842 38.1267 22.9474 36.8048 22.9474Z" fill="#6A7480"/>
</svg>
