<svg width="48" height="48" viewBox="0 0 48 48" fill="none" xmlns="http://www.w3.org/2000/svg">
<path d="M28.4576 25.875C28.4576 28.323 26.4468 30.3125 24.0001 30.3125C21.5532 30.3125 19.5424 28.323 19.5424 25.875C19.5424 23.4269 21.5532 21.4375 24.0001 21.4375C26.4468 21.4375 28.4576 23.4269 28.4576 25.875Z" fill="#F04747"/>
<path d="M16.6187 38.4687C16.6187 34.788 19.7578 32.0937 24.0001 32.0937C28.2422 32.0937 31.3813 34.788 31.3813 38.4687C31.3813 39.3144 30.6996 40 29.8587 40H18.1413C17.3004 40 16.6187 39.3144 16.6187 38.4687Z" fill="#F04747"/>
<path d="M24.0001 16.75C18.9231 16.75 14.8136 20.8444 14.8136 25.875C14.8136 27.0321 15.0462 28.1283 15.4575 29.1471C15.8515 30.1231 15.5822 31.3576 14.5858 31.9322C13.6382 32.4787 12.3479 32.1867 11.8694 31.0995C11.1626 29.4935 10.7712 27.7265 10.7712 25.875C10.7712 18.6219 16.7193 12.7188 24.0001 12.7188C31.2807 12.7188 37.2288 18.6219 37.2288 25.875C37.2288 27.7396 36.8265 29.4943 36.1278 31.0902C35.6515 32.1781 34.3603 32.4778 33.4093 31.9293C32.4156 31.3564 32.1471 30.1252 32.5405 29.1521C32.9531 28.1319 33.1864 27.034 33.1864 25.875C33.1864 20.8444 29.077 16.75 24.0001 16.75Z" fill="#F04747"/>
<path d="M24.0001 8.03125C14.0697 8.03125 6.04238 16.02 6.04238 25.875C6.04238 28.6145 6.67381 31.2071 7.77882 33.5188C8.24214 34.4881 7.94731 35.714 6.97179 36.2778C6.02342 36.8259 4.76849 36.5185 4.25878 35.488C2.82731 32.5941 2 29.3247 2 25.875C2 13.7975 11.8659 4 24.0001 4C36.1341 4 46 13.7975 46 25.875C46 29.3294 45.1705 32.603 43.7226 35.5128C43.2113 36.5403 41.9585 36.8459 41.0115 36.2987C40.0345 35.7341 39.7405 34.5055 40.207 33.5358C41.3252 31.2114 41.9576 28.6168 41.9576 25.875C41.9576 16.02 33.9304 8.03125 24.0001 8.03125Z" fill="#F04747"/>
</svg>
