<svg width="48" height="48" viewBox="0 0 48 48" fill="none" xmlns="http://www.w3.org/2000/svg">
<g clip-path="url(#clip0_2012_11424)">
<mask id="mask0_2012_11424" style="mask-type:alpha" maskUnits="userSpaceOnUse" x="0" y="0" width="48" height="48">
<path d="M48 0H0V48H29.6019V46.3333C26.4314 46.3333 23.8426 43.7637 23.8426 40.5789V32.0497C22.7652 31.1521 22.0833 29.7995 22.0833 28.2975C22.0833 25.6219 24.2471 23.4203 26.9564 23.4203H28.4288C29.2975 22.3527 30.6212 21.6667 32.1151 21.6667H35.8849C37.3788 21.6667 38.7025 22.3527 39.5712 23.4203H41.0436C43.7529 23.4203 45.9167 25.6219 45.9167 28.2975H48V0Z" fill="#F04747"/>
</mask>
<g mask="url(#mask0_2012_11424)">
<path d="M28.4576 25.875C28.4576 28.323 26.4468 30.3125 24.0001 30.3125C21.5532 30.3125 19.5424 28.323 19.5424 25.875C19.5424 23.4269 21.5532 21.4375 24.0001 21.4375C26.4468 21.4375 28.4576 23.4269 28.4576 25.875Z" fill="#6A7480"/>
<path d="M16.6187 38.4687C16.6187 34.788 19.7578 32.0937 24.0001 32.0937C28.2422 32.0937 31.3813 34.788 31.3813 38.4687C31.3813 39.3144 30.6996 40 29.8587 40H18.1413C17.3004 40 16.6187 39.3144 16.6187 38.4687Z" fill="#6A7480"/>
<path d="M24.0001 16.75C18.9231 16.75 14.8136 20.8444 14.8136 25.875C14.8136 27.0321 15.0462 28.1283 15.4575 29.1471C15.8515 30.1231 15.5822 31.3576 14.5858 31.9322C13.6382 32.4787 12.3479 32.1867 11.8694 31.0995C11.1626 29.4935 10.7712 27.7265 10.7712 25.875C10.7712 18.6219 16.7193 12.7188 24.0001 12.7188C31.2807 12.7188 37.2288 18.6219 37.2288 25.875C37.2288 27.7396 36.8265 29.4943 36.1278 31.0902C35.6515 32.1781 34.3603 32.4778 33.4093 31.9293C32.4156 31.3564 32.1471 30.1252 32.5405 29.1521C32.9531 28.1319 33.1864 27.034 33.1864 25.875C33.1864 20.8444 29.077 16.75 24.0001 16.75Z" fill="#6A7480"/>
<path d="M24.0001 8.03125C14.0697 8.03125 6.04238 16.02 6.04238 25.875C6.04238 28.6145 6.67381 31.2071 7.77882 33.5188C8.24214 34.4881 7.94731 35.714 6.97179 36.2778C6.02342 36.8259 4.76849 36.5185 4.25878 35.488C2.82731 32.5941 2 29.3247 2 25.875C2 13.7975 11.8659 4 24.0001 4C36.1341 4 46 13.7975 46 25.875C46 29.3294 45.1705 32.603 43.7226 35.5128C43.2113 36.5403 41.9585 36.8459 41.0115 36.2987C40.0345 35.7341 39.7405 34.5055 40.207 33.5358C41.3252 31.2114 41.9576 28.6168 41.9576 25.875C41.9576 16.02 33.9304 8.03125 24.0001 8.03125Z" fill="#6A7480"/>
</g>
<path d="M36.6386 27.4203V26.4243C36.6386 26.0059 36.301 25.6667 35.8846 25.6667H32.1148C31.6983 25.6667 31.3608 26.0059 31.3608 26.4243V27.4203H26.9561C26.4739 27.4203 26.083 27.8131 26.083 28.2976C26.083 28.7821 26.4739 29.1748 26.9561 29.1748H41.0433C41.5255 29.1748 41.9163 28.7821 41.9163 28.2976C41.9163 27.8131 41.5255 27.4203 41.0433 27.4203H36.6386Z" fill="#F04747"/>
<path d="M27.8423 30.0521V40.5789C27.8423 41.5457 28.6313 42.3334 29.6015 42.3334H38.3978C39.3681 42.3334 40.1571 41.5457 40.1571 40.5789V30.0521H27.8423ZM33.12 37.9415C33.12 38.4296 32.7262 38.8253 32.2404 38.8253C31.7546 38.8253 31.3608 38.4296 31.3608 37.9415V34.4457C31.3608 33.9576 31.7546 33.5619 32.2404 33.5619C32.7262 33.5619 33.12 33.9576 33.12 34.4457V37.9415ZM36.6386 37.9415C36.6386 38.4296 36.2447 38.8253 35.7589 38.8253C35.2731 38.8253 34.8793 38.4296 34.8793 37.9415V34.4457C34.8793 33.9576 35.2731 33.5619 35.7589 33.5619C36.2447 33.5619 36.6386 33.9576 36.6386 34.4457V37.9415Z" fill="#F04747"/>
</g>
<defs>
<clipPath id="clip0_2012_11424">
<rect width="48" height="48" fill="white"/>
</clipPath>
</defs>
</svg>
