<svg width="48" height="48" viewBox="0 0 48 48" fill="none" xmlns="http://www.w3.org/2000/svg">
<path d="M13.9995 36.4999C13.9995 35.1174 13.1037 33.9999 12 33.9999H5.99951C4.89579 33.9999 4 35.1174 4 36.4999V41.4998C4 42.8823 4.89579 43.9998 5.99951 43.9998H11.998C13.1017 43.9998 13.9975 42.8823 13.9975 41.4998V36.4999H13.9995Z" fill="#43B581"/>
<path d="M29.0005 21.2728C29.0005 20.016 28.1045 19.0001 27.0006 19.0001H21.0008C19.8969 19.0001 19.001 20.016 19.001 21.2728V41.7273C19.001 42.9842 19.8969 44 21.0008 44H27.0006C28.1045 44 29.0005 42.9842 29.0005 41.7273V21.2728Z" fill="#43B581"/>
<path d="M44 6.22222C44 4.99333 43.104 4 42.0001 4H36.0004C34.8965 4 34.0005 4.99333 34.0005 6.22222V41.7775C34.0005 43.0065 34.8965 43.9998 36.0004 43.9998H42.0001C43.104 43.9998 44 43.0065 44 41.7775V6.22222Z" fill="#43B581"/>
</svg>
