<svg width="48" height="48" viewBox="0 0 48 48" fill="none" xmlns="http://www.w3.org/2000/svg">
<g clip-path="url(#clip0_2053_11819)">
<mask id="mask0_2053_11819" style="mask-type:alpha" maskUnits="userSpaceOnUse" x="0" y="0" width="48" height="48">
<path d="M48 0H0V48H39V44.6667H38.1667C36.5202 44.6667 35.036 43.9617 34 42.8376C32.964 43.9617 31.4798 44.6667 29.8333 44.6667H29C25.4074 44.6667 22.5 41.759 22.5 38.1666V32.5915C22.5 26.6749 26.9748 21.2644 33.241 20.858C39.9277 20.4241 45.5 25.7275 45.5 32.3331V38.1666H48V0Z" fill="url(#paint0_linear_2053_11819)"/>
</mask>
<g mask="url(#mask0_2053_11819)">
<path fill-rule="evenodd" clip-rule="evenodd" d="M41.8197 14.6316C42.5464 14.1889 43.4684 14.2336 44.151 14.7465C44.8313 15.2617 45.1419 16.1386 44.9384 16.973L40.7384 34.0012C40.5034 34.9504 39.6633 35.6145 38.6995 35.6145H9.30052C8.33666 35.6145 7.49668 34.9482 7.26151 34.0012L3.06165 16.973C2.85798 16.1386 3.16875 15.2617 3.84912 14.7465C4.53371 14.2357 5.45348 14.191 6.18214 14.6316L14.9661 19.9742L22.2549 8.89102C22.3047 8.81532 22.3742 8.76529 22.4438 8.71513C22.4858 8.6849 22.5278 8.6546 22.5657 8.61858L20.5435 6.56669C20.1361 6.15377 20.1361 5.47477 20.5435 5.06185L23.2587 2.30969C23.6661 1.89677 24.3359 1.89677 24.7433 2.30969L27.4585 5.06185C27.8659 5.47477 27.8659 6.15377 27.4585 6.56669L25.4363 8.61858C25.4742 8.65533 25.517 8.68614 25.5599 8.71702C25.6288 8.76657 25.6979 8.81628 25.7471 8.89102L33.036 19.9742L41.8197 14.6316ZM7.20088 39.8714C7.20088 38.6958 8.13269 37.7428 9.28213 37.7428H38.7182C39.8677 37.7428 40.7995 38.6958 40.7995 39.8714C40.7995 41.047 39.8677 42 38.7182 42H9.28213C8.13269 42 7.20088 41.047 7.20088 39.8714Z" fill="#6A7480"/>
</g>
<path d="M33.5 24.8495C29.5167 25.1078 26.5 28.5996 26.5 32.5914V38.1665C26.5 39.5499 27.6167 40.6666 29 40.6666H29.8333C30.75 40.6666 31.5 39.9166 31.5 38.9999V35.6665C31.5 34.7498 30.75 33.9997 29.8333 33.9997H28.1667V32.5747C28.1667 29.3746 30.6333 26.5912 33.825 26.4995C34.6057 26.476 35.3831 26.6095 36.1112 26.8921C36.8393 27.1747 37.5033 27.6007 38.0636 28.1447C38.624 28.6888 39.0694 29.3399 39.3734 30.0593C39.6774 30.7788 39.8338 31.552 39.8333 32.333V33.9997H38.1667C37.25 33.9997 36.5 34.7498 36.5 35.6665V38.9999C36.5 39.9166 37.25 40.6666 38.1667 40.6666H39C40.3833 40.6666 41.5 39.5499 41.5 38.1665V32.333C41.5 28.0246 37.8667 24.5662 33.5 24.8495Z" fill="#43B581"/>
</g>
<defs>
<linearGradient id="paint0_linear_2053_11819" x1="0" y1="0" x2="48" y2="48" gradientUnits="userSpaceOnUse">
<stop stop-color="#00AAFF"/>
<stop offset="0.491669" stop-color="#007FFF"/>
<stop offset="1" stop-color="#0055FF"/>
<stop offset="1" stop-color="#0055FF"/>
</linearGradient>
<clipPath id="clip0_2053_11819">
<rect width="48" height="48" fill="white"/>
</clipPath>
</defs>
</svg>
