<svg width="48" height="48" viewBox="0 0 48 48" fill="none" xmlns="http://www.w3.org/2000/svg">
<g clip-path="url(#clip0_2053_11815)">
<mask id="mask0_2053_11815" style="mask-type:alpha" maskUnits="userSpaceOnUse" x="0" y="0" width="48" height="48">
<path d="M48 0H0V48H33.999V46.3333C32.496 46.3333 31.0938 45.6378 30.1776 44.5119C28.596 45.4999 26.0568 45.843 24.1161 43.8985C22.2282 42.0069 22.2503 38.9379 24.1152 37.0683L24.2663 36.9168C24.0724 36.3726 23.924 35.8066 23.8261 35.2234L23.8217 35.1971L23.8176 35.1707C23.4124 32.5417 25.1132 30.4085 27.2951 29.7626V28.2982C27.2951 24.5314 30.3967 21.6667 33.999 21.6667C35.6121 21.6667 37.1192 22.2363 38.2945 23.2046C40.1064 22.2989 42.3708 22.6012 43.8807 24.1115C45.773 26.0037 45.7507 29.0777 43.8814 30.9477L43.2879 31.5423C44.0299 32.515 44.417 33.7891 44.1701 35.2345L44.1697 35.2366C43.8033 37.3841 42.7465 39.3449 41.1737 40.8419C40.4569 41.5242 39.6498 42.0944 38.7805 42.5411H48V0Z" fill="#FF0000"/>
</mask>
<g mask="url(#mask0_2053_11815)">
<path fill-rule="evenodd" clip-rule="evenodd" d="M41.8197 14.6316C42.5464 14.1889 43.4684 14.2336 44.151 14.7465C44.8313 15.2617 45.1419 16.1386 44.9384 16.973L40.7384 34.0012C40.5034 34.9504 39.6633 35.6145 38.6995 35.6145H9.30052C8.33666 35.6145 7.49668 34.9482 7.26151 34.0012L3.06165 16.973C2.85798 16.1386 3.16875 15.2617 3.84912 14.7465C4.53371 14.2357 5.45348 14.191 6.18214 14.6316L14.9661 19.9742L22.2549 8.89102C22.3047 8.81532 22.3742 8.76529 22.4438 8.71513C22.4858 8.6849 22.5278 8.6546 22.5657 8.61858L20.5435 6.56669C20.1361 6.15377 20.1361 5.47477 20.5435 5.06185L23.2587 2.30969C23.6661 1.89677 24.3359 1.89677 24.7433 2.30969L27.4585 5.06185C27.8659 5.47477 27.8659 6.15377 27.4585 6.56669L25.4363 8.61858C25.4742 8.65533 25.517 8.68614 25.5599 8.71702C25.6288 8.76657 25.6979 8.81628 25.7471 8.89102L33.036 19.9742L41.8197 14.6316ZM7.20088 39.8714C7.20088 38.6958 8.13269 37.7428 9.28213 37.7428H38.7182C39.8677 37.7428 40.7995 38.6958 40.7995 39.8714C40.7995 41.047 39.8677 42 38.7182 42H9.28213C8.13269 42 7.20088 41.047 7.20088 39.8714Z" fill="#6A7480"/>
</g>
<path d="M31.2953 28.2983C31.2953 26.8422 32.503 25.6667 33.9992 25.6667C35.3258 25.6667 36.4256 26.5908 36.6579 27.8153L31.2953 33.1897V28.2983Z" fill="#F04747"/>
<path d="M29.2555 33.7756C29.4175 33.9123 29.5239 34.1008 29.5557 34.3071C29.5864 34.4785 29.6274 34.6465 29.6779 34.8106L28.2961 36.1954C28.0468 35.6858 27.8678 35.1373 27.7711 34.5615C27.69 34.0352 28.1226 33.5615 28.6724 33.5615C28.8868 33.5629 29.0936 33.6389 29.2555 33.7756Z" fill="#F04747"/>
<path d="M33.9992 36.1931C35.4954 36.1931 36.7031 35.0176 36.7031 33.5615V32.4779L41.0525 28.12C41.37 27.8025 41.3732 27.2608 41.0525 26.9401C40.7268 26.6138 40.1923 26.6138 39.8667 26.9401L26.9475 39.8932C26.6304 40.2109 26.6273 40.7522 26.9475 41.073C27.2777 41.4039 27.7764 41.3594 28.125 41.073L30.5156 38.6777C31.2767 39.1673 32.1537 39.5008 33.0979 39.6317V41.4562C33.0979 41.9387 33.5035 42.3334 33.9992 42.3334C34.4949 42.3334 34.9005 41.9387 34.9005 41.4562V39.6317C36.2268 39.4473 37.4583 38.8563 38.4161 37.9446C39.3739 37.0329 40.0084 35.8479 40.2273 34.5615C40.3174 34.0352 39.8758 33.5615 39.326 33.5615C38.8843 33.5615 38.5148 33.8773 38.4427 34.3071C38.0731 36.3685 36.2255 37.9475 33.9992 37.9475C33.3692 37.9475 32.5011 37.6038 31.8782 37.3124L33.1325 36.0556C33.4044 36.1448 33.6959 36.1931 33.9992 36.1931Z" fill="#F04747"/>
</g>
<defs>
<clipPath id="clip0_2053_11815">
<rect width="48" height="48" fill="white"/>
</clipPath>
</defs>
</svg>
