<svg width="48" height="48" viewBox="0 0 48 48" fill="none" xmlns="http://www.w3.org/2000/svg">
<g clip-path="url(#clip0_2053_11811)">
<mask id="mask0_2053_11811" style="mask-type:alpha" maskUnits="userSpaceOnUse" x="0" y="0" width="48" height="48">
<path fill-rule="evenodd" clip-rule="evenodd" d="M25.5944 34.9171L25.5957 34.9253C25.5953 34.9225 25.5948 34.9198 25.5944 34.9171Z" fill="#6A7480"/>
<path d="M0 0H48V40.8443H41.179C42.7545 39.3475 43.814 37.3856 44.181 35.2357L44.1814 35.2337C44.646 32.5127 42.8659 30.407 40.7078 29.7646V28.2982C40.7078 24.5247 37.5972 21.6667 33.999 21.6667C30.4008 21.6667 27.2903 24.5247 27.2903 28.2982V29.7614C25.1088 30.4049 23.3995 32.5348 23.8067 35.1718L23.8108 35.1982L23.8152 35.2246C24.3589 38.4586 26.429 41.1114 29.2161 42.5421C29.7212 44.7766 31.7518 46.3333 33.999 46.3333L34 48H0V0Z" fill="#6A7480"/>
</mask>
<g mask="url(#mask0_2053_11811)">
<path fill-rule="evenodd" clip-rule="evenodd" d="M41.8197 14.6316C42.5464 14.1889 43.4684 14.2336 44.151 14.7465C44.8313 15.2617 45.1419 16.1386 44.9384 16.973L40.7384 34.0012C40.5034 34.9504 39.6633 35.6145 38.6995 35.6145H9.30052C8.33666 35.6145 7.49668 34.9482 7.26151 34.0012L3.06165 16.973C2.85798 16.1386 3.16875 15.2617 3.84912 14.7465C4.53371 14.2357 5.45348 14.191 6.18214 14.6316L14.9661 19.9742L22.2549 8.89102C22.3047 8.81532 22.3742 8.76529 22.4438 8.71513C22.4858 8.6849 22.5278 8.6546 22.5657 8.61858L20.5435 6.56669C20.1361 6.15377 20.1361 5.47477 20.5435 5.06185L23.2587 2.30969C23.6661 1.89677 24.3359 1.89677 24.7433 2.30969L27.4585 5.06185C27.8659 5.47477 27.8659 6.15377 27.4585 6.56669L25.4363 8.61858C25.4742 8.65533 25.517 8.68614 25.5599 8.71702C25.6288 8.76657 25.6979 8.81628 25.7471 8.89102L33.036 19.9742L41.8197 14.6316ZM7.20088 39.8714C7.20088 38.6958 8.13269 37.7428 9.28213 37.7428H38.7182C39.8677 37.7428 40.7995 38.6958 40.7995 39.8714C40.7995 41.047 39.8677 42 38.7182 42H9.28213C8.13269 42 7.20088 41.047 7.20088 39.8714Z" fill="#6A7480"/>
</g>
<path d="M33.999 36.1931C35.4979 36.1931 36.7078 35.0176 36.7078 33.5615V28.2983C36.7078 26.8422 35.4979 25.6667 33.999 25.6667C32.5002 25.6667 31.2903 26.8422 31.2903 28.2983V33.5615C31.2903 35.0176 32.5002 36.1931 33.999 36.1931ZM39.3353 33.5615C38.8929 33.5615 38.5227 33.8773 38.4505 34.3071C38.0803 36.3685 36.2293 37.9475 33.999 37.9475C31.7688 37.9475 29.9178 36.3685 29.5476 34.3071C29.5158 34.1008 29.4091 33.9123 29.2469 33.7756C29.0847 33.6389 28.8775 33.5629 28.6628 33.5615C28.112 33.5615 27.6786 34.0352 27.7598 34.5615C28.2023 37.1931 30.3693 39.2545 33.0961 39.6317V41.4562C33.0961 41.9387 33.5024 42.3334 33.999 42.3334C34.4956 42.3334 34.902 41.9387 34.902 41.4562V39.6317C36.2306 39.4473 37.4643 38.8563 38.4238 37.9446C39.3834 37.0329 40.0189 35.8479 40.2383 34.5615C40.3285 34.0352 39.8861 33.5615 39.3353 33.5615Z" fill="#43B581"/>
</g>
<defs>
<clipPath id="clip0_2053_11811">
<rect width="48" height="48" fill="white"/>
</clipPath>
</defs>
</svg>
