<svg width="48" height="48" viewBox="0 0 48 48" fill="none" xmlns="http://www.w3.org/2000/svg">
<g clip-path="url(#clip0_2053_11799)">
<mask id="mask0_2053_11799" style="mask-type:alpha" maskUnits="userSpaceOnUse" x="0" y="0" width="48" height="48">
<path d="M48 0H0V48H34V46.3333C27.1959 46.3333 21.6667 40.8041 21.6667 34C21.6667 27.1959 27.1959 21.6667 34 21.6667C40.8041 21.6667 46.3333 27.1959 46.3333 34H48V0Z" fill="#FF0000"/>
</mask>
<g mask="url(#mask0_2053_11799)">
<path fill-rule="evenodd" clip-rule="evenodd" d="M41.8197 14.6316C42.5464 14.1889 43.4684 14.2336 44.151 14.7465C44.8313 15.2617 45.1419 16.1386 44.9384 16.973L40.7384 34.0012C40.5034 34.9504 39.6633 35.6145 38.6995 35.6145H9.30052C8.33666 35.6145 7.49668 34.9482 7.26151 34.0012L3.06165 16.973C2.85798 16.1386 3.16875 15.2617 3.84912 14.7465C4.53371 14.2357 5.45348 14.191 6.18214 14.6316L14.9661 19.9742L22.2549 8.89102C22.3047 8.81532 22.3742 8.76529 22.4438 8.71513C22.4858 8.6849 22.5278 8.6546 22.5657 8.61858L20.5435 6.56669C20.1361 6.15377 20.1361 5.47477 20.5435 5.06185L23.2587 2.30969C23.6661 1.89677 24.3359 1.89677 24.7433 2.30969L27.4585 5.06185C27.8659 5.47477 27.8659 6.15377 27.4585 6.56669L25.4363 8.61858C25.4742 8.65533 25.517 8.68614 25.5599 8.71702C25.6288 8.76657 25.6979 8.81628 25.7471 8.89102L33.036 19.9742L41.8197 14.6316ZM7.20088 39.8714C7.20088 38.6958 8.13269 37.7428 9.28213 37.7428H38.7182C39.8677 37.7428 40.7995 38.6958 40.7995 39.8714C40.7995 41.047 39.8677 42 38.7182 42H9.28213C8.13269 42 7.20088 41.047 7.20088 39.8714Z" fill="#6A7480"/>
</g>
<path d="M35.3002 34.8334L33.979 36.1536C33.6524 36.48 33.653 37.0096 33.9803 37.3352C34.3063 37.6594 34.8332 37.6588 35.1584 37.3338L38.5017 33.9926L35.1583 30.6641C34.8323 30.3395 34.305 30.34 33.9796 30.6653C33.653 30.9917 33.6536 31.5212 33.9809 31.847L35.3069 33.1667H25.6665C26.0867 28.9626 29.6533 25.6667 33.9785 25.6667C38.5853 25.6667 42.3332 29.4059 42.3332 34.0001C42.3332 38.5942 38.5853 42.3334 33.9785 42.3334C29.6533 42.3334 26.0867 39.0384 25.6665 34.8334H35.3002Z" fill="#43B581"/>
</g>
<defs>
<clipPath id="clip0_2053_11799">
<rect width="48" height="48" fill="white"/>
</clipPath>
</defs>
</svg>
