<svg width="48" height="48" viewBox="0 0 48 48" fill="none" xmlns="http://www.w3.org/2000/svg">
<g clip-path="url(#clip0_2053_11783)">
<mask id="mask0_2053_11783" style="mask-type:alpha" maskUnits="userSpaceOnUse" x="0" y="0" width="48" height="48">
<path d="M48 0H0V48H34V46.3333C27.1959 46.3333 21.6667 40.8041 21.6667 34C21.6667 27.1959 27.1959 21.6667 34 21.6667C40.8041 21.6667 46.3333 27.1959 46.3333 34H48V0Z" fill="#FF0000"/>
</mask>
<g mask="url(#mask0_2053_11783)">
<path fill-rule="evenodd" clip-rule="evenodd" d="M41.8197 14.6316C42.5464 14.1889 43.4684 14.2336 44.151 14.7465C44.8313 15.2617 45.1419 16.1386 44.9384 16.973L40.7384 34.0012C40.5034 34.9504 39.6633 35.6145 38.6995 35.6145H9.30052C8.33666 35.6145 7.49668 34.9482 7.26151 34.0012L3.06165 16.973C2.85798 16.1386 3.16875 15.2617 3.84912 14.7465C4.53371 14.2357 5.45348 14.191 6.18214 14.6316L14.9661 19.9742L22.2549 8.89102C22.3047 8.81532 22.3742 8.76529 22.4438 8.71513C22.4858 8.6849 22.5278 8.6546 22.5657 8.61858L20.5435 6.56669C20.1361 6.15377 20.1361 5.47477 20.5435 5.06185L23.2587 2.30969C23.6661 1.89677 24.3359 1.89677 24.7433 2.30969L27.4585 5.06185C27.8659 5.47477 27.8659 6.15377 27.4585 6.56669L25.4363 8.61858C25.4742 8.65533 25.517 8.68614 25.5599 8.71702C25.6288 8.76657 25.6979 8.81628 25.7471 8.89102L33.036 19.9742L41.8197 14.6316ZM7.20088 39.8714C7.20088 38.6958 8.13269 37.7428 9.28213 37.7428H38.7182C39.8677 37.7428 40.7995 38.6958 40.7995 39.8714C40.7995 41.047 39.8677 42 38.7182 42H9.28213C8.13269 42 7.20088 41.047 7.20088 39.8714Z" fill="#6A7480"/>
</g>
<path d="M33.9998 25.6667C29.4048 25.6667 25.6665 29.4051 25.6665 34.0001C25.6665 38.5951 29.4048 42.3334 33.9998 42.3334C38.5948 42.3334 42.3332 38.5951 42.3332 34.0001C42.3332 29.4051 38.5948 25.6667 33.9998 25.6667ZM38.1665 34.0001C38.1665 34.4603 37.7934 34.8334 37.3332 34.8334H34.8332V37.3334C34.8332 37.7937 34.4601 38.1668 33.9998 38.1668C33.5396 38.1668 33.1665 37.7937 33.1665 37.3334V34.8334H30.6665C30.2063 34.8334 29.8332 34.4603 29.8332 34.0001C29.8332 33.5399 30.2063 33.1668 30.6665 33.1668H33.1665V30.6667C33.1665 30.2065 33.5396 29.8334 33.9998 29.8334C34.4601 29.8334 34.8332 30.2065 34.8332 30.6667V33.1668H37.3332C37.7934 33.1668 38.1665 33.5399 38.1665 34.0001Z" fill="#43B581"/>
</g>
<defs>
<clipPath id="clip0_2053_11783">
<rect width="48" height="48" fill="white"/>
</clipPath>
</defs>
</svg>
