<svg width="48" height="48" viewBox="0 0 48 48" fill="none" xmlns="http://www.w3.org/2000/svg">
<g clip-path="url(#clip0_2053_11831)">
<mask id="mask0_2053_11831" style="mask-type:alpha" maskUnits="userSpaceOnUse" x="0" y="0" width="48" height="48">
<path d="M48 0H0V48H28.7377V45.0833C27.8207 45.0833 26.9197 44.8426 26.1248 44.385L26.1198 44.3822C25.4682 44.0061 24.9342 43.4548 24.7849 43.3007L24.7849 43.3007C24.7712 43.2866 24.7608 43.2758 24.7538 43.2688L24.7474 43.2624C24.7388 43.2538 24.7264 43.2418 24.7107 43.2266C24.5431 43.0642 23.9962 42.5342 23.6207 41.8854L23.6187 41.8821C23.1588 41.0859 22.9167 40.1827 22.9167 39.2631C22.9167 38.3435 23.1588 37.4403 23.6187 36.6441L23.6207 36.6408C23.9961 35.9922 24.5479 35.4575 24.7088 35.3016L24.7091 35.3013C24.7241 35.2868 24.7356 35.2756 24.7433 35.2679L24.7528 35.2584L26.409 33.6141C25.8545 32.8153 25.2929 31.686 25.2929 30.2264C25.2929 28.5724 26.0141 27.3426 26.6291 26.537C27.1404 25.8673 27.8291 25.1797 28.4141 24.5957L28.4141 24.5957L28.5275 24.4824L28.6409 24.369C29.2252 23.7843 29.913 23.0959 30.583 22.5849C31.389 21.9702 32.6185 21.25 34.2715 21.25C35.9242 21.25 37.1537 21.9695 37.9606 22.5849C38.131 22.7149 38.3025 22.8563 38.4732 23.0046C38.7523 22.9635 39.0352 22.9448 39.3193 22.9493C40.2102 22.9634 41.0829 23.2045 41.8547 23.65L41.8579 23.6518C42.5067 24.0271 43.0368 24.5736 43.1993 24.7411L43.2001 24.742C43.2142 24.7564 43.2254 24.7681 43.2337 24.7764L43.2352 24.7779L43.2415 24.7842C43.2486 24.7913 43.2596 24.8019 43.2738 24.8157C43.4286 24.9655 43.9788 25.4982 44.3537 26.1458L44.3548 26.1478C44.8014 26.9201 45.0432 27.7937 45.0573 28.6858C45.0618 28.9698 45.0431 29.2526 45.002 29.5315C45.1476 29.6992 45.2865 29.8678 45.4142 30.0352C46.0296 30.8415 46.75 32.0712 46.75 33.7247H48V0Z" fill="#F04747"/>
</mask>
<g mask="url(#mask0_2053_11831)">
<path fill-rule="evenodd" clip-rule="evenodd" d="M41.8197 14.6316C42.5464 14.1889 43.4684 14.2336 44.151 14.7465C44.8313 15.2617 45.1419 16.1386 44.9384 16.973L40.7384 34.0012C40.5034 34.9504 39.6633 35.6145 38.6995 35.6145H9.30052C8.33666 35.6145 7.49668 34.9482 7.26151 34.0012L3.06165 16.973C2.85798 16.1386 3.16875 15.2617 3.84912 14.7465C4.53371 14.2357 5.45348 14.191 6.18214 14.6316L14.9661 19.9742L22.2549 8.89102C22.3047 8.81532 22.3742 8.76529 22.4438 8.71513C22.4858 8.6849 22.5278 8.6546 22.5657 8.61858L20.5435 6.56669C20.1361 6.15377 20.1361 5.47477 20.5435 5.06185L23.2587 2.30969C23.6661 1.89677 24.3359 1.89677 24.7433 2.30969L27.4585 5.06185C27.8659 5.47477 27.8659 6.15377 27.4585 6.56669L25.4363 8.61858C25.4742 8.65533 25.517 8.68614 25.5599 8.71702C25.6288 8.76657 25.6979 8.81628 25.7471 8.89102L33.036 19.9742L41.8197 14.6316ZM7.20088 39.8714C7.20088 38.6958 8.13269 37.7428 9.28213 37.7428H38.7182C39.8677 37.7428 40.7995 38.6958 40.7995 39.8714C40.7995 41.047 39.8677 42 38.7182 42H9.28213C8.13269 42 7.20088 41.047 7.20088 39.8714Z" fill="#6A7480"/>
</g>
<path d="M31.3552 27.3115C32.7301 25.9372 33.4176 25.25 34.2713 25.25C35.1259 25.25 35.8134 25.9372 37.1875 27.3115L37.8089 27.9324L38.652 27.0954C38.8375 26.9959 39.0454 26.9455 39.256 26.9488C39.4665 26.9521 39.6727 27.0091 39.855 27.1144C39.996 27.1959 40.1322 27.3313 40.4031 27.6028L40.4136 27.6133C40.6775 27.8771 40.8113 28.0108 40.8918 28.1498C40.9972 28.3322 41.0543 28.5384 41.0576 28.749C41.0609 28.9596 41.0104 29.1676 40.9108 29.3532L40.0736 30.1956L40.6882 30.8098C42.0624 32.1833 42.7498 32.8705 42.7498 33.7247C42.7498 34.5781 42.0624 35.2652 40.6874 36.6396C39.3125 38.0139 38.625 38.701 37.7712 38.701C36.9167 38.701 36.2292 38.0139 34.8551 36.6396L34.2605 36.0454L29.9042 40.4292C29.6333 40.7 29.4971 40.8361 29.3561 40.9177C29.168 41.0262 28.9547 41.0833 28.7376 41.0833C28.5204 41.0833 28.3071 41.0262 28.119 40.9177C27.9791 40.8372 27.8453 40.7035 27.5814 40.4396L27.5709 40.4292C27.2993 40.1585 27.1638 40.0223 27.0822 39.8814C26.9737 39.6934 26.9165 39.4802 26.9165 39.2631C26.9165 39.046 26.9737 38.8328 27.0822 38.6448C27.1638 38.5039 27.2993 38.3685 27.5709 38.097L31.9599 33.7394L31.3544 33.1412L31.3486 33.1355C29.9791 31.7658 29.2928 31.0794 29.2928 30.2264C29.2928 29.3729 29.9802 28.6858 31.3552 27.3115Z" fill="#F04747"/>
</g>
<defs>
<clipPath id="clip0_2053_11831">
<rect width="48" height="48" fill="white"/>
</clipPath>
</defs>
</svg>
