<svg width="48" height="48" viewBox="0 0 48 48" fill="none" xmlns="http://www.w3.org/2000/svg">
<g clip-path="url(#clip0_2053_11823)">
<mask id="mask0_2053_11823" style="mask-type:alpha" maskUnits="userSpaceOnUse" x="0" y="0" width="48" height="48">
<path d="M48 0H0V48H39V44.6667H38.1667C36.5202 44.6667 35.036 43.9617 34 42.8376C32.964 43.9617 31.4798 44.6667 29.8333 44.6667H29C25.4074 44.6667 22.5 41.759 22.5 38.1666V32.5915C22.5 26.6749 26.9748 21.2644 33.241 20.858C39.9277 20.4241 45.5 25.7275 45.5 32.3331V38.1666H48V0Z" fill="url(#paint0_linear_2053_11823)"/>
</mask>
<g mask="url(#mask0_2053_11823)">
<path fill-rule="evenodd" clip-rule="evenodd" d="M41.8197 14.6316C42.5464 14.1889 43.4684 14.2336 44.151 14.7465C44.8313 15.2617 45.1419 16.1386 44.9384 16.973L40.7384 34.0012C40.5034 34.9504 39.6633 35.6145 38.6995 35.6145H9.30052C8.33666 35.6145 7.49668 34.9482 7.26151 34.0012L3.06165 16.973C2.85798 16.1386 3.16875 15.2617 3.84912 14.7465C4.53371 14.2357 5.45348 14.191 6.18214 14.6316L14.9661 19.9742L22.2549 8.89102C22.3047 8.81532 22.3742 8.76529 22.4438 8.71513C22.4858 8.6849 22.5278 8.6546 22.5657 8.61858L20.5435 6.56669C20.1361 6.15377 20.1361 5.47477 20.5435 5.06185L23.2587 2.30969C23.6661 1.89677 24.3359 1.89677 24.7433 2.30969L27.4585 5.06185C27.8659 5.47477 27.8659 6.15377 27.4585 6.56669L25.4363 8.61858C25.4742 8.65533 25.517 8.68614 25.5599 8.71702C25.6288 8.76657 25.6979 8.81628 25.7471 8.89102L33.036 19.9742L41.8197 14.6316ZM7.20088 39.8714C7.20088 38.6958 8.13269 37.7428 9.28213 37.7428H38.7182C39.8677 37.7428 40.7995 38.6958 40.7995 39.8714C40.7995 41.047 39.8677 42 38.7182 42H9.28213C8.13269 42 7.20088 41.047 7.20088 39.8714Z" fill="#6A7480"/>
</g>
<path d="M26.5 32.5914C26.5 28.5996 29.5167 25.1078 33.5 24.8495C35.2869 24.7336 36.951 25.2442 38.2936 26.1833L37.0932 27.3842C36.7829 27.1901 36.4542 27.0252 36.1112 26.8921C35.3831 26.6095 34.6057 26.476 33.825 26.4995C30.6333 26.5912 28.1667 29.3746 28.1667 32.5747V33.9997H29.8333C30.0267 33.9997 30.2126 34.0331 30.3857 34.0944L26.5 37.9816V32.5914Z" fill="#F04747"/>
<path d="M29.8333 40.6666H29C28.8381 40.6666 28.6799 40.6513 28.5266 40.6221C28.2238 40.5646 27.9512 40.459 27.6976 40.3023C27.464 40.1579 27.2439 39.9686 27.07 39.7577L39.877 26.94C40.2033 26.6136 40.7387 26.6136 41.065 26.94C41.3862 27.2606 41.3831 27.8023 41.065 28.1198L40.5348 28.6501C41.1493 29.7379 41.5 30.9944 41.5 32.333V38.1665C41.5 39.5499 40.3833 40.6666 39 40.6666H38.1667C37.25 40.6666 36.5 39.9166 36.5 38.9999V35.6665C36.5 34.7498 37.25 33.9997 38.1667 33.9997H39.8333V32.333C39.8338 31.552 39.3734 30.0593 39.3734 30.0593C39.3734 30.0593 39.3237 29.9444 39.2976 29.8876L31.5 37.6866V38.9999C31.5 39.9166 30.75 40.6666 29.8333 40.6666Z" fill="#F04747"/>
</g>
<defs>
<linearGradient id="paint0_linear_2053_11823" x1="0" y1="0" x2="48" y2="48" gradientUnits="userSpaceOnUse">
<stop stop-color="#00AAFF"/>
<stop offset="0.491669" stop-color="#007FFF"/>
<stop offset="1" stop-color="#0055FF"/>
<stop offset="1" stop-color="#0055FF"/>
</linearGradient>
<clipPath id="clip0_2053_11823">
<rect width="48" height="48" fill="white"/>
</clipPath>
</defs>
</svg>
