<svg width="48" height="48" viewBox="0 0 48 48" fill="none" xmlns="http://www.w3.org/2000/svg">
<g clip-path="url(#clip0_2053_11839)">
<mask id="mask0_2053_11839" style="mask-type:alpha" maskUnits="userSpaceOnUse" x="0" y="0" width="48" height="48">
<path d="M48 0H0V48H38.4284V45.5851C36.2957 46.4241 34.2324 45.6624 33.0023 44.1887C31.8063 44.1834 30.5842 43.7294 29.5732 42.7075L29.5689 42.7032L27.6974 40.8059H26.5926C23.834 40.8059 21.6667 38.5535 21.6667 35.87V32.1266C21.6667 29.4431 23.834 27.1907 26.5926 27.1907H27.701L29.5732 25.2984C30.5805 24.2803 31.7974 23.8259 32.9892 23.8173C34.2285 22.3356 36.3147 21.6011 38.4041 22.4021L38.4081 22.4037C43.0608 24.1932 46.3333 28.7166 46.3333 33.9983H48V0Z" fill="#F04747"/>
</mask>
<g mask="url(#mask0_2053_11839)">
<path fill-rule="evenodd" clip-rule="evenodd" d="M41.8197 14.6316C42.5464 14.1889 43.4684 14.2336 44.151 14.7465C44.8313 15.2617 45.1419 16.1386 44.9384 16.973L40.7384 34.0012C40.5034 34.9504 39.6633 35.6145 38.6995 35.6145H9.30052C8.33666 35.6145 7.49668 34.9482 7.26151 34.0012L3.06165 16.973C2.85798 16.1386 3.16875 15.2617 3.84912 14.7465C4.53371 14.2357 5.45348 14.191 6.18214 14.6316L14.9661 19.9742L22.2549 8.89102C22.3047 8.81532 22.3742 8.76529 22.4438 8.71513C22.4858 8.6849 22.5278 8.6546 22.5657 8.61858L20.5435 6.56669C20.1361 6.15377 20.1361 5.47477 20.5435 5.06185L23.2587 2.30969C23.6661 1.89677 24.3359 1.89677 24.7433 2.30969L27.4585 5.06185C27.8659 5.47477 27.8659 6.15377 27.4585 6.56669L25.4363 8.61858C25.4742 8.65533 25.517 8.68614 25.5599 8.71702C25.6288 8.76657 25.6979 8.81628 25.7471 8.89102L33.036 19.9742L41.8197 14.6316ZM7.20088 39.8714C7.20088 38.6958 8.13269 37.7428 9.28213 37.7428H38.7182C39.8677 37.7428 40.7995 38.6958 40.7995 39.8714C40.7995 41.047 39.8677 42 38.7182 42H9.28213C8.13269 42 7.20088 41.047 7.20088 39.8714Z" fill="#6A7480"/>
</g>
<path d="M25.6665 35.87V32.1265C25.6665 31.6118 26.0832 31.1907 26.5924 31.1907H29.3702L32.4165 28.1117C32.9998 27.5221 33.9998 27.9432 33.9998 28.7761V39.2297C33.9998 40.0627 32.9998 40.4838 32.4165 39.8942L29.3702 36.8059H26.5924C26.0832 36.8059 25.6665 36.3847 25.6665 35.87ZM38.1665 33.9983C38.1663 34.7824 37.9495 35.5509 37.5405 36.2173C37.357 36.5163 37.138 36.7895 36.8895 37.0313C36.4676 37.4418 35.8517 37.0758 35.8517 36.4849V31.5176C35.8517 30.9276 36.4661 30.5615 36.8886 30.9702C37.6758 31.7318 38.1665 32.8043 38.1665 33.9983ZM35.8517 41.064V40.8769C35.8517 40.5212 36.0832 40.2124 36.4072 40.0814C38.7961 39.1174 40.4813 36.7497 40.4813 33.9983C40.4813 31.2468 38.7961 28.8791 36.4072 27.9151C36.0739 27.7841 35.8517 27.4753 35.8517 27.1197V26.9325C35.8517 26.3429 36.435 25.9311 36.9721 26.137C40.1109 27.3443 42.3332 30.4045 42.3332 33.9983C42.3332 37.592 40.1109 40.6523 36.9721 41.8595C36.435 42.0748 35.8517 41.6536 35.8517 41.064Z" fill="#FAA61A"/>
</g>
<defs>
<clipPath id="clip0_2053_11839">
<rect width="48" height="48" fill="white"/>
</clipPath>
</defs>
</svg>
