<svg width="48" height="48" viewBox="0 0 48 48" fill="none" xmlns="http://www.w3.org/2000/svg">
<g clip-path="url(#clip0_2053_11803)">
<mask id="mask0_2053_11803" style="mask-type:alpha" maskUnits="userSpaceOnUse" x="0" y="0" width="48" height="48">
<path d="M48 0H0V48H34V47.1667C30.7706 47.1667 28.2605 45.7642 26.4936 43.809C24.8296 41.9677 23.8638 39.6987 23.2771 37.7534C22.1029 33.8601 22.0833 29.9971 22.0833 29.6154C22.0833 27.8848 23.016 26.2795 24.5374 25.4285L31.6654 21.4412C33.1171 20.6307 34.8829 20.6307 36.3346 21.4412L43.4616 25.428L43.4626 25.4285C44.984 26.2795 45.9167 27.8849 45.9167 29.6154H48V0Z" fill="#FF0000"/>
</mask>
<g mask="url(#mask0_2053_11803)">
<path fill-rule="evenodd" clip-rule="evenodd" d="M41.8197 14.6316C42.5464 14.1889 43.4684 14.2336 44.151 14.7465C44.8313 15.2617 45.1419 16.1386 44.9384 16.973L40.7384 34.0012C40.5034 34.9504 39.6633 35.6145 38.6995 35.6145H9.30052C8.33666 35.6145 7.49668 34.9482 7.26151 34.0012L3.06165 16.973C2.85798 16.1386 3.16875 15.2617 3.84912 14.7465C4.53371 14.2357 5.45348 14.191 6.18214 14.6316L14.9661 19.9742L22.2549 8.89102C22.3047 8.81532 22.3742 8.76529 22.4438 8.71513C22.4858 8.6849 22.5278 8.6546 22.5657 8.61858L20.5435 6.56669C20.1361 6.15377 20.1361 5.47477 20.5435 5.06185L23.2587 2.30969C23.6661 1.89677 24.3359 1.89677 24.7433 2.30969L27.4585 5.06185C27.8659 5.47477 27.8659 6.15377 27.4585 6.56669L25.4363 8.61858C25.4742 8.65533 25.517 8.68614 25.5599 8.71702C25.6288 8.76657 25.6979 8.81628 25.7471 8.89102L33.036 19.9742L41.8197 14.6316ZM7.20088 39.8714C7.20088 38.6958 8.13269 37.7428 9.28213 37.7428H38.7182C39.8677 37.7428 40.7995 38.6958 40.7995 39.8714C40.7995 41.047 39.8677 42 38.7182 42H9.28213C8.13269 42 7.20088 41.047 7.20088 39.8714Z" fill="#6A7480"/>
</g>
<path fill-rule="evenodd" clip-rule="evenodd" d="M41.5099 28.9194L34.3849 24.9337C34.145 24.7998 33.8553 24.7998 33.6154 24.9337L26.4904 28.9194C26.2395 29.0597 26.0835 29.3259 26.0835 29.6153C26.0835 30.1685 26.1737 43.1666 34.0002 43.1666C41.8266 43.1666 41.9168 30.1685 41.9168 29.6153C41.9168 29.3259 41.7609 29.0597 41.5099 28.9194ZM34.0002 29.6153C35.0935 29.6153 35.9793 30.5073 35.9793 31.6081C35.9793 32.709 35.0935 33.601 34.0002 33.601C32.9069 33.601 32.021 32.709 32.021 31.6081C32.021 30.5073 32.9069 29.6153 34.0002 29.6153ZM31.4481 37.5874C31.218 37.5874 31.0288 37.3999 31.0521 37.171C31.2144 35.5801 32.3206 34.5982 34.0002 34.5982C35.6798 34.5982 36.7859 35.5801 36.9482 37.171C36.9716 37.3999 36.7824 37.5874 36.5523 37.5874H31.4481Z" fill="#43B581"/>
</g>
<defs>
<clipPath id="clip0_2053_11803">
<rect width="48" height="48" fill="white"/>
</clipPath>
</defs>
</svg>
