<svg width="48" height="48" viewBox="0 0 48 48" fill="none" xmlns="http://www.w3.org/2000/svg">
<path fill-rule="evenodd" clip-rule="evenodd" d="M6 10C6 7.79086 7.79086 6 10 6H38C40.2091 6 42 7.79086 42 10V18C42 20.2091 40.2091 22 38 22H10C7.79086 22 6 20.2091 6 18V10ZM11.1716 16.8284C11.9217 17.5786 12.9391 18 14 18C15.0609 18 16.0783 17.5786 16.8284 16.8284C17.5786 16.0783 18 15.0609 18 14C18 12.9391 17.5786 11.9217 16.8284 11.1716C16.0783 10.4214 15.0609 10 14 10C12.9391 10 11.9217 10.4214 11.1716 11.1716C10.4214 11.9217 10 12.9391 10 14C10 15.0609 10.4214 16.0783 11.1716 16.8284Z" fill="#FAA61A"/>
<path fill-rule="evenodd" clip-rule="evenodd" d="M10 26C7.79086 26 6 27.7909 6 30V38C6 40.2091 7.79086 42 10 42H38C40.2091 42 42 40.2091 42 38V30C42 27.7909 40.2091 26 38 26H10ZM11.1716 36.8284C11.9217 37.5786 12.9391 38 14 38C15.0609 38 16.0783 37.5786 16.8284 36.8284C17.5786 36.0783 18 35.0609 18 34C18 32.9391 17.5786 31.9217 16.8284 31.1716C16.0783 30.4214 15.0609 30 14 30C12.9391 30 11.9217 30.4214 11.1716 31.1716C10.4214 31.9217 10 32.9391 10 34C10 35.0609 10.4214 36.0783 11.1716 36.8284Z" fill="#FAA61A"/>
</svg>
