<svg width="48" height="48" viewBox="0 0 48 48" fill="none" xmlns="http://www.w3.org/2000/svg">
<g clip-path="url(#clip0_2050_11427)">
<mask id="mask0_2050_11427" style="mask-type:alpha" maskUnits="userSpaceOnUse" x="0" y="0" width="48" height="48">
<path d="M0 0H48V27.4208H45.4479C45.1601 24.8627 43.137 22.8399 40.5793 22.5521C38.2888 22.2944 36.3334 23.0306 34.9753 23.7905C33.609 24.5551 32.5672 25.4975 31.9624 26.1025L30.4593 27.6053H28.0097C26.8383 27.6053 25.7149 28.0706 24.8866 28.8989L24.2031 29.5825C22.4283 31.3573 22.5673 34.0435 24.0603 35.6885C23.9391 35.9003 23.8451 36.0936 23.7732 36.2521C23.5603 36.7215 23.4075 37.1897 23.2964 37.5847C23.0745 38.3739 22.9353 39.1772 22.8513 39.7508C22.3885 42.9107 25.0879 45.6114 28.2483 45.1494V48H0V0Z" fill="#FF0000"/>
</mask>
<g mask="url(#mask0_2050_11427)">
<path d="M4 28.4881V19.5038C4 18.2684 5 17.2577 6.22222 17.2577H12.8889L20.2 9.86813C21.6 8.4531 24 9.46384 24 11.4628V36.5515C24 38.5505 21.6 39.5612 20.2 38.1462L12.8889 30.7341H6.22222C5 30.7341 4 29.7234 4 28.4881ZM34 23.9959C33.9995 25.8779 33.4792 27.7223 32.4977 29.3215C32.0571 30.0393 31.5315 30.6949 30.9351 31.2752C29.9225 32.2604 28.4444 31.3819 28.4444 29.9639V18.0424C28.4444 16.6263 29.9191 15.7476 30.933 16.7286C32.8223 18.5564 34 21.1303 34 23.9959ZM28.4444 40.9538V40.5046C28.4444 39.6511 29 38.9099 29.7778 38.5954C35.5111 36.2819 39.5556 30.5994 39.5556 23.9959C39.5556 17.3925 35.5111 11.7099 29.7778 9.39645C28.9778 9.082 28.4444 8.3408 28.4444 7.48729V7.03808C28.4444 5.62305 29.8444 4.63478 31.1333 5.12891C38.6667 8.02635 44 15.371 44 23.9959C44 32.6208 38.6667 39.9655 31.1333 42.8629C29.8444 43.3795 28.4444 42.3688 28.4444 40.9538Z" fill="#6A7480"/>
</g>
<path d="M27.761 37.3636C27.2481 37.8771 26.9547 39.3381 26.8093 40.3305C26.7346 40.8409 27.1597 41.2661 27.67 41.1915C28.6626 41.0464 30.124 40.7533 30.6373 40.2398C30.9018 39.9758 31.0753 39.6566 31.1636 39.3193C31.2238 39.0893 31.0313 38.8876 30.7935 38.8864L29.122 38.8781L29.1132 37.2068C29.112 36.9691 28.9103 36.7766 28.6803 36.837C28.3437 36.9255 28.0254 37.0992 27.761 37.3636Z" fill="#F04747"/>
<path fill-rule="evenodd" clip-rule="evenodd" d="M29.2015 34.5203C29.0389 34.6831 29.0389 34.9468 29.2016 35.1095L32.8913 38.7986C33.0541 38.9613 33.3178 38.9613 33.4806 38.7986L34.2556 38.0235L34.8889 40.7675C34.9625 41.0864 35.3581 41.1998 35.5895 40.9684L36.273 40.285C36.3511 40.2068 36.395 40.1008 36.395 39.9903V35.8841L39.0693 33.2097C39.9992 32.2799 41.7376 30.2178 41.4732 27.8679C41.3942 27.1651 40.8352 26.6061 40.1324 26.5271C37.7822 26.2626 35.7205 28.0011 34.7908 28.9312L32.1162 31.6053H28.01C27.8995 31.6053 27.7935 31.6492 27.7154 31.7273L27.0319 32.4108C26.8005 32.6423 26.9139 33.0379 27.2328 33.1115L29.9768 33.7447L29.2015 34.5203ZM38.8425 30.6685C38.8425 31.504 38.1652 32.1813 37.3297 32.1813C36.4942 32.1813 35.8169 31.504 35.8169 30.6685C35.8169 29.8331 36.4942 29.1558 37.3297 29.1558C38.1652 29.1558 38.8425 29.8331 38.8425 30.6685Z" fill="#F04747"/>
</g>
<defs>
<clipPath id="clip0_2050_11427">
<rect width="48" height="48" fill="white"/>
</clipPath>
</defs>
</svg>
