<svg width="48" height="48" viewBox="0 0 48 48" fill="none" xmlns="http://www.w3.org/2000/svg">
<g clip-path="url(#clip0_2012_11456)">
<mask id="mask0_2012_11456" style="mask-type:alpha" maskUnits="userSpaceOnUse" x="0" y="0" width="48" height="48">
<path d="M48 0H0V48H34V46.3333C27.1959 46.3333 21.6667 40.8041 21.6667 34C21.6667 27.1959 27.1959 21.6667 34 21.6667C40.8041 21.6667 46.3333 27.1959 46.3333 34H48V0Z" fill="#FF0000"/>
</mask>
<g mask="url(#mask0_2012_11456)">
<path d="M4 28.4881V19.5038C4 18.2684 5 17.2577 6.22222 17.2577H12.8889L20.2 9.86813C21.6 8.4531 24 9.46384 24 11.4628V36.5515C24 38.5505 21.6 39.5612 20.2 38.1462L12.8889 30.7341H6.22222C5 30.7341 4 29.7234 4 28.4881ZM34 23.9959C33.9995 25.8779 33.4792 27.7223 32.4977 29.3215C32.0571 30.0393 31.5315 30.6949 30.9351 31.2752C29.9225 32.2604 28.4444 31.3819 28.4444 29.9639V18.0424C28.4444 16.6263 29.9191 15.7476 30.933 16.7286C32.8223 18.5564 34 21.1303 34 23.9959ZM28.4444 40.9538V40.5046C28.4444 39.6511 29 38.9099 29.7778 38.5954C35.5111 36.2819 39.5556 30.5994 39.5556 23.9959C39.5556 17.3925 35.5111 11.7099 29.7778 9.39645C28.9778 9.082 28.4444 8.3408 28.4444 7.48729V7.03808C28.4444 5.62305 29.8444 4.63478 31.1333 5.12891C38.6667 8.02635 44 15.371 44 23.9959C44 32.6208 38.6667 39.9655 31.1333 42.8629C29.8444 43.3795 28.4444 42.3688 28.4444 40.9538Z" fill="#6A7480"/>
</g>
<path d="M34.0003 25.6667C29.4053 25.6667 25.667 29.4051 25.667 34.0001C25.667 38.5951 29.4053 42.3334 34.0003 42.3334C38.5953 42.3334 42.3337 38.5951 42.3337 34.0001C42.3337 29.4051 38.5953 25.6667 34.0003 25.6667ZM38.167 34.0001C38.167 34.4603 37.7939 34.8334 37.3337 34.8334H34.8337V37.3334C34.8337 37.7937 34.4606 38.1668 34.0003 38.1668C33.5401 38.1668 33.167 37.7937 33.167 37.3334V34.8334H30.667C30.2068 34.8334 29.8337 34.4603 29.8337 34.0001C29.8337 33.5399 30.2068 33.1668 30.667 33.1668H33.167V30.6667C33.167 30.2065 33.5401 29.8334 34.0003 29.8334C34.4606 29.8334 34.8337 30.2065 34.8337 30.6667V33.1668H37.3337C37.7939 33.1668 38.167 33.5399 38.167 34.0001Z" fill="#43B581"/>
</g>
<defs>
<clipPath id="clip0_2012_11456">
<rect width="48" height="48" fill="white"/>
</clipPath>
</defs>
</svg>
