<svg width="48" height="48" viewBox="0 0 48 48" fill="none" xmlns="http://www.w3.org/2000/svg">
<g clip-path="url(#clip0_2012_11460)">
<mask id="mask0_2012_11460" style="mask-type:alpha" maskUnits="userSpaceOnUse" x="0" y="0" width="48" height="48">
<path d="M48 0H0V48H29.6019V46.3333C26.4314 46.3333 23.8426 43.7637 23.8426 40.5789V32.0497C22.7652 31.1521 22.0833 29.7995 22.0833 28.2975C22.0833 25.6219 24.2471 23.4203 26.9564 23.4203H28.4288C29.2975 22.3527 30.6212 21.6667 32.1151 21.6667H35.8849C37.3788 21.6667 38.7025 22.3527 39.5712 23.4203H41.0436C43.7529 23.4203 45.9167 25.6219 45.9167 28.2975H48V0Z" fill="#F04747"/>
</mask>
<g mask="url(#mask0_2012_11460)">
<path d="M4 28.4881V19.5038C4 18.2684 5 17.2577 6.22222 17.2577H12.8889L20.2 9.86813C21.6 8.4531 24 9.46384 24 11.4628V36.5515C24 38.5505 21.6 39.5612 20.2 38.1462L12.8889 30.7341H6.22222C5 30.7341 4 29.7234 4 28.4881ZM34 23.9959C33.9995 25.8779 33.4792 27.7223 32.4977 29.3215C32.0571 30.0393 31.5315 30.6949 30.9351 31.2752C29.9225 32.2604 28.4444 31.3819 28.4444 29.9639V18.0424C28.4444 16.6263 29.9191 15.7476 30.933 16.7286C32.8223 18.5564 34 21.1303 34 23.9959ZM28.4444 40.9538V40.5046C28.4444 39.6511 29 38.9099 29.7778 38.5954C35.5111 36.2819 39.5556 30.5994 39.5556 23.9959C39.5556 17.3925 35.5111 11.7099 29.7778 9.39645C28.9778 9.082 28.4444 8.3408 28.4444 7.48729V7.03808C28.4444 5.62305 29.8444 4.63478 31.1333 5.12891C38.6667 8.02635 44 15.371 44 23.9959C44 32.6208 38.6667 39.9655 31.1333 42.8629C29.8444 43.3795 28.4444 42.3688 28.4444 40.9538Z" fill="#6A7480"/>
</g>
<path d="M36.6386 27.4203V26.4243C36.6386 26.0059 36.301 25.6667 35.8846 25.6667H32.1148C31.6983 25.6667 31.3608 26.0059 31.3608 26.4243V27.4203H26.9561C26.4739 27.4203 26.083 27.8131 26.083 28.2976C26.083 28.7821 26.4739 29.1748 26.9561 29.1748H41.0433C41.5255 29.1748 41.9163 28.7821 41.9163 28.2976C41.9163 27.8131 41.5255 27.4203 41.0433 27.4203H36.6386Z" fill="#F04747"/>
<path d="M27.8423 30.0521V40.5789C27.8423 41.5457 28.6313 42.3334 29.6015 42.3334H38.3978C39.3681 42.3334 40.1571 41.5457 40.1571 40.5789V30.0521H27.8423ZM33.12 37.9415C33.12 38.4296 32.7262 38.8253 32.2404 38.8253C31.7546 38.8253 31.3608 38.4296 31.3608 37.9415V34.4457C31.3608 33.9576 31.7546 33.5619 32.2404 33.5619C32.7262 33.5619 33.12 33.9576 33.12 34.4457V37.9415ZM36.6386 37.9415C36.6386 38.4296 36.2447 38.8253 35.7589 38.8253C35.2731 38.8253 34.8793 38.4296 34.8793 37.9415V34.4457C34.8793 33.9576 35.2731 33.5619 35.7589 33.5619C36.2447 33.5619 36.6386 33.9576 36.6386 34.4457V37.9415Z" fill="#F04747"/>
</g>
<defs>
<clipPath id="clip0_2012_11460">
<rect width="48" height="48" fill="white"/>
</clipPath>
</defs>
</svg>
