<svg width="48" height="48" viewBox="0 0 48 48" fill="none" xmlns="http://www.w3.org/2000/svg">
<g clip-path="url(#clip0_2012_11464)">
<mask id="mask0_2012_11464" style="mask-type:alpha" maskUnits="userSpaceOnUse" x="0" y="0" width="48" height="48">
<path d="M48 0H0V48H24.0993V43.6923C22.9203 42.5131 22.4455 40.8007 22.85 39.1822L23.501 36.5779C23.8738 35.0866 24.6223 33.7156 25.6752 32.5956L32.084 25.7789L33.7272 24.1378L33.7284 24.1367L33.7293 24.1358C36.4684 21.3985 40.9161 21.3992 43.6544 24.1378L43.6554 24.1388C45.7777 26.2629 46.255 29.4144 45.085 32H48V0Z" fill="#FAA61A"/>
</mask>
<g mask="url(#mask0_2012_11464)">
<path d="M4 28.4881V19.5038C4 18.2684 5 17.2577 6.22222 17.2577H12.8889L20.2 9.86813C21.6 8.4531 24 9.46384 24 11.4628V36.5515C24 38.5505 21.6 39.5612 20.2 38.1462L12.8889 30.7341H6.22222C5 30.7341 4 29.7234 4 28.4881ZM34 23.9959C33.9995 25.8779 33.4792 27.7223 32.4977 29.3215C32.0571 30.0393 31.5315 30.6949 30.9351 31.2752C29.9225 32.2604 28.4444 31.3819 28.4444 29.9639V18.0424C28.4444 16.6263 29.9191 15.7476 30.933 16.7286C32.8223 18.5564 34 21.1303 34 23.9959ZM28.4444 40.9538V40.5046C28.4444 39.6511 29 38.9099 29.7778 38.5954C35.5111 36.2819 39.5556 30.5994 39.5556 23.9959C39.5556 17.3925 35.5111 11.7099 29.7778 9.39645C28.9778 9.082 28.4444 8.3408 28.4444 7.48729V7.03808C28.4444 5.62305 29.8444 4.63478 31.1333 5.12891C38.6667 8.02635 44 15.371 44 23.9959C44 32.6208 38.6667 39.9655 31.1333 42.8629C29.8444 43.3795 28.4444 42.3688 28.4444 40.9538Z" fill="#6A7480"/>
</g>
<path fill-rule="evenodd" clip-rule="evenodd" d="M40.2854 31.7759L40.8254 31.2366C42.0022 30.0596 42.0022 28.1437 40.8254 26.966C39.6486 25.789 37.7324 25.789 36.5555 26.966L36.0163 27.5061L40.2854 31.7759ZM34.9549 28.5646L28.5286 34.9937L32.7984 39.2631L39.2248 32.8339L34.9549 28.5646ZM27.6401 41.0612L31.5072 40.0951L27.6971 36.2843L26.7303 40.1521C26.6666 40.4071 26.7416 40.6779 26.9276 40.864C27.1136 41.05 27.3843 41.1243 27.6401 41.0612Z" fill="#FAA61A"/>
</g>
<defs>
<clipPath id="clip0_2012_11464">
<rect width="48" height="48" fill="white"/>
</clipPath>
</defs>
</svg>
