<svg width="48" height="48" viewBox="0 0 48 48" fill="none" xmlns="http://www.w3.org/2000/svg">
<g clip-path="url(#clip0_2012_11472)">
<mask id="mask0_2012_11472" style="mask-type:alpha" maskUnits="userSpaceOnUse" x="0" y="0" width="48" height="48">
<path d="M48 0H0V48H28.537V45.9167C25.8932 45.9167 23.75 43.7734 23.75 41.1296V26.875C23.75 24.2536 25.868 22.0833 28.537 22.0833H35.6204C37.7103 22.0833 39.4624 23.414 40.1243 25.25H41.1296C43.7987 25.25 45.9167 27.4203 45.9167 30.0417H48V0Z" fill="#FF0000"/>
</mask>
<g mask="url(#mask0_2012_11472)">
<path d="M4 28.4881V19.5038C4 18.2684 5 17.2577 6.22222 17.2577H12.8889L20.2 9.86813C21.6 8.4531 24 9.46384 24 11.4628V36.5515C24 38.5505 21.6 39.5612 20.2 38.1462L12.8889 30.7341H6.22222C5 30.7341 4 29.7234 4 28.4881ZM34 23.9959C33.9995 25.8779 33.4792 27.7223 32.4977 29.3215C32.0571 30.0393 31.5315 30.6949 30.9351 31.2752C29.9225 32.2604 28.4444 31.3819 28.4444 29.9639V18.0424C28.4444 16.6263 29.9191 15.7476 30.933 16.7286C32.8223 18.5564 34 21.1303 34 23.9959ZM28.4444 40.9538V40.5046C28.4444 39.6511 29 38.9099 29.7778 38.5954C35.5111 36.2819 39.5556 30.5994 39.5556 23.9959C39.5556 17.3925 35.5111 11.7099 29.7778 9.39645C28.9778 9.082 28.4444 8.3408 28.4444 7.48729V7.03808C28.4444 5.62305 29.8444 4.63478 31.1333 5.12891C38.6667 8.02635 44 15.371 44 23.9959C44 32.6208 38.6667 39.9655 31.1333 42.8629C29.8444 43.3795 28.4444 42.3688 28.4444 40.9538Z" fill="#6A7480"/>
</g>
<path d="M41.1296 29.2499H36.4074V26.8749C36.4074 26.4379 36.0556 26.0833 35.6204 26.0833H28.537C28.1018 26.0833 27.75 26.4379 27.75 26.8749V41.1295C27.75 41.5642 28.1024 41.9166 28.537 41.9166C28.9717 41.9166 29.3241 41.5642 29.3241 41.1295V35.5832H33.7205L31.9158 37.3985C31.6907 37.625 31.6238 37.9654 31.745 38.2615C31.8662 38.5575 32.1543 38.7499 32.4722 38.7499H41.1296C41.5649 38.7499 41.9167 38.3953 41.9167 37.9583V30.0416C41.9167 29.6046 41.5649 29.2499 41.1296 29.2499Z" fill="#FAA61A"/>
</g>
<defs>
<clipPath id="clip0_2012_11472">
<rect width="48" height="48" fill="white"/>
</clipPath>
</defs>
</svg>
