<svg width="48" height="48" viewBox="0 0 48 48" fill="none" xmlns="http://www.w3.org/2000/svg">
<path fill-rule="evenodd" clip-rule="evenodd" d="M13.2857 13C13.2857 7.2103 18.0943 2.5 24 2.5C29.91 2.5 34.7143 7.2103 34.7143 13V21.4C37.0779 21.4 39 23.2816 39 25.6V40.3C39 42.6163 37.0779 44.5 34.7143 44.5H13.2857C10.9221 44.5 9 42.6163 9 40.3V25.6C9 23.2816 10.9221 21.4 13.2857 21.4H30.4286V13C30.4286 9.5266 27.5443 6.7 24 6.7C20.4557 6.7 17.5714 9.5266 17.5714 13C17.5714 14.1046 16.676 15 15.5714 15H15.2857C14.1811 15 13.2857 14.1046 13.2857 13ZM27.2143 32.95C27.2143 34.6888 25.7743 36.1 24 36.1C22.2257 36.1 20.7857 34.6888 20.7857 32.95C20.7857 31.2112 22.2257 29.8 24 29.8C25.7743 29.8 27.2143 31.2112 27.2143 32.95Z" fill="#06C270"/>
</svg>
