<svg width="48" height="48" viewBox="0 0 48 48" fill="none" xmlns="http://www.w3.org/2000/svg">
<path d="M24 4C12.96 4 4 12.96 4 24C4 35.04 12.96 44 24 44C35.04 44 44 35.04 44 24C44 12.96 35.04 4 24 4ZM19 29.34V18.66C19 17.08 20.76 16.12 22.08 16.98L30.38 22.32C30.6607 22.5013 30.8915 22.7501 31.0513 23.0435C31.2111 23.337 31.2948 23.6658 31.2948 24C31.2948 24.3342 31.2111 24.663 31.0513 24.9565C30.8915 25.2499 30.6607 25.4987 30.38 25.68L22.08 31.02C20.76 31.88 19 30.92 19 29.34Z" fill="#43B581"/>
</svg>
