<svg width="48" height="48" viewBox="0 0 48 48" fill="none" xmlns="http://www.w3.org/2000/svg">
<g clip-path="url(#clip0_2053_12237)">
<mask id="mask0_2053_12237" style="mask-type:alpha" maskUnits="userSpaceOnUse" x="0" y="0" width="48" height="48">
<path d="M48 0H0V48H29V44.6667C25.4074 44.6667 22.5 41.759 22.5 38.1666V32.5915C22.5 26.6749 26.9748 21.2644 33.241 20.858C39.9277 20.4241 45.5 25.7275 45.5 32.3331V38.1666H48V0Z" fill="url(#paint0_linear_2053_12237)"/>
</mask>
<g mask="url(#mask0_2053_12237)">
<path d="M42 21.8758C42 32.304 35.4563 42.1079 26.3329 45.5719C24.8298 46.1427 23.1703 46.1427 21.6671 45.5719C12.5437 42.1079 6 32.304 6 21.8758V12.9695C6 10.9584 7.16367 9.13595 8.96931 8.31917L21.9693 2.43861C23.2621 1.8538 24.7379 1.8538 26.0307 2.43861L39.0307 8.31916C40.8363 9.13595 42 10.9584 42 12.9695V21.8758ZM24 39.582C24 40.9195 25.2505 41.8869 26.4366 41.3114C32.8542 38.1977 38 30.1479 38 22.3236V15.6119C38 13.6028 36.8386 11.7817 35.0355 10.9638L26.8142 7.23423C25.4914 6.63416 24 7.61949 24 9.09349V39.582Z" fill="#6A7480"/>
</g>
<path d="M33.5 24.8495C29.5167 25.1078 26.5 28.5996 26.5 32.5914V38.1665C26.5 39.5499 27.6167 40.6666 29 40.6666H29.8333C30.75 40.6666 31.5 39.9166 31.5 38.9999V35.6665C31.5 34.7498 30.75 33.9997 29.8333 33.9997H28.1667V32.5747C28.1667 29.3746 30.6333 26.5912 33.825 26.4995C34.6057 26.476 35.3831 26.6095 36.1112 26.8921C36.8393 27.1747 37.5033 27.6007 38.0636 28.1447C38.624 28.6888 39.0694 29.3399 39.3734 30.0593C39.6774 30.7788 39.8338 31.552 39.8333 32.333V33.9997H38.1667C37.25 33.9997 36.5 34.7498 36.5 35.6665V38.9999C36.5 39.9166 37.25 40.6666 38.1667 40.6666H39C40.3833 40.6666 41.5 39.5499 41.5 38.1665V32.333C41.5 28.0246 37.8667 24.5662 33.5 24.8495Z" fill="#43B581"/>
</g>
<defs>
<linearGradient id="paint0_linear_2053_12237" x1="0" y1="0" x2="48" y2="48" gradientUnits="userSpaceOnUse">
<stop stop-color="#00AAFF"/>
<stop offset="0.491669" stop-color="#007FFF"/>
<stop offset="1" stop-color="#0055FF"/>
<stop offset="1" stop-color="#0055FF"/>
</linearGradient>
<clipPath id="clip0_2053_12237">
<rect width="48" height="48" fill="white"/>
</clipPath>
</defs>
</svg>
