<svg width="48" height="48" viewBox="0 0 48 48" fill="none" xmlns="http://www.w3.org/2000/svg">
<g clip-path="url(#clip0_2213_398)">
<mask id="mask0_2213_398" style="mask-type:alpha" maskUnits="userSpaceOnUse" x="0" y="0" width="48" height="48">
<path d="M48 0H0V48H34V46.3333C27.1959 46.3333 21.6667 40.8041 21.6667 34C21.6667 27.1959 27.1959 21.6667 34 21.6667C40.8041 21.6667 46.3333 27.1959 46.3333 34H48V0Z" fill="#FF0000"/>
</mask>
<g mask="url(#mask0_2213_398)">
<path d="M42 21.8758C42 32.304 35.4563 42.1079 26.3329 45.572C24.8297 46.1427 23.1703 46.1427 21.6671 45.572C12.5437 42.1079 6 32.304 6 21.8758V12.9695C6 10.9584 7.16367 9.13595 8.96931 8.31917L21.9693 2.43861C23.2621 1.8538 24.7379 1.8538 26.0307 2.43861L39.0307 8.31916C40.8363 9.13595 42 10.9584 42 12.9695V21.8758ZM24 39.582C24 40.9195 25.2505 41.8869 26.4366 41.3114C32.8542 38.1977 38 30.1479 38 22.3236V15.6119C38 13.6028 36.8386 11.7817 35.0355 10.9638L26.8142 7.23423C25.4914 6.63416 24 7.61949 24 9.09349V39.582Z" fill="#6A7480"/>
</g>
<path d="M33.9998 25.6667C29.3968 25.6667 25.6665 29.3971 25.6665 34.0001C25.6665 38.6031 29.3968 42.3334 33.9998 42.3334C38.6028 42.3334 42.3332 38.6031 42.3332 34.0001C42.3332 29.3971 38.6028 25.6667 33.9998 25.6667ZM33.9998 28.6667C34.3683 28.6667 34.6665 28.9649 34.6665 29.3334V33.6147L37.8019 35.4272C38.1209 35.6108 38.2251 36.0145 38.0415 36.3335C37.8579 36.6526 37.4543 36.7567 37.1353 36.5731L33.7393 34.6147C33.7132 34.6043 33.6898 34.5874 33.6663 34.5731C33.4671 34.4572 33.333 34.2462 33.333 34.0002V29.3335C33.333 28.965 33.6313 28.6667 33.9998 28.6667Z" fill="#43B581"/>
</g>
<defs>
<clipPath id="clip0_2213_398">
<rect width="48" height="48" fill="white"/>
</clipPath>
</defs>
</svg>
