<svg width="48" height="48" viewBox="0 0 48 48" fill="none" xmlns="http://www.w3.org/2000/svg">
<g clip-path="url(#clip0_2053_12209)">
<mask id="mask0_2053_12209" style="mask-type:alpha" maskUnits="userSpaceOnUse" x="0" y="0" width="48" height="48">
<path d="M48 0H0V48H24.0993V43.6923C22.9203 42.5131 22.4455 40.8007 22.85 39.1822L23.501 36.5779C23.8738 35.0866 24.6223 33.7156 25.6752 32.5956L32.084 25.7789L33.7272 24.1378L33.7284 24.1367L33.7293 24.1358C36.4684 21.3985 40.9161 21.3992 43.6544 24.1378L43.6554 24.1388C45.7777 26.2629 46.255 29.4144 45.085 32H48V0Z" fill="#FAA61A"/>
</mask>
<g mask="url(#mask0_2053_12209)">
<path d="M42 21.8758C42 32.304 35.4563 42.1079 26.3329 45.5719C24.8298 46.1427 23.1703 46.1427 21.6671 45.5719C12.5437 42.1079 6 32.304 6 21.8758V12.9695C6 10.9584 7.16367 9.13595 8.96931 8.31917L21.9693 2.43861C23.2621 1.8538 24.7379 1.8538 26.0307 2.43861L39.0307 8.31916C40.8363 9.13595 42 10.9584 42 12.9695V21.8758ZM24 39.582C24 40.9195 25.2505 41.8869 26.4366 41.3114C32.8542 38.1977 38 30.1479 38 22.3236V15.6119C38 13.6028 36.8386 11.7817 35.0355 10.9638L26.8142 7.23423C25.4914 6.63416 24 7.61949 24 9.09349V39.582Z" fill="#6A7480"/>
</g>
<path fill-rule="evenodd" clip-rule="evenodd" d="M40.2859 31.7759L40.8259 31.2366C42.0027 30.0596 42.0027 28.1437 40.8259 26.966C39.6491 25.789 37.7328 25.789 36.556 26.966L36.0168 27.5061L40.2859 31.7759ZM34.9553 28.5646L28.5291 34.9937L32.7989 39.2631L39.2253 32.8339L34.9553 28.5646ZM27.6406 41.0612L31.5077 40.0951L27.6976 36.2843L26.7308 40.1521C26.6671 40.4071 26.7421 40.6779 26.9281 40.864C27.1141 41.05 27.3848 41.1243 27.6406 41.0612Z" fill="#FAA61A"/>
</g>
<defs>
<clipPath id="clip0_2053_12209">
<rect width="48" height="48" fill="white"/>
</clipPath>
</defs>
</svg>
