<svg width="48" height="48" viewBox="0 0 48 48" fill="none" xmlns="http://www.w3.org/2000/svg">
<g clip-path="url(#clip0_2053_12217)">
<mask id="mask0_2053_12217" style="mask-type:alpha" maskUnits="userSpaceOnUse" x="0" y="0" width="48" height="48">
<path d="M48 0H0V48H34V46.3333C27.1959 46.3333 21.6667 40.8041 21.6667 34C21.6667 27.1959 27.1959 21.6667 34 21.6667C40.8041 21.6667 46.3333 27.1959 46.3333 34H48V0Z" fill="#FF0000"/>
</mask>
<g mask="url(#mask0_2053_12217)">
<path d="M42 21.8758C42 32.304 35.4563 42.1079 26.3329 45.5719C24.8298 46.1427 23.1703 46.1427 21.6671 45.5719C12.5437 42.1079 6 32.304 6 21.8758V12.9695C6 10.9584 7.16367 9.13595 8.96931 8.31917L21.9693 2.43861C23.2621 1.8538 24.7379 1.8538 26.0307 2.43861L39.0307 8.31916C40.8363 9.13595 42 10.9584 42 12.9695V21.8758ZM24 39.582C24 40.9195 25.2505 41.8869 26.4366 41.3114C32.8542 38.1977 38 30.1479 38 22.3236V15.6119C38 13.6028 36.8386 11.7817 35.0355 10.9638L26.8142 7.23423C25.4914 6.63416 24 7.61949 24 9.09349V39.582Z" fill="#6A7480"/>
</g>
<path d="M35.3002 34.8334L33.979 36.1536C33.6524 36.48 33.653 37.0096 33.9803 37.3352C34.3063 37.6594 34.8332 37.6588 35.1584 37.3338L38.5017 33.9926L35.1583 30.6641C34.8323 30.3395 34.305 30.34 33.9796 30.6653C33.653 30.9917 33.6536 31.5212 33.9809 31.847L35.3069 33.1667H25.6665C26.0867 28.9626 29.6533 25.6667 33.9785 25.6667C38.5853 25.6667 42.3332 29.4059 42.3332 34.0001C42.3332 38.5942 38.5853 42.3334 33.9785 42.3334C29.6533 42.3334 26.0867 39.0384 25.6665 34.8334H35.3002Z" fill="#43B581"/>
</g>
<defs>
<clipPath id="clip0_2053_12217">
<rect width="48" height="48" fill="white"/>
</clipPath>
</defs>
</svg>
