<svg width="48" height="48" viewBox="0 0 48 48" fill="none" xmlns="http://www.w3.org/2000/svg">
<g clip-path="url(#clip0_2053_12229)">
<mask id="mask0_2053_12229" style="mask-type:alpha" maskUnits="userSpaceOnUse" x="0" y="0" width="48" height="48">
<path fill-rule="evenodd" clip-rule="evenodd" d="M25.5944 34.9171L25.5957 34.9253C25.5953 34.9225 25.5948 34.9198 25.5944 34.9171Z" fill="#6A7480"/>
<path d="M0 0H48V40.8443H41.179C42.7545 39.3475 43.814 37.3856 44.181 35.2357L44.1814 35.2337C44.646 32.5127 42.8659 30.407 40.7078 29.7646V28.2982C40.7078 24.5247 37.5972 21.6667 33.999 21.6667C30.4008 21.6667 27.2903 24.5247 27.2903 28.2982V29.7614C25.1088 30.4049 23.3995 32.5348 23.8067 35.1718L23.8108 35.1982L23.8152 35.2246C24.3589 38.4586 26.429 41.1114 29.2161 42.5421C29.7212 44.7766 31.7518 46.3333 33.999 46.3333L34 48H0V0Z" fill="#6A7480"/>
</mask>
<g mask="url(#mask0_2053_12229)">
<path d="M42 21.8758C42 32.304 35.4563 42.1079 26.3329 45.5719C24.8298 46.1427 23.1703 46.1427 21.6671 45.5719C12.5437 42.1079 6 32.304 6 21.8758V12.9695C6 10.9584 7.16367 9.13595 8.96931 8.31917L21.9693 2.43861C23.2621 1.8538 24.7379 1.8538 26.0307 2.43861L39.0307 8.31916C40.8363 9.13595 42 10.9584 42 12.9695V21.8758ZM24 39.582C24 40.9195 25.2505 41.8869 26.4366 41.3114C32.8542 38.1977 38 30.1479 38 22.3236V15.6119C38 13.6028 36.8386 11.7817 35.0355 10.9638L26.8142 7.23423C25.4914 6.63416 24 7.61949 24 9.09349V39.582Z" fill="#6A7480"/>
</g>
<path d="M33.999 36.1931C35.4979 36.1931 36.7078 35.0176 36.7078 33.5615V28.2983C36.7078 26.8422 35.4979 25.6667 33.999 25.6667C32.5002 25.6667 31.2903 26.8422 31.2903 28.2983V33.5615C31.2903 35.0176 32.5002 36.1931 33.999 36.1931ZM39.3353 33.5615C38.8929 33.5615 38.5227 33.8773 38.4505 34.3071C38.0803 36.3685 36.2293 37.9475 33.999 37.9475C31.7688 37.9475 29.9178 36.3685 29.5476 34.3071C29.5158 34.1008 29.4091 33.9123 29.2469 33.7756C29.0847 33.6389 28.8775 33.5629 28.6628 33.5615C28.112 33.5615 27.6786 34.0352 27.7598 34.5615C28.2023 37.1931 30.3693 39.2545 33.0961 39.6317V41.4562C33.0961 41.9387 33.5024 42.3334 33.999 42.3334C34.4956 42.3334 34.902 41.9387 34.902 41.4562V39.6317C36.2306 39.4473 37.4643 38.8563 38.4238 37.9446C39.3834 37.0329 40.0189 35.8479 40.2383 34.5615C40.3285 34.0352 39.8861 33.5615 39.3353 33.5615Z" fill="#43B581"/>
</g>
<defs>
<clipPath id="clip0_2053_12229">
<rect width="48" height="48" fill="white"/>
</clipPath>
</defs>
</svg>
