<svg width="48" height="48" viewBox="0 0 48 48" fill="none" xmlns="http://www.w3.org/2000/svg">
<g clip-path="url(#clip0_2053_12201)">
<mask id="mask0_2053_12201" style="mask-type:alpha" maskUnits="userSpaceOnUse" x="0" y="0" width="48" height="48">
<path d="M48 0H0V48H34V46.3333C27.1959 46.3333 21.6667 40.8041 21.6667 34C21.6667 27.1959 27.1959 21.6667 34 21.6667C40.8041 21.6667 46.3333 27.1959 46.3333 34H48V0Z" fill="#FF0000"/>
</mask>
<g mask="url(#mask0_2053_12201)">
<path d="M42 21.8758C42 32.304 35.4563 42.1079 26.3329 45.5719C24.8298 46.1427 23.1703 46.1427 21.6671 45.5719C12.5437 42.1079 6 32.304 6 21.8758V12.9695C6 10.9584 7.16367 9.13595 8.96931 8.31917L21.9693 2.43861C23.2621 1.8538 24.7379 1.8538 26.0307 2.43861L39.0307 8.31916C40.8363 9.13595 42 10.9584 42 12.9695V21.8758ZM24 39.582C24 40.9195 25.2505 41.8869 26.4366 41.3114C32.8542 38.1977 38 30.1479 38 22.3236V15.6119C38 13.6028 36.8386 11.7817 35.0355 10.9638L26.8142 7.23423C25.4914 6.63416 24 7.61949 24 9.09349V39.582Z" fill="#6A7480"/>
</g>
<path d="M33.9998 25.6667C29.4048 25.6667 25.6665 29.4051 25.6665 34.0001C25.6665 38.5951 29.4048 42.3334 33.9998 42.3334C38.5948 42.3334 42.3332 38.5951 42.3332 34.0001C42.3332 29.4051 38.5948 25.6667 33.9998 25.6667ZM38.1665 34.0001C38.1665 34.4603 37.7934 34.8334 37.3332 34.8334H34.8332V37.3334C34.8332 37.7937 34.4601 38.1668 33.9998 38.1668C33.5396 38.1668 33.1665 37.7937 33.1665 37.3334V34.8334H30.6665C30.2063 34.8334 29.8332 34.4603 29.8332 34.0001C29.8332 33.5399 30.2063 33.1668 30.6665 33.1668H33.1665V30.6667C33.1665 30.2065 33.5396 29.8334 33.9998 29.8334C34.4601 29.8334 34.8332 30.2065 34.8332 30.6667V33.1668H37.3332C37.7934 33.1668 38.1665 33.5399 38.1665 34.0001Z" fill="#43B581"/>
</g>
<defs>
<clipPath id="clip0_2053_12201">
<rect width="48" height="48" fill="white"/>
</clipPath>
</defs>
</svg>
