<svg width="48" height="48" viewBox="0 0 48 48" fill="none" xmlns="http://www.w3.org/2000/svg">
<path d="M42 21.8758C42 32.304 35.4563 42.1079 26.3329 45.5719C24.8298 46.1427 23.1703 46.1427 21.6671 45.5719C12.5437 42.1079 6 32.304 6 21.8758V12.9695C6 10.9584 7.16367 9.13595 8.96931 8.31917L21.9693 2.43861C23.2621 1.8538 24.7379 1.8538 26.0307 2.43861L39.0307 8.31916C40.8363 9.13595 42 10.9584 42 12.9695V21.8758ZM24 39.582C24 40.9195 25.2505 41.8869 26.4366 41.3114C32.8542 38.1977 38 30.1479 38 22.3236V15.6119C38 13.6028 36.8386 11.7817 35.0355 10.9638L26.8142 7.23423C25.4914 6.63416 24 7.61949 24 9.09349V39.582Z" fill="#43B581"/>
</svg>
