<svg width="48" height="48" viewBox="0 0 48 48" fill="none" xmlns="http://www.w3.org/2000/svg">
<g clip-path="url(#clip0_2053_12241)">
<mask id="mask0_2053_12241" style="mask-type:alpha" maskUnits="userSpaceOnUse" x="0" y="0" width="48" height="48">
<path d="M48 0H0V48H29V44.6667C25.4074 44.6667 22.5 41.759 22.5 38.1666V32.5915C22.5 26.6749 26.9748 21.2644 33.241 20.858C39.9277 20.4241 45.5 25.7275 45.5 32.3331V38.1666H48V0Z" fill="url(#paint0_linear_2053_12241)"/>
</mask>
<g mask="url(#mask0_2053_12241)">
<path d="M42 21.8758C42 32.304 35.4563 42.1079 26.3329 45.5719C24.8298 46.1427 23.1703 46.1427 21.6671 45.5719C12.5437 42.1079 6 32.304 6 21.8758V12.9695C6 10.9584 7.16367 9.13595 8.96931 8.31917L21.9693 2.43861C23.2621 1.8538 24.7379 1.8538 26.0307 2.43861L39.0307 8.31916C40.8363 9.13595 42 10.9584 42 12.9695V21.8758ZM24 39.582C24 40.9195 25.2505 41.8869 26.4366 41.3114C32.8542 38.1977 38 30.1479 38 22.3236V15.6119C38 13.6028 36.8386 11.7817 35.0355 10.9638L26.8142 7.23423C25.4914 6.63416 24 7.61949 24 9.09349V39.582Z" fill="#6A7480"/>
</g>
<path d="M26.5 32.5914C26.5 28.5996 29.5167 25.1078 33.5 24.8495C35.2869 24.7336 36.951 25.2442 38.2936 26.1833L37.0932 27.3842C36.7829 27.1901 36.4542 27.0252 36.1112 26.8921C35.3831 26.6095 34.6057 26.476 33.825 26.4995C30.6333 26.5912 28.1667 29.3746 28.1667 32.5747V33.9997H29.8333C30.0267 33.9997 30.2126 34.0331 30.3857 34.0944L26.5 37.9816V32.5914Z" fill="#F04747"/>
<path d="M29.8333 40.6666H29C28.8381 40.6666 28.6799 40.6513 28.5266 40.6221C28.2238 40.5646 27.9512 40.459 27.6976 40.3023C27.464 40.1579 27.2439 39.9686 27.07 39.7577L39.877 26.94C40.2033 26.6136 40.7387 26.6136 41.065 26.94C41.3862 27.2606 41.3831 27.8023 41.065 28.1198L40.5348 28.6501C41.1493 29.7379 41.5 30.9944 41.5 32.333V38.1665C41.5 39.5499 40.3833 40.6666 39 40.6666H38.1667C37.25 40.6666 36.5 39.9166 36.5 38.9999V35.6665C36.5 34.7498 37.25 33.9997 38.1667 33.9997H39.8333V32.333C39.8338 31.552 39.3734 30.0593 39.3734 30.0593C39.3734 30.0593 39.3237 29.9444 39.2976 29.8876L31.5 37.6866V38.9999C31.5 39.9166 30.75 40.6666 29.8333 40.6666Z" fill="#F04747"/>
</g>
<defs>
<linearGradient id="paint0_linear_2053_12241" x1="0" y1="0" x2="48" y2="48" gradientUnits="userSpaceOnUse">
<stop stop-color="#00AAFF"/>
<stop offset="0.491669" stop-color="#007FFF"/>
<stop offset="1" stop-color="#0055FF"/>
<stop offset="1" stop-color="#0055FF"/>
</linearGradient>
<clipPath id="clip0_2053_12241">
<rect width="48" height="48" fill="white"/>
</clipPath>
</defs>
</svg>
