<svg width="48" height="48" viewBox="0 0 48 48" fill="none" xmlns="http://www.w3.org/2000/svg">
<g clip-path="url(#clip0_2053_12225)">
<mask id="mask0_2053_12225" style="mask-type:alpha" maskUnits="userSpaceOnUse" x="0" y="0" width="48" height="48">
<path d="M48 0H0V48H34V47.1667C30.7706 47.1667 28.2605 45.7642 26.4936 43.809C24.8296 41.9677 23.8638 39.6987 23.2771 37.7534C22.1029 33.8601 22.0833 29.9971 22.0833 29.6154C22.0833 27.8848 23.016 26.2795 24.5374 25.4285L31.6654 21.4412C33.1171 20.6307 34.8829 20.6307 36.3346 21.4412L43.4616 25.428L43.4626 25.4285C44.984 26.2795 45.9167 27.8849 45.9167 29.6154H48V0Z" fill="#FF0000"/>
</mask>
<g mask="url(#mask0_2053_12225)">
<path d="M42 21.8758C42 32.304 35.4563 42.1079 26.3329 45.5719C24.8298 46.1427 23.1703 46.1427 21.6671 45.5719C12.5437 42.1079 6 32.304 6 21.8758V12.9695C6 10.9584 7.16367 9.13595 8.96931 8.31917L21.9693 2.43861C23.2621 1.8538 24.7379 1.8538 26.0307 2.43861L39.0307 8.31916C40.8363 9.13595 42 10.9584 42 12.9695V21.8758ZM24 39.582C24 40.9195 25.2505 41.8869 26.4366 41.3114C32.8542 38.1977 38 30.1479 38 22.3236V15.6119C38 13.6028 36.8386 11.7817 35.0355 10.9638L26.8142 7.23423C25.4914 6.63416 24 7.61949 24 9.09349V39.582Z" fill="#6A7480"/>
</g>
<path fill-rule="evenodd" clip-rule="evenodd" d="M41.5099 28.9194L34.3849 24.9337C34.145 24.7998 33.8553 24.7998 33.6154 24.9337L26.4904 28.9194C26.2395 29.0597 26.0835 29.3259 26.0835 29.6153C26.0835 30.1685 26.1737 43.1666 34.0002 43.1666C41.8266 43.1666 41.9168 30.1685 41.9168 29.6153C41.9168 29.3259 41.7609 29.0597 41.5099 28.9194ZM34.0002 29.6153C35.0935 29.6153 35.9793 30.5073 35.9793 31.6081C35.9793 32.709 35.0935 33.601 34.0002 33.601C32.9069 33.601 32.021 32.709 32.021 31.6081C32.021 30.5073 32.9069 29.6153 34.0002 29.6153ZM31.4481 37.5874C31.218 37.5874 31.0288 37.3999 31.0521 37.171C31.2144 35.5801 32.3206 34.5982 34.0002 34.5982C35.6798 34.5982 36.7859 35.5801 36.9482 37.171C36.9716 37.3999 36.7824 37.5874 36.5523 37.5874H31.4481Z" fill="#F04747"/>
</g>
<defs>
<clipPath id="clip0_2053_12225">
<rect width="48" height="48" fill="white"/>
</clipPath>
</defs>
</svg>
