<svg width="48" height="48" viewBox="0 0 48 48" fill="none" xmlns="http://www.w3.org/2000/svg">
<g clip-path="url(#clip0_2053_12213)">
<mask id="mask0_2053_12213" style="mask-type:alpha" maskUnits="userSpaceOnUse" x="0" y="0" width="48" height="48">
<path d="M48 0H0V48H34V46.3333C27.1959 46.3333 21.6667 40.8041 21.6667 34C21.6667 27.1959 27.1959 21.6667 34 21.6667C40.8041 21.6667 46.3333 27.1959 46.3333 34H48V0Z" fill="#FF0000"/>
</mask>
<g mask="url(#mask0_2053_12213)">
<path d="M42 21.8758C42 32.304 35.4563 42.1079 26.3329 45.5719C24.8298 46.1427 23.1703 46.1427 21.6671 45.5719C12.5437 42.1079 6 32.304 6 21.8758V12.9695C6 10.9584 7.16367 9.13595 8.96931 8.31917L21.9693 2.43861C23.2621 1.8538 24.7379 1.8538 26.0307 2.43861L39.0307 8.31916C40.8363 9.13595 42 10.9584 42 12.9695V21.8758ZM24 39.582C24 40.9195 25.2505 41.8869 26.4366 41.3114C32.8542 38.1977 38 30.1479 38 22.3236V15.6119C38 13.6028 36.8386 11.7817 35.0355 10.9638L26.8142 7.23423C25.4914 6.63416 24 7.61949 24 9.09349V39.582Z" fill="#6A7480"/>
</g>
<path d="M32.6994 34.8334L34.0207 36.1536C34.3473 36.48 34.3467 37.0096 34.0193 37.3352C33.6934 37.6594 33.1665 37.6588 32.8413 37.3338L29.4979 33.9926L32.8413 30.6641C33.1674 30.3395 33.6947 30.34 34.0201 30.6653C34.3466 30.9917 34.3461 31.5212 34.0188 31.847L32.6928 33.1667H42.3332C41.9129 28.9626 38.3463 25.6667 34.0211 25.6667C29.4144 25.6667 25.6665 29.4059 25.6665 34.0001C25.6665 38.5942 29.4144 42.3334 34.0211 42.3334C38.3463 42.3334 41.9129 39.0384 42.3332 34.8334H32.6994Z" fill="#F04747"/>
</g>
<defs>
<clipPath id="clip0_2053_12213">
<rect width="48" height="48" fill="white"/>
</clipPath>
</defs>
</svg>
