<svg width="48" height="48" viewBox="0 0 48 48" fill="none" xmlns="http://www.w3.org/2000/svg">
<g clip-path="url(#clip0_2053_12257)">
<mask id="mask0_2053_12257" style="mask-type:alpha" maskUnits="userSpaceOnUse" x="0" y="0" width="48" height="48">
<path d="M48 0H0V48H38.4284V45.5851C36.2957 46.4241 34.2324 45.6624 33.0023 44.1887C31.8063 44.1834 30.5842 43.7294 29.5732 42.7075L29.5689 42.7032L27.6974 40.8059H26.5926C23.834 40.8059 21.6667 38.5535 21.6667 35.87V32.1266C21.6667 29.4431 23.834 27.1907 26.5926 27.1907H27.701L29.5732 25.2984C30.5805 24.2803 31.7974 23.8259 32.9892 23.8173C34.2285 22.3356 36.3147 21.6011 38.4041 22.4021L38.4081 22.4037C43.0608 24.1932 46.3333 28.7166 46.3333 33.9983H48V0Z" fill="#F04747"/>
</mask>
<g mask="url(#mask0_2053_12257)">
<path d="M42 21.8758C42 32.304 35.4563 42.1079 26.3329 45.5719C24.8298 46.1427 23.1703 46.1427 21.6671 45.5719C12.5437 42.1079 6 32.304 6 21.8758V12.9695C6 10.9584 7.16367 9.13595 8.96931 8.31917L21.9693 2.43861C23.2621 1.8538 24.7379 1.8538 26.0307 2.43861L39.0307 8.31916C40.8363 9.13595 42 10.9584 42 12.9695V21.8758ZM24 39.582C24 40.9195 25.2505 41.8869 26.4366 41.3114C32.8542 38.1977 38 30.1479 38 22.3236V15.6119C38 13.6028 36.8386 11.7817 35.0355 10.9638L26.8142 7.23423C25.4914 6.63416 24 7.61949 24 9.09349V39.582Z" fill="#6A7480"/>
</g>
<path d="M25.6665 35.87V32.1265C25.6665 31.6118 26.0832 31.1907 26.5924 31.1907H29.3702L32.4165 28.1117C32.9998 27.5221 33.9998 27.9432 33.9998 28.7761V39.2297C33.9998 40.0627 32.9998 40.4838 32.4165 39.8942L29.3702 36.8059H26.5924C26.0832 36.8059 25.6665 36.3847 25.6665 35.87ZM38.1665 33.9983C38.1663 34.7824 37.9495 35.5509 37.5405 36.2173C37.357 36.5163 37.138 36.7895 36.8895 37.0313C36.4676 37.4418 35.8517 37.0758 35.8517 36.4849V31.5176C35.8517 30.9276 36.4661 30.5615 36.8886 30.9702C37.6758 31.7318 38.1665 32.8043 38.1665 33.9983ZM35.8517 41.064V40.8769C35.8517 40.5212 36.0832 40.2124 36.4072 40.0814C38.7961 39.1174 40.4813 36.7497 40.4813 33.9983C40.4813 31.2468 38.7961 28.8791 36.4072 27.9151C36.0739 27.7841 35.8517 27.4753 35.8517 27.1197V26.9325C35.8517 26.3429 36.435 25.9311 36.9721 26.137C40.1109 27.3443 42.3332 30.4045 42.3332 33.9983C42.3332 37.592 40.1109 40.6523 36.9721 41.8595C36.435 42.0748 35.8517 41.6536 35.8517 41.064Z" fill="#FAA61A"/>
</g>
<defs>
<clipPath id="clip0_2053_12257">
<rect width="48" height="48" fill="white"/>
</clipPath>
</defs>
</svg>
