<svg width="48" height="48" viewBox="0 0 48 48" fill="none" xmlns="http://www.w3.org/2000/svg">
<g clip-path="url(#clip0_2053_12265)">
<mask id="mask0_2053_12265" style="mask-type:alpha" maskUnits="userSpaceOnUse" x="0" y="0" width="48" height="48">
<path d="M48 0H0V48H36.4408V44.6666H31.5585C30.1142 44.6666 28.8351 44.0096 27.9885 42.9857C25.8772 43.6664 23.3352 42.8777 22.1888 40.5601C21.333 38.83 20.833 36.8633 20.833 34.7812C20.833 27.5168 26.7577 21.6666 33.9997 21.6666C41.2417 21.6666 47.1663 27.5169 47.1663 34.7812H48V0Z" fill="#F04747"/>
</mask>
<g mask="url(#mask0_2053_12265)">
<path d="M42 21.8758C42 32.304 35.4563 42.1079 26.3329 45.5719C24.8298 46.1427 23.1703 46.1427 21.6671 45.5719C12.5437 42.1079 6 32.304 6 21.8758V12.9695C6 10.9584 7.16367 9.13595 8.96931 8.31917L21.9693 2.43861C23.2621 1.8538 24.7379 1.8538 26.0307 2.43861L39.0307 8.31916C40.8363 9.13595 42 10.9584 42 12.9695V21.8758ZM24 39.582C24 40.9195 25.2505 41.8869 26.4366 41.3114C32.8542 38.1977 38 30.1479 38 22.3236V15.6119C38 13.6028 36.8386 11.7817 35.0355 10.9638L26.8142 7.23423C25.4914 6.63416 24 7.61949 24 9.09349V39.582Z" fill="#6A7480"/>
</g>
<path d="M35.8575 34.7812C35.8575 35.8012 35.0197 36.6301 34.0002 36.6301C32.9807 36.6301 32.1428 35.8012 32.1428 34.7812C32.1428 33.7612 32.9807 32.9323 34.0002 32.9323C35.0197 32.9323 35.8575 33.7612 35.8575 34.7812Z" fill="#43B581"/>
<path d="M30.9246 40.0286C30.9246 38.4949 32.2326 37.3723 34.0002 37.3723C35.7678 37.3723 37.0757 38.4949 37.0757 40.0286C37.0757 40.381 36.7917 40.6666 36.4413 40.6666H31.559C31.2086 40.6666 30.9246 40.381 30.9246 40.0286Z" fill="#43B581"/>
<path d="M34.0002 30.9791C31.8848 30.9791 30.1725 32.6851 30.1725 34.7812C30.1725 35.2633 30.2694 35.7201 30.4408 36.1446C30.6049 36.5512 30.4928 37.0656 30.0776 37.305C29.6827 37.5327 29.1451 37.4111 28.9457 36.9581C28.6513 36.2889 28.4882 35.5527 28.4882 34.7812C28.4882 31.7591 30.9665 29.2994 34.0002 29.2994C37.0338 29.2994 39.5122 31.7591 39.5122 34.7812C39.5122 35.5581 39.3445 36.2893 39.0534 36.9542C38.8549 37.4075 38.3169 37.5324 37.9207 37.3039C37.5067 37.0651 37.3948 36.5521 37.5587 36.1467C37.7306 35.7216 37.8278 35.2641 37.8278 34.7812C37.8278 32.6851 36.1156 30.9791 34.0002 30.9791Z" fill="#43B581"/>
<path d="M34.0002 27.3463C29.8625 27.3463 26.5178 30.675 26.5178 34.7812C26.5178 35.9227 26.7809 37.0029 27.2413 37.9661C27.4344 38.37 27.3115 38.8808 26.9051 39.1157C26.5099 39.3441 25.987 39.216 25.7747 38.7866C25.1782 37.5808 24.8335 36.2186 24.8335 34.7812C24.8335 29.7489 28.9443 25.6666 34.0002 25.6666C39.056 25.6666 43.1668 29.7489 43.1668 34.7812C43.1668 36.2205 42.8212 37.5846 42.2179 38.797C42.0049 39.2251 41.4829 39.3524 41.0883 39.1244C40.6812 38.8891 40.5587 38.3772 40.7531 37.9732C41.219 37.0047 41.4825 35.9236 41.4825 34.7812C41.4825 30.675 38.1378 27.3463 34.0002 27.3463Z" fill="#43B581"/>
</g>
<defs>
<clipPath id="clip0_2053_12265">
<rect width="48" height="48" fill="white"/>
</clipPath>
</defs>
</svg>
