<svg width="48" height="48" viewBox="0 0 48 48" fill="none" xmlns="http://www.w3.org/2000/svg">
<path d="M41.1111 12.6H29.7778V6.9C29.7778 5.8512 28.9334 5 27.8889 5H10.8889C9.84433 5 9 5.8512 9 6.9V41.1111C9 42.1543 9.84568 43 10.8889 43C11.9321 43 12.7778 42.1543 12.7778 41.1111V27.8H23.3291L18.9979 32.1567C18.4577 32.7001 18.2971 33.5171 18.588 34.2277C18.8789 34.9383 19.5702 35.4 20.3333 35.4H41.1111C42.1557 35.4 43 34.5488 43 33.5V14.5C43 13.4512 42.1557 12.6 41.1111 12.6Z" fill="#6A7480"/>
</svg>
