<svg width="48" height="48" viewBox="0 0 48 48" fill="none" xmlns="http://www.w3.org/2000/svg">
<path d="M24.5037 29.5999C24.742 28.9461 24.5828 28.2106 24.097 27.7196L20.4238 24.008L20.4766 23.954C23.4588 20.5648 25.687 16.5547 27.0074 12.2H30.4001C31.3749 12.2 32.1651 11.3941 32.1651 10.4C32.1651 9.40589 31.3749 8.6 30.4001 8.6H19.8429V6.79517C19.8429 5.80372 19.0548 5 18.0826 5C17.1104 5 16.3222 5.80372 16.3222 6.79517V8.6H5.76506C4.79024 8.6 4 9.40589 4 10.4C4 11.3941 4.79024 12.2 5.76506 12.2H23.6628C22.4834 15.656 20.6174 18.95 18.0826 21.83C16.6764 20.2375 15.478 18.5122 14.4874 16.6997C14.1885 16.1528 13.6299 15.8 13.016 15.8C11.8318 15.8 11.0471 17.0424 11.6187 18.1002C12.7462 20.1866 14.125 22.1701 15.7413 24.008L8.04076 31.7739C7.34605 32.4745 7.34216 33.6175 8.0321 34.323C8.72128 35.0277 9.84064 35.0277 10.5298 34.323L18.0826 26.6L21.638 30.2355C22.5348 31.1525 24.0614 30.8139 24.5037 29.5999ZM35.4222 21.0814C35.0514 20.0702 34.104 19.4 33.0453 19.4C31.9866 19.4 31.0392 20.0702 30.6683 21.0814L24.1957 38.7307C23.7929 39.8292 24.5893 41 25.7393 41C26.4276 41 27.0435 40.5637 27.2837 39.9058L28.8557 35.6H37.2172L38.8046 39.9093C39.0463 40.5654 39.6616 41 40.3489 41C41.5 41 42.2972 39.828 41.894 38.7284L35.4222 21.0814ZM30.6227 32C30.4149 32 30.2709 31.7885 30.3436 31.59L32.9057 24.5874C32.9539 24.4557 33.1366 24.4557 33.1848 24.5874L35.747 31.59C35.8196 31.7885 35.6757 32 35.4679 32H30.6227Z" fill="#6A7480"/>
</svg>
