<svg width="48" height="48" viewBox="0 0 48 48" fill="none" xmlns="http://www.w3.org/2000/svg">
<path d="M24 4C12.972 4 4 12.976 4 24C4 35.032 12.972 44 24 44C35.028 44 44 35.032 44 24C44 12.976 35.028 4 24 4ZM24 13.504C24.3283 13.504 24.6534 13.5687 24.9567 13.6943C25.26 13.8199 25.5356 14.0041 25.7678 14.2362C25.9999 14.4684 26.1841 14.744 26.3097 15.0473C26.4353 15.3506 26.5 15.6757 26.5 16.004C26.5 16.3323 26.4353 16.6574 26.3097 16.9607C26.1841 17.264 25.9999 17.5396 25.7678 17.7718C25.5356 18.0039 25.26 18.1881 24.9567 18.3137C24.6534 18.4393 24.3283 18.504 24 18.504C23.337 18.504 22.7011 18.2406 22.2322 17.7718C21.7634 17.3029 21.5 16.667 21.5 16.004C21.5 15.341 21.7634 14.7051 22.2322 14.2362C22.7011 13.7674 23.337 13.504 24 13.504ZM30 32C30 33.1046 29.1046 34 28 34H20C18.8954 34 18 33.1046 18 32C18 30.8954 18.8954 30 20 30H22V24C20.8954 24 20 23.1046 20 22C20 20.8954 20.8954 20 22 20H24C24.5304 20 25.0391 20.2107 25.4142 20.5858C25.7893 20.9609 26 21.4696 26 22V30H28C29.1046 30 30 30.8954 30 32Z" fill="#6A7480"/>
</svg>
