<svg width="48" height="48" viewBox="0 0 48 48" fill="none" xmlns="http://www.w3.org/2000/svg">
<path d="M42.2381 20.0476H39.381V12.4286C39.381 10.3333 37.6667 8.61905 35.5714 8.61905H27.9524V5.7619C27.9524 4.49897 27.4507 3.28776 26.5577 2.39473C25.6646 1.5017 24.4534 1 23.1905 1C21.9275 1 20.7163 1.5017 19.8233 2.39473C18.9303 3.28776 18.4286 4.49897 18.4286 5.7619V8.61905H10.8095C8.71429 8.61905 7.01905 10.3333 7.01905 12.4286L7.01905 19.6667H9.85714C12.6952 19.6667 15 21.9714 15 24.8095C15 27.6476 12.6952 29.9524 9.85714 29.9524H7V37.1905C7 39.2857 8.71429 41 10.8095 41H18.0476V38.1429C18.0476 35.3048 20.3524 33 23.1905 33C26.0286 33 28.3333 35.3048 28.3333 38.1429V41H35.5714C37.6667 41 39.381 39.2857 39.381 37.1905V29.5714H42.2381C43.501 29.5714 44.7122 29.0697 45.6053 28.1767C46.4983 27.2837 47 26.0725 47 24.8095C47 23.5466 46.4983 22.3354 45.6053 21.4423C44.7122 20.5493 43.501 20.0476 42.2381 20.0476Z" fill="#6A7480"/>
</svg>
