<svg width="48" height="48" viewBox="0 0 48 48" fill="none" xmlns="http://www.w3.org/2000/svg">
<g clip-path="url(#clip0_2015_11581)">
<mask id="mask0_2015_11581" style="mask-type:alpha" maskUnits="userSpaceOnUse" x="0" y="0" width="48" height="48">
<path d="M48 0H0V48H34V46.3333C27.1959 46.3333 21.6667 40.8041 21.6667 34C21.6667 27.1959 27.1959 21.6667 34 21.6667C40.8041 21.6667 46.3333 27.1959 46.3333 34H48V0Z" fill="#FF0000"/>
</mask>
<g mask="url(#mask0_2015_11581)">
<path d="M23.98 4C12.94 4 4 12.96 4 24C4 35.04 12.94 44 23.98 44C35.04 44 44 35.04 44 24C44 12.96 35.04 4 23.98 4ZM17 16C18.66 16 20 17.34 20 19C20 20.66 18.66 22 17 22C15.34 22 14 20.66 14 19C14 17.34 15.34 16 17 16ZM33.42 29.44C31.6 33.34 28.08 36 24 36C19.92 36 16.4 33.34 14.58 29.44C14.26 28.78 14.74 28 15.48 28H32.52C33.26 28 33.74 28.78 33.42 29.44ZM31 22C29.34 22 28 20.66 28 19C28 17.34 29.34 16 31 16C32.66 16 34 17.34 34 19C34 20.66 32.66 22 31 22Z" fill="#6A7480"/>
</g>
<path d="M34.0003 25.6667C29.4053 25.6667 25.667 29.4051 25.667 34.0001C25.667 38.5951 29.4053 42.3334 34.0003 42.3334C38.5953 42.3334 42.3337 38.5951 42.3337 34.0001C42.3337 29.4051 38.5953 25.6667 34.0003 25.6667ZM38.167 34.0001C38.167 34.4603 37.7939 34.8334 37.3337 34.8334H34.8337V37.3334C34.8337 37.7937 34.4606 38.1668 34.0003 38.1668C33.5401 38.1668 33.167 37.7937 33.167 37.3334V34.8334H30.667C30.2068 34.8334 29.8337 34.4603 29.8337 34.0001C29.8337 33.5399 30.2068 33.1668 30.667 33.1668H33.167V30.6667C33.167 30.2065 33.5401 29.8334 34.0003 29.8334C34.4606 29.8334 34.8337 30.2065 34.8337 30.6667V33.1668H37.3337C37.7939 33.1668 38.167 33.5399 38.167 34.0001Z" fill="#43B581"/>
</g>
<defs>
<clipPath id="clip0_2015_11581">
<rect width="48" height="48" fill="white"/>
</clipPath>
</defs>
</svg>
