<svg width="48" height="48" viewBox="0 0 48 48" fill="none" xmlns="http://www.w3.org/2000/svg">
<path d="M23.98 4C12.94 4 4 12.96 4 24C4 35.04 12.94 44 23.98 44C35.04 44 44 35.04 44 24C44 12.96 35.04 4 23.98 4ZM17 16C18.66 16 20 17.34 20 19C20 20.66 18.66 22 17 22C15.34 22 14 20.66 14 19C14 17.34 15.34 16 17 16ZM33.42 29.44C31.6 33.34 28.08 36 24 36C19.92 36 16.4 33.34 14.58 29.44C14.26 28.78 14.74 28 15.48 28H32.52C33.26 28 33.74 28.78 33.42 29.44ZM31 22C29.34 22 28 20.66 28 19C28 17.34 29.34 16 31 16C32.66 16 34 17.34 34 19C34 20.66 32.66 22 31 22Z" fill="#43B581"/>
</svg>
