<svg width="48" height="48" viewBox="0 0 48 48" fill="none" xmlns="http://www.w3.org/2000/svg">
<path fill-rule="evenodd" clip-rule="evenodd" d="M9.85121 9.85124C17.6529 2.04959 30.3471 2.04959 38.1488 9.85122C45.9504 17.6529 45.9504 30.3471 38.1488 38.1488C30.3471 45.9504 17.6529 45.9504 9.85123 38.1488C2.0496 30.3471 2.04959 17.6529 9.85121 9.85124ZM14.9256 24.7554L19.1702 29L22 31.8298L24.8297 29L34.0744 19.7554C34.8558 18.9739 34.8558 17.707 34.0744 16.9256C33.293 16.1442 32.0261 16.1442 31.2446 16.9256L22 26.1703L17.7554 21.9256C16.9739 21.1442 15.707 21.1442 14.9256 21.9256C14.1442 22.707 14.1442 23.974 14.9256 24.7554Z" fill="#43B581"/>
</svg>
