<svg width="48" height="48" viewBox="0 0 48 48" fill="none" xmlns="http://www.w3.org/2000/svg">
<path d="M27.121 26L23.95 29.1684C23.166 29.9517 23.1675 31.2228 23.9532 32.0043C24.7355 32.7824 26 32.7809 26.7804 32.001L34.8046 23.982L26.7804 15.9936C25.9978 15.2145 24.7324 15.2158 23.9514 15.9964C23.1677 16.7798 23.169 18.0508 23.9545 18.8325L27.137 22H4C5.00857 11.91 13.5684 4 23.9489 4C35.0051 4 44 12.974 44 24C44 35.026 35.0051 44 23.9489 44C13.5684 44 5.00857 36.092 4 26H27.121Z" fill="#6A7480"/>
</svg>
