<svg width="48" height="48" viewBox="0 0 48 48" fill="none" xmlns="http://www.w3.org/2000/svg">
<path d="M6 20.6195C6 11.0392 13.24 2.65902 22.8 2.03901C27.0886 1.76073 31.0825 2.98628 34.3047 5.24007L31.4237 8.12224C30.6789 7.65647 29.89 7.26069 29.067 6.94124C27.3195 6.26298 25.4536 5.9426 23.58 5.99911C15.92 6.21912 10 12.8993 10 20.5795V23.9996H14C14.4641 23.9996 14.9103 24.0797 15.3257 24.2267L6 33.5561V20.6195Z" fill="#F04747"/>
<path d="M14 40H12C11.6115 40 11.2318 39.9633 10.8641 39.8932C10.1372 39.7553 9.48296 39.5018 8.87417 39.1256C8.31356 38.7792 7.78535 38.3248 7.36795 37.8187L38.1049 7.05615C38.8879 6.27295 40.173 6.27295 40.956 7.05615C41.727 7.82567 41.7194 9.12575 40.956 9.88774L39.6835 11.1605C41.1583 13.7711 42 16.7868 42 19.9995V33.9998C42 37.3199 39.32 40 36 40H34C31.8 40 30 38.2 30 35.9999V27.9997C30 25.7996 31.8 23.9996 34 23.9996H38V19.9995C38.0011 18.125 36.8962 14.5426 36.8962 14.5426C36.8962 14.5426 36.777 14.2667 36.7141 14.1304L18 32.848V35.9999C18 38.2 16.2 40 14 40Z" fill="#F04747"/>
</svg>
