<svg width="48" height="48" viewBox="0 0 48 48" fill="none" xmlns="http://www.w3.org/2000/svg">
<path d="M17.6528 7.94753C20.9526 4.64918 22.6025 3 24.6516 3C26.7026 3 28.3525 4.64918 31.6505 7.94753L33.1417 9.43775L35.1651 7.42884C35.6105 7.19021 36.1094 7.06916 36.6147 7.07714C37.12 7.08512 37.6149 7.22187 38.0525 7.47444C38.3908 7.67014 38.7178 7.99503 39.3678 8.64672L39.3931 8.672C40.0264 9.305 40.3474 9.62583 40.5407 9.95961C40.7937 10.3973 40.9307 10.8923 40.9387 11.3977C40.9466 11.9031 40.8254 12.4022 40.5863 12.8476L38.5771 14.8694L40.0521 16.3435C43.3501 19.64 45 21.2892 45 23.3392C45 25.3874 43.3501 27.0366 40.0502 30.3349C36.7504 33.6333 35.1005 35.2825 33.0514 35.2825C31.0004 35.2825 29.3505 33.6333 26.0525 30.3349L24.6256 28.909L14.1704 39.4301C13.5204 40.0799 13.1934 40.4067 12.8551 40.6024C12.4037 40.8629 11.8917 41 11.3705 41C10.8493 41 10.3373 40.8629 9.88597 40.6024C9.55012 40.4092 9.22908 40.0883 8.59563 39.4551L8.5706 39.4301C7.91861 38.7803 7.59357 38.4535 7.39778 38.1153C7.13719 37.6642 7 37.1524 7 36.6314C7 36.1105 7.13719 35.5987 7.39778 35.1476C7.59357 34.8094 7.91861 34.4845 8.5706 33.8328L19.1043 23.3746L17.6509 21.9389L17.6371 21.9252C14.3502 18.6379 12.703 16.9905 12.703 14.9432C12.703 12.8951 14.3529 11.2459 17.6528 7.94753Z" fill="#6A7480"/>
</svg>
