<svg width="48" height="48" viewBox="0 0 48 48" fill="none" xmlns="http://www.w3.org/2000/svg">
<path d="M35.18 7.18C34.42 6.42 33.4 6 32.34 6L10 6C8.93913 6 7.92172 6.42143 7.17157 7.17157C6.42143 7.92172 6 8.93913 6 10L6 38C6 40.2 7.8 42 10 42H38C40.2 42 42 40.2 42 38V15.66C42 14.6 41.58 13.58 40.82 12.84L35.18 7.18ZM24 38C20.68 38 18 35.32 18 32C18 28.68 20.68 26 24 26C27.32 26 30 28.68 30 32C30 35.32 27.32 38 24 38ZM26 18H14C11.8 18 10 16.2 10 14C10 11.8 11.8 10 14 10H26C28.2 10 30 11.8 30 14C30 16.2 28.2 18 26 18Z" fill="#6A7480"/>
</svg>
