<svg width="48" height="48" viewBox="0 0 48 48" fill="none" xmlns="http://www.w3.org/2000/svg">
<g clip-path="url(#clip0_2053_12111)">
<mask id="mask0_2053_12111" style="mask-type:alpha" maskUnits="userSpaceOnUse" x="0" y="0" width="48" height="48">
<path d="M48 0H0V48H34V47.1667C30.7706 47.1667 28.2605 45.7642 26.4936 43.809C24.8296 41.9677 23.8638 39.6987 23.2771 37.7534C22.1029 33.8601 22.0833 29.9971 22.0833 29.6154C22.0833 27.8848 23.016 26.2795 24.5374 25.4285L31.6654 21.4412C33.1171 20.6307 34.8829 20.6307 36.3346 21.4412L43.4616 25.428L43.4626 25.4285C44.984 26.2795 45.9167 27.8849 45.9167 29.6154H48V0Z" fill="#FF0000"/>
</mask>
<g mask="url(#mask0_2053_12111)">
<path d="M24 37.1737L34.1847 43.6191C36.0498 44.8004 38.3322 43.0542 37.8414 40.8458L35.1418 28.7254L44.1485 20.5595C45.7928 19.0701 44.9093 16.2454 42.7497 16.0656L30.8961 15.0128L26.2578 3.56C25.4234 1.48 22.5766 1.48 21.7422 3.56L17.1039 14.9871L5.25035 16.04C3.0907 16.2197 2.20721 19.0444 3.85148 20.5338L12.8582 28.6997L10.1586 40.8201C9.6678 43.0285 11.9502 44.7747 13.8153 43.5935L24 37.1737Z" fill="#6A7480"/>
</g>
<path fill-rule="evenodd" clip-rule="evenodd" d="M41.5099 28.9194L34.3849 24.9337C34.145 24.7998 33.8553 24.7998 33.6154 24.9337L26.4904 28.9194C26.2395 29.0597 26.0835 29.3259 26.0835 29.6153C26.0835 30.1685 26.1737 43.1666 34.0002 43.1666C41.8266 43.1666 41.9168 30.1685 41.9168 29.6153C41.9168 29.3259 41.7609 29.0597 41.5099 28.9194ZM34.0002 29.6153C35.0935 29.6153 35.9793 30.5073 35.9793 31.6081C35.9793 32.709 35.0935 33.601 34.0002 33.601C32.9069 33.601 32.021 32.709 32.021 31.6081C32.021 30.5073 32.9069 29.6153 34.0002 29.6153ZM31.4481 37.5874C31.218 37.5874 31.0288 37.3999 31.0521 37.171C31.2144 35.5801 32.3206 34.5982 34.0002 34.5982C35.6798 34.5982 36.7859 35.5801 36.9482 37.171C36.9716 37.3999 36.7824 37.5874 36.5523 37.5874H31.4481Z" fill="#F04747"/>
</g>
<defs>
<clipPath id="clip0_2053_12111">
<rect width="48" height="48" fill="white"/>
</clipPath>
</defs>
</svg>
