<svg width="48" height="48" viewBox="0 0 48 48" fill="none" xmlns="http://www.w3.org/2000/svg">
<g clip-path="url(#clip0_2053_12103)">
<mask id="mask0_2053_12103" style="mask-type:alpha" maskUnits="userSpaceOnUse" x="0" y="0" width="48" height="48">
<path d="M48 0H0V48H34V46.3333C27.1959 46.3333 21.6667 40.8041 21.6667 34C21.6667 27.1959 27.1959 21.6667 34 21.6667C40.8041 21.6667 46.3333 27.1959 46.3333 34H48V0Z" fill="#FF0000"/>
</mask>
<g mask="url(#mask0_2053_12103)">
<path d="M24 37.1737L34.1847 43.6191C36.0498 44.8004 38.3322 43.0542 37.8414 40.8458L35.1418 28.7254L44.1485 20.5595C45.7928 19.0701 44.9093 16.2454 42.7497 16.0656L30.8961 15.0128L26.2578 3.56C25.4234 1.48 22.5766 1.48 21.7422 3.56L17.1039 14.9871L5.25035 16.04C3.0907 16.2197 2.20721 19.0444 3.85148 20.5338L12.8582 28.6997L10.1586 40.8201C9.6678 43.0285 11.9502 44.7747 13.8153 43.5935L24 37.1737Z" fill="#6A7480"/>
</g>
<path d="M35.3002 34.8334L33.979 36.1536C33.6524 36.48 33.653 37.0096 33.9803 37.3352C34.3063 37.6594 34.8332 37.6588 35.1584 37.3338L38.5017 33.9926L35.1583 30.6641C34.8323 30.3395 34.305 30.34 33.9796 30.6653C33.653 30.9917 33.6536 31.5212 33.9809 31.847L35.3069 33.1667H25.6665C26.0867 28.9626 29.6533 25.6667 33.9785 25.6667C38.5853 25.6667 42.3332 29.4059 42.3332 34.0001C42.3332 38.5942 38.5853 42.3334 33.9785 42.3334C29.6533 42.3334 26.0867 39.0384 25.6665 34.8334H35.3002Z" fill="#43B581"/>
</g>
<defs>
<clipPath id="clip0_2053_12103">
<rect width="48" height="48" fill="white"/>
</clipPath>
</defs>
</svg>
