<svg width="48" height="48" viewBox="0 0 48 48" fill="none" xmlns="http://www.w3.org/2000/svg">
<g clip-path="url(#clip0_2053_12091)">
<mask id="mask0_2053_12091" style="mask-type:alpha" maskUnits="userSpaceOnUse" x="0" y="0" width="48" height="48">
<path d="M48 0H0V48H34V46.3333C27.1959 46.3333 21.6667 40.8041 21.6667 34C21.6667 27.1959 27.1959 21.6667 34 21.6667C40.8041 21.6667 46.3333 27.1959 46.3333 34H48V0Z" fill="#FF0000"/>
</mask>
<g mask="url(#mask0_2053_12091)">
<path d="M24 37.1737L34.1847 43.6191C36.0498 44.8004 38.3322 43.0542 37.8414 40.8458L35.1418 28.7254L44.1485 20.5595C45.7928 19.0701 44.9093 16.2454 42.7497 16.0656L30.8961 15.0128L26.2578 3.56C25.4234 1.48 22.5766 1.48 21.7422 3.56L17.1039 14.9871L5.25035 16.04C3.0907 16.2197 2.20721 19.0444 3.85148 20.5338L12.8582 28.6997L10.1586 40.8201C9.6678 43.0285 11.9502 44.7747 13.8153 43.5935L24 37.1737Z" fill="#6A7480"/>
</g>
<path fill-rule="evenodd" clip-rule="evenodd" d="M25.6665 34.0001C25.6665 29.4051 29.4048 25.6667 33.9998 25.6667C38.5948 25.6667 42.3332 29.4051 42.3332 34.0001C42.3332 38.5951 38.5948 42.3334 33.9998 42.3334C29.4048 42.3334 25.6665 38.5951 25.6665 34.0001ZM29.8332 34.0001C29.8332 34.4603 30.2063 34.8334 30.6665 34.8334H37.3332C37.7934 34.8334 38.1665 34.4603 38.1665 34.0001C38.1665 33.5399 37.7934 33.1668 37.3332 33.1668H30.6665C30.2063 33.1668 29.8332 33.5399 29.8332 34.0001Z" fill="#F04747"/>
</g>
<defs>
<clipPath id="clip0_2053_12091">
<rect width="48" height="48" fill="white"/>
</clipPath>
</defs>
</svg>
