<svg width="48" height="48" viewBox="0 0 48 48" fill="none" xmlns="http://www.w3.org/2000/svg">
<g clip-path="url(#clip0_2053_12099)">
<mask id="mask0_2053_12099" style="mask-type:alpha" maskUnits="userSpaceOnUse" x="0" y="0" width="48" height="48">
<path d="M48 0H0V48H34V46.3333C27.1959 46.3333 21.6667 40.8041 21.6667 34C21.6667 27.1959 27.1959 21.6667 34 21.6667C40.8041 21.6667 46.3333 27.1959 46.3333 34H48V0Z" fill="#FF0000"/>
</mask>
<g mask="url(#mask0_2053_12099)">
<path d="M24 37.1737L34.1847 43.6191C36.0498 44.8004 38.3322 43.0542 37.8414 40.8458L35.1418 28.7254L44.1485 20.5595C45.7928 19.0701 44.9093 16.2454 42.7497 16.0656L30.8961 15.0128L26.2578 3.56C25.4234 1.48 22.5766 1.48 21.7422 3.56L17.1039 14.9871L5.25035 16.04C3.0907 16.2197 2.20721 19.0444 3.85148 20.5338L12.8582 28.6997L10.1586 40.8201C9.6678 43.0285 11.9502 44.7747 13.8153 43.5935L24 37.1737Z" fill="#6A7480"/>
</g>
<path d="M32.6994 34.8334L34.0207 36.1536C34.3473 36.48 34.3467 37.0096 34.0193 37.3352C33.6934 37.6594 33.1665 37.6588 32.8413 37.3338L29.4979 33.9926L32.8413 30.6641C33.1674 30.3395 33.6947 30.34 34.0201 30.6653C34.3466 30.9917 34.3461 31.5212 34.0188 31.847L32.6928 33.1667H42.3332C41.9129 28.9626 38.3463 25.6667 34.0211 25.6667C29.4144 25.6667 25.6665 29.4059 25.6665 34.0001C25.6665 38.5942 29.4144 42.3334 34.0211 42.3334C38.3463 42.3334 41.9129 39.0384 42.3332 34.8334H32.6994Z" fill="#F04747"/>
</g>
<defs>
<clipPath id="clip0_2053_12099">
<rect width="48" height="48" fill="white"/>
</clipPath>
</defs>
</svg>
