<svg width="48" height="48" viewBox="0 0 48 48" fill="none" xmlns="http://www.w3.org/2000/svg">
<g clip-path="url(#clip0_2053_12155)">
<mask id="mask0_2053_12155" style="mask-type:alpha" maskUnits="userSpaceOnUse" x="0" y="0" width="48" height="48">
<path d="M48 0H0V48H36.4408V44.6666H31.5585C30.1142 44.6666 28.8351 44.0096 27.9885 42.9857C25.8772 43.6664 23.3352 42.8777 22.1888 40.5601C21.333 38.83 20.833 36.8633 20.833 34.7812C20.833 27.5168 26.7577 21.6666 33.9997 21.6666C41.2417 21.6666 47.1663 27.5169 47.1663 34.7812H48V0Z" fill="#F04747"/>
</mask>
<g mask="url(#mask0_2053_12155)">
<path d="M24 37.1737L34.1847 43.6191C36.0498 44.8004 38.3322 43.0542 37.8414 40.8458L35.1418 28.7254L44.1485 20.5595C45.7928 19.0701 44.9093 16.2454 42.7497 16.0656L30.8961 15.0128L26.2578 3.56C25.4234 1.48 22.5766 1.48 21.7422 3.56L17.1039 14.9871L5.25035 16.04C3.0907 16.2197 2.20721 19.0444 3.85148 20.5338L12.8582 28.6997L10.1586 40.8201C9.6678 43.0285 11.9502 44.7747 13.8153 43.5935L24 37.1737Z" fill="#6A7480"/>
</g>
<path d="M35.8575 34.7814C35.8575 35.8013 35.0197 36.6303 34.0002 36.6303C32.9807 36.6303 32.1428 35.8013 32.1428 34.7814C32.1428 33.7613 32.9807 32.9324 34.0002 32.9324C35.0197 32.9324 35.8575 33.7613 35.8575 34.7814Z" fill="#FAA61A"/>
<path d="M30.9246 40.0287C30.9246 38.4951 32.2326 37.3725 34.0002 37.3725C35.7678 37.3725 37.0757 38.4951 37.0757 40.0287C37.0757 40.3811 36.7917 40.6667 36.4413 40.6667H31.559C31.2086 40.6667 30.9246 40.3811 30.9246 40.0287Z" fill="#FAA61A"/>
<path d="M34.0002 30.9792C31.8848 30.9792 30.1725 32.6852 30.1725 34.7814C30.1725 35.2635 30.2694 35.7202 30.4408 36.1447C30.6049 36.5514 30.4928 37.0657 30.0776 37.3052C29.6827 37.5329 29.1451 37.4112 28.9457 36.9582C28.6513 36.289 28.4882 35.5528 28.4882 34.7814C28.4882 31.7592 30.9665 29.2996 34.0002 29.2996C37.0338 29.2996 39.5122 31.7592 39.5122 34.7814C39.5122 35.5583 39.3445 36.2894 39.0534 36.9543C38.8549 37.4076 38.3169 37.5325 37.9207 37.304C37.5067 37.0652 37.3948 36.5523 37.5587 36.1468C37.7306 35.7217 37.8278 35.2643 37.8278 34.7814C37.8278 32.6852 36.1156 30.9792 34.0002 30.9792Z" fill="#FAA61A"/>
<path d="M34.0002 27.3464C29.8625 27.3464 26.5178 30.6751 26.5178 34.7814C26.5178 35.9228 26.7809 37.0031 27.2413 37.9663C27.4344 38.3701 27.3115 38.8809 26.9051 39.1158C26.5099 39.3442 25.987 39.2161 25.7747 38.7868C25.1782 37.5809 24.8335 36.2187 24.8335 34.7814C24.8335 29.749 28.9443 25.6667 34.0002 25.6667C39.056 25.6667 43.1668 29.749 43.1668 34.7814C43.1668 36.2207 42.8212 37.5847 42.2179 38.7971C42.0049 39.2252 41.4829 39.3526 41.0883 39.1245C40.6812 38.8893 40.5587 38.3774 40.7531 37.9733C41.219 37.0048 41.4825 35.9238 41.4825 34.7814C41.4825 30.6751 38.1378 27.3464 34.0002 27.3464Z" fill="#FAA61A"/>
</g>
<defs>
<clipPath id="clip0_2053_12155">
<rect width="48" height="48" fill="white"/>
</clipPath>
</defs>
</svg>
