<svg width="48" height="48" viewBox="0 0 48 48" fill="none" xmlns="http://www.w3.org/2000/svg">
<g clip-path="url(#clip0_2053_12087)">
<mask id="mask0_2053_12087" style="mask-type:alpha" maskUnits="userSpaceOnUse" x="0" y="0" width="48" height="48">
<path d="M48 0H0V48H34V46.3333C27.1959 46.3333 21.6667 40.8041 21.6667 34C21.6667 27.1959 27.1959 21.6667 34 21.6667C40.8041 21.6667 46.3333 27.1959 46.3333 34H48V0Z" fill="#FF0000"/>
</mask>
<g mask="url(#mask0_2053_12087)">
<path d="M24 37.1737L34.1847 43.6191C36.0498 44.8004 38.3322 43.0542 37.8414 40.8458L35.1418 28.7254L44.1485 20.5595C45.7928 19.0701 44.9093 16.2454 42.7497 16.0656L30.8961 15.0128L26.2578 3.56C25.4234 1.48 22.5766 1.48 21.7422 3.56L17.1039 14.9871L5.25035 16.04C3.0907 16.2197 2.20721 19.0444 3.85148 20.5338L12.8582 28.6997L10.1586 40.8201C9.6678 43.0285 11.9502 44.7747 13.8153 43.5935L24 37.1737Z" fill="#6A7480"/>
</g>
<path d="M33.9998 25.6667C29.4048 25.6667 25.6665 29.4051 25.6665 34.0001C25.6665 38.5951 29.4048 42.3334 33.9998 42.3334C38.5948 42.3334 42.3332 38.5951 42.3332 34.0001C42.3332 29.4051 38.5948 25.6667 33.9998 25.6667ZM38.1665 34.0001C38.1665 34.4603 37.7934 34.8334 37.3332 34.8334H34.8332V37.3334C34.8332 37.7937 34.4601 38.1668 33.9998 38.1668C33.5396 38.1668 33.1665 37.7937 33.1665 37.3334V34.8334H30.6665C30.2063 34.8334 29.8332 34.4603 29.8332 34.0001C29.8332 33.5399 30.2063 33.1668 30.6665 33.1668H33.1665V30.6667C33.1665 30.2065 33.5396 29.8334 33.9998 29.8334C34.4601 29.8334 34.8332 30.2065 34.8332 30.6667V33.1668H37.3332C37.7934 33.1668 38.1665 33.5399 38.1665 34.0001Z" fill="#43B581"/>
</g>
<defs>
<clipPath id="clip0_2053_12087">
<rect width="48" height="48" fill="white"/>
</clipPath>
</defs>
</svg>
