<svg width="48" height="48" viewBox="0 0 48 48" fill="none" xmlns="http://www.w3.org/2000/svg">
<g clip-path="url(#clip0_2053_12127)">
<mask id="mask0_2053_12127" style="mask-type:alpha" maskUnits="userSpaceOnUse" x="0" y="0" width="48" height="48">
<path d="M48 0H0V48H29V44.6667C25.4074 44.6667 22.5 41.759 22.5 38.1666V32.5915C22.5 26.6749 26.9748 21.2644 33.241 20.858C39.9277 20.4241 45.5 25.7275 45.5 32.3331V38.1666H48V0Z" fill="url(#paint0_linear_2053_12127)"/>
</mask>
<g mask="url(#mask0_2053_12127)">
<path d="M24 37.1737L34.1847 43.6191C36.0498 44.8004 38.3322 43.0542 37.8414 40.8458L35.1418 28.7254L44.1485 20.5595C45.7928 19.0701 44.9093 16.2454 42.7497 16.0656L30.8961 15.0128L26.2578 3.56C25.4234 1.48 22.5766 1.48 21.7422 3.56L17.1039 14.9871L5.25035 16.04C3.0907 16.2197 2.20721 19.0444 3.85148 20.5338L12.8582 28.6997L10.1586 40.8201C9.6678 43.0285 11.9502 44.7747 13.8153 43.5935L24 37.1737Z" fill="#6A7480"/>
</g>
<path d="M26.5 32.5914C26.5 28.5996 29.5167 25.1078 33.5 24.8495C35.2869 24.7336 36.951 25.2442 38.2936 26.1833L37.0932 27.3842C36.7829 27.1901 36.4542 27.0252 36.1112 26.8921C35.3831 26.6095 34.6057 26.476 33.825 26.4995C30.6333 26.5912 28.1667 29.3746 28.1667 32.5747V33.9997H29.8333C30.0267 33.9997 30.2126 34.0331 30.3857 34.0944L26.5 37.9816V32.5914Z" fill="#F04747"/>
<path d="M29.8333 40.6666H29C28.8381 40.6666 28.6799 40.6513 28.5266 40.6221C28.2238 40.5646 27.9512 40.459 27.6976 40.3023C27.464 40.1579 27.2439 39.9686 27.07 39.7577L39.877 26.94C40.2033 26.6136 40.7387 26.6136 41.065 26.94C41.3862 27.2606 41.3831 27.8023 41.065 28.1198L40.5348 28.6501C41.1493 29.7379 41.5 30.9944 41.5 32.333V38.1665C41.5 39.5499 40.3833 40.6666 39 40.6666H38.1667C37.25 40.6666 36.5 39.9166 36.5 38.9999V35.6665C36.5 34.7498 37.25 33.9997 38.1667 33.9997H39.8333V32.333C39.8338 31.552 39.3734 30.0593 39.3734 30.0593C39.3734 30.0593 39.3237 29.9444 39.2976 29.8876L31.5 37.6866V38.9999C31.5 39.9166 30.75 40.6666 29.8333 40.6666Z" fill="#F04747"/>
</g>
<defs>
<linearGradient id="paint0_linear_2053_12127" x1="0" y1="0" x2="48" y2="48" gradientUnits="userSpaceOnUse">
<stop stop-color="#00AAFF"/>
<stop offset="0.491669" stop-color="#007FFF"/>
<stop offset="1" stop-color="#0055FF"/>
<stop offset="1" stop-color="#0055FF"/>
</linearGradient>
<clipPath id="clip0_2053_12127">
<rect width="48" height="48" fill="white"/>
</clipPath>
</defs>
</svg>
