<svg width="48" height="48" viewBox="0 0 48 48" fill="none" xmlns="http://www.w3.org/2000/svg">
<g clip-path="url(#clip0_2213_390)">
<mask id="mask0_2213_390" style="mask-type:alpha" maskUnits="userSpaceOnUse" x="0" y="0" width="48" height="48">
<path d="M48 0H0V48H34V46.3333C27.1959 46.3333 21.6667 40.8041 21.6667 34C21.6667 27.1959 27.1959 21.6667 34 21.6667C40.8041 21.6667 46.3333 27.1959 46.3333 34H48V0Z" fill="#FF0000"/>
</mask>
<g mask="url(#mask0_2213_390)">
<path d="M24 37.1737L34.1847 43.6191C36.0498 44.8004 38.3322 43.0542 37.8414 40.8458L35.1418 28.7254L44.1485 20.5595C45.7928 19.0701 44.9093 16.2454 42.7497 16.0656L30.8961 15.0128L26.2578 3.56C25.4234 1.48 22.5766 1.48 21.7422 3.56L17.1039 14.9871L5.25035 16.04C3.0907 16.2197 2.20721 19.0444 3.85148 20.5338L12.8582 28.6997L10.1586 40.8201C9.6678 43.0285 11.9502 44.7747 13.8153 43.5935L24 37.1737Z" fill="#6A7480"/>
</g>
<path d="M33.9998 25.6667C29.3968 25.6667 25.6665 29.3971 25.6665 34.0001C25.6665 38.6031 29.3968 42.3334 33.9998 42.3334C38.6028 42.3334 42.3332 38.6031 42.3332 34.0001C42.3332 29.3971 38.6028 25.6667 33.9998 25.6667ZM33.9998 28.6667C34.3683 28.6667 34.6665 28.9649 34.6665 29.3334V33.6147L37.8019 35.4272C38.1209 35.6108 38.2251 36.0145 38.0415 36.3335C37.8579 36.6526 37.4543 36.7567 37.1353 36.5731L33.7393 34.6147C33.7132 34.6043 33.6898 34.5874 33.6663 34.5731C33.4671 34.4572 33.333 34.2462 33.333 34.0002V29.3335C33.333 28.965 33.6313 28.6667 33.9998 28.6667Z" fill="#F04747"/>
</g>
<defs>
<clipPath id="clip0_2213_390">
<rect width="48" height="48" fill="white"/>
</clipPath>
</defs>
</svg>
