<svg width="48" height="48" viewBox="0 0 48 48" fill="none" xmlns="http://www.w3.org/2000/svg">
<g clip-path="url(#clip0_2053_12095)">
<mask id="mask0_2053_12095" style="mask-type:alpha" maskUnits="userSpaceOnUse" x="0" y="0" width="48" height="48">
<path d="M48 0H0V48H24.0993V43.6923C22.9203 42.5131 22.4455 40.8007 22.85 39.1822L23.501 36.5779C23.8738 35.0866 24.6223 33.7156 25.6752 32.5956L32.084 25.7789L33.7272 24.1378L33.7284 24.1367L33.7293 24.1358C36.4684 21.3985 40.9161 21.3992 43.6544 24.1378L43.6554 24.1388C45.7777 26.2629 46.255 29.4144 45.085 32H48V0Z" fill="#FAA61A"/>
</mask>
<g mask="url(#mask0_2053_12095)">
<path d="M24 37.1737L34.1847 43.6191C36.0498 44.8004 38.3322 43.0542 37.8414 40.8458L35.1418 28.7254L44.1485 20.5595C45.7928 19.0701 44.9093 16.2454 42.7497 16.0656L30.8961 15.0128L26.2578 3.56C25.4234 1.48 22.5766 1.48 21.7422 3.56L17.1039 14.9871L5.25035 16.04C3.0907 16.2197 2.20721 19.0444 3.85148 20.5338L12.8582 28.6997L10.1586 40.8201C9.6678 43.0285 11.9502 44.7747 13.8153 43.5935L24 37.1737Z" fill="#6A7480"/>
</g>
<path fill-rule="evenodd" clip-rule="evenodd" d="M40.2859 31.7759L40.8259 31.2366C42.0027 30.0596 42.0027 28.1437 40.8259 26.966C39.6491 25.789 37.7328 25.789 36.556 26.966L36.0168 27.5061L40.2859 31.7759ZM34.9553 28.5646L28.5291 34.9937L32.7989 39.2631L39.2253 32.8339L34.9553 28.5646ZM27.6406 41.0612L31.5077 40.0951L27.6976 36.2843L26.7308 40.1521C26.6671 40.4071 26.7421 40.6779 26.9281 40.864C27.1141 41.05 27.3848 41.1243 27.6406 41.0612Z" fill="#FAA61A"/>
</g>
<defs>
<clipPath id="clip0_2053_12095">
<rect width="48" height="48" fill="white"/>
</clipPath>
</defs>
</svg>
